{
.appVersion = "983";
DisplayStrings = (
"ABCDEFGHIJKLMNOPQRSTUVWXYZ\012HHAHHOOAOO\012HHBHHOOBOO\012HHCHHOOCOO\012HHDHHOODOO\012HHEHHOOEOO\012HHFHHOOFOO\012HHGHHOOGOO\012HHJHHOOJOO\012HHLHHOOLOO\012HHKHHOOKOO\012HHMHHOOMOO\012HHNHHOONOO\012HHPHHOOPOO\012HHQHHOOQOO\012HHRHHOOROO\012HHSHHOOsSOO\012HHVHHOOVOO\012HHWHHOOWOO\012HHXHHOOXOO\012HHYHHOOYOO\012HHZHHOOZOO",
"Aa Bb Cc Dd Ee Ff Gg Hh Ii Jj k Ll Mm Nn Oo Pp Rrs Tt Uu z\012nnknn ookoo \012nnann ooaoo\012nnbnn ooboo\012nncnn oocoo\012nndnn oodoo\012nnenn ooeoo\012nnfnn oofoo\012nngnn oogoo\012nnhnn oohoo\012nninn ooioo\012nnjnn oojoo\012nnlnn ooloo\012nnmnn oomoo\012nnpnn oopoo\012nnrnn ooroo\012nnsnn oosoo\012nntnn ootoo\012nnunn oouoo\012nnznn oozoo\012HHNHH OONOO"
);
classes = (
{
automatic = 1;

glyphs = (
{
glyphname = A;
lastChange = "2017-06-30 20:44:32 +0000";
layers = (
{
anchors = (
{
name = bottom;
position = "{620, 0}";
},
{
name = ogonek;
position = "{1116, 10}";
},
{
name = top;
position = "{630, 1171}";
}
);
layerId = "840BD324-B0A6-42B0-BD23-CB5E8C19394F";
paths = (
{
closed = 1;
nodes = (
"646 1074 LINE",
"983 86 LINE",
"796 86 LINE SMOOTH",
"763 86 OFFCURVE",
"747 65 OFFCURVE",
"747 44 CURVE SMOOTH",
"747 22 OFFCURVE",
"764 0 OFFCURVE",
"798 0 CURVE SMOOTH",
"1164 0 LINE SMOOTH",
"1197 0 OFFCURVE",
"1214 22 OFFCURVE",
"1214 44 CURVE SMOOTH",
"1214 65 OFFCURVE",
"1198 86 OFFCURVE",
"1166 86 CURVE SMOOTH",
"1085 86 LINE",
"725 1106 LINE SMOOTH",
"713 1140 OFFCURVE",
"690 1171 OFFCURVE",
"644 1171 CURVE SMOOTH",
"341 1171 LINE SMOOTH",
"308 1171 OFFCURVE",
"292 1149 OFFCURVE",
"292 1128 CURVE SMOOTH",
"292 1106 OFFCURVE",
"309 1085 OFFCURVE",
"342 1085 CURVE SMOOTH",
"559 1085 LINE",
"176 86 LINE",
"89 86 LINE SMOOTH",
"56 86 OFFCURVE",
"40 64 OFFCURVE",
"40 43 CURVE SMOOTH",
"40 21 OFFCURVE",
"57 0 OFFCURVE",
"90 0 CURVE SMOOTH",
"438 0 LINE SMOOTH",
"472 0 OFFCURVE",
"489 21 OFFCURVE",
"489 43 CURVE SMOOTH",
"489 64 OFFCURVE",
"472 86 OFFCURVE",
"439 86 CURVE SMOOTH",
"279 86 LINE"
);
},
{
closed = 1;
nodes = (
"865 475 LINE",
"415 475 LINE",
"382 392 LINE",
"895 392 LINE"
);
}
);
width = 1240;
},
{
anchors = (
{
name = bottom;
position = "{620, 0}";
},
{
name = ogonek;
position = "{1116, 10}";
},
{
name = top;
position = "{620, 1171}";
}
);
layerId = "F2E12B84-E402-48AA-89E7-06534AE23493";
paths = (
{
closed = 1;
nodes = (
"626 934 LINE",
"888 166 LINE",
"796 166 LINE SMOOTH",
"753 166 OFFCURVE",
"727 125 OFFCURVE",
"727 84 CURVE SMOOTH",
"727 42 OFFCURVE",
"754 0 OFFCURVE",
"798 0 CURVE SMOOTH",
"1144 0 LINE SMOOTH",
"1187 0 OFFCURVE",
"1214 42 OFFCURVE",
"1214 84 CURVE SMOOTH",
"1214 125 OFFCURVE",
"1188 166 OFFCURVE",
"1146 166 CURVE SMOOTH",
"1095 166 LINE",
"735 1106 LINE SMOOTH",
"722 1140 OFFCURVE",
"700 1171 OFFCURVE",
"654 1171 CURVE SMOOTH",
"331 1171 LINE SMOOTH",
"278 1171 OFFCURVE",
"252 1129 OFFCURVE",
"252 1085 CURVE SMOOTH",
"252 1040 OFFCURVE",
"279 999 OFFCURVE",
"332 999 CURVE SMOOTH",
"475 999 LINE",
"166 166 LINE",
"109 166 LINE SMOOTH",
"66 166 OFFCURVE",
"40 124 OFFCURVE",
"40 83 CURVE SMOOTH",
"40 41 OFFCURVE",
"67 0 OFFCURVE",
"110 0 CURVE SMOOTH",
"468 0 LINE SMOOTH",
"512 0 OFFCURVE",
"539 41 OFFCURVE",
"539 83 CURVE SMOOTH",
"539 124 OFFCURVE",
"512 166 OFFCURVE",
"469 166 CURVE SMOOTH",
"384 166 LINE"
);
},
{
closed = 1;
nodes = (
"865 495 LINE",
"415 495 LINE",
"362 333 LINE",
"915 333 LINE"
);
}
);
width = 1240;
}
);
unicode = 0041;
},
{
glyphname = AE;
lastChange = "2017-06-26 22:00:10 +0000";
layers = (
{
anchors = (
{
name = bottom;
position = "{620, 0}";
},
{
name = top;
position = "{690, 1171}";
}
);
layerId = "840BD324-B0A6-42B0-BD23-CB5E8C19394F";
paths = (
{
closed = 1;
nodes = (
"88 0 LINE SMOOTH",
"55 0 OFFCURVE",
"38 21 OFFCURVE",
"38 43 CURVE SMOOTH",
"38 64 OFFCURVE",
"54 86 OFFCURVE",
"87 86 CURVE SMOOTH",
"138 86 LINE",
"463 1085 LINE",
"301 1085 LINE SMOOTH",
"268 1085 OFFCURVE",
"251 1106 OFFCURVE",
"251 1128 CURVE SMOOTH",
"251 1149 OFFCURVE",
"267 1171 OFFCURVE",
"300 1171 CURVE SMOOTH",
"1050 1171 LINE SMOOTH",
"1083 1171 OFFCURVE",
"1106 1151 OFFCURVE",
"1106 1117 CURVE SMOOTH",
"1106 893 LINE SMOOTH",
"1106 863 OFFCURVE",
"1086 849 OFFCURVE",
"1066 849 CURVE SMOOTH",
"1046 849 OFFCURVE",
"1028 862 OFFCURVE",
"1027 887 CURVE SMOOTH",
"1013 1085 LINE",
"729 1085 LINE",
"729 637 LINE",
"871 637 LINE",
"884 740 LINE SMOOTH",
"887 770 OFFCURVE",
"906 785 OFFCURVE",
"924 785 CURVE SMOOTH",
"943 785 OFFCURVE",
"962 769 OFFCURVE",
"962 732 CURVE SMOOTH",
"962 460 LINE SMOOTH",
"962 425 OFFCURVE",
"943 409 OFFCURVE",
"924 409 CURVE SMOOTH",
"905 409 OFFCURVE",
"886 424 OFFCURVE",
"884 452 CURVE",
"871 560 LINE",
"729 560 LINE",
"729 85 LINE",
"1016 85 LINE",
"1032 296 LINE SMOOTH",
"1033 320 OFFCURVE",
"1052 335 OFFCURVE",
"1073 335 CURVE SMOOTH",
"1094 335 OFFCURVE",
"1115 319 OFFCURVE",
"1115 283 CURVE SMOOTH",
"1115 53 LINE SMOOTH",
"1115 19 OFFCURVE",
"1092 0 OFFCURVE",
"1059 0 CURVE SMOOTH",
"613 0 LINE SMOOTH",
"579 0 OFFCURVE",
"562 22 OFFCURVE",
"562 43 CURVE SMOOTH",
"562 64 OFFCURVE",
"579 85 OFFCURVE",
"612 85 CURVE SMOOTH",
"642 85 LINE",
"642 392 LINE",
"327 392 LINE",
"231 86 LINE",
"398 86 LINE SMOOTH",
"431 86 OFFCURVE",
"448 64 OFFCURVE",
"448 43 CURVE SMOOTH",
"448 21 OFFCURVE",
"431 0 OFFCURVE",
"397 0 CURVE SMOOTH"
);
},
{
closed = 1;
nodes = (
"642 475 LINE",
"642 1085 LINE",
"545 1085 LINE",
"354 475 LINE"
);
}
);
width = 1240;
},
{
layerId = "F2E12B84-E402-48AA-89E7-06534AE23493";
width = 600;
}
);
unicode = 00C6;
},
{
glyphname = B;
lastChange = "2017-06-30 19:02:26 +0000";
layers = (
{
anchors = (
{
name = bottom;
position = "{620, 0}";
},
{
name = top;
position = "{620, 1171}";
}
);
layerId = "840BD324-B0A6-42B0-BD23-CB5E8C19394F";
paths = (
{
closed = 1;
nodes = (
"546 0 LINE SMOOTH",
"905 0 OFFCURVE",
"1108 94 OFFCURVE",
"1108 330 CURVE SMOOTH",
"1108 508 OFFCURVE",
"978 604 OFFCURVE",
"847 638 CURVE",
"936 669 OFFCURVE",
"1011 761 OFFCURVE",
"1011 885 CURVE SMOOTH",
"1011 1086 OFFCURVE",
"841 1171 OFFCURVE",
"546 1171 CURVE SMOOTH",
"180 1171 LINE SMOOTH",
"148 1171 OFFCURVE",
"132 1150 OFFCURVE",
"132 1129 CURVE SMOOTH",
"132 1107 OFFCURVE",
"148 1085 OFFCURVE",
"181 1085 CURVE SMOOTH",
"347 1085 LINE",
"347 86 LINE",
"187 86 LINE SMOOTH",
"154 86 OFFCURVE",
"137 64 OFFCURVE",
"137 43 CURVE SMOOTH",
"137 21 OFFCURVE",
"154 0 OFFCURVE",
"188 0 CURVE SMOOTH"
);
},
{
closed = 1;
nodes = (
"443 588 LINE",
"593 588 LINE SMOOTH",
"845 588 OFFCURVE",
"1012 516 OFFCURVE",
"1012 330 CURVE SMOOTH",
"1012 150 OFFCURVE",
"835 86 OFFCURVE",
"569 86 CURVE SMOOTH",
"443 86 LINE"
);
},
{
closed = 1;
nodes = (
"443 1085 LINE",
"569 1085 LINE SMOOTH",
"787 1085 OFFCURVE",
"925 1031 OFFCURVE",
"925 885 CURVE SMOOTH",
"925 749 OFFCURVE",
"797 672 OFFCURVE",
"593 672 CURVE SMOOTH",
"443 672 LINE"
);
}
);
width = 1240;
},
{
anchors = (
{
name = bottom;
position = "{620, 0}";
},
{
name = top;
position = "{620, 1171}";
}
);
layerId = "F2E12B84-E402-48AA-89E7-06534AE23493";
paths = (
{
closed = 1;
nodes = (
"591 0 LINE SMOOTH",
"930 0 OFFCURVE",
"1133 94 OFFCURVE",
"1133 350 CURVE SMOOTH",
"1133 508 OFFCURVE",
"1003 604 OFFCURVE",
"872 638 CURVE",
"961 669 OFFCURVE",
"1036 761 OFFCURVE",
"1036 885 CURVE SMOOTH",
"1036 1086 OFFCURVE",
"866 1171 OFFCURVE",
"551 1171 CURVE SMOOTH",
"195 1171 LINE SMOOTH",
"133 1171 OFFCURVE",
"107 1130 OFFCURVE",
"107 1079 CURVE SMOOTH",
"107 1037 OFFCURVE",
"133 985 OFFCURVE",
"196 985 CURVE SMOOTH",
"262 985 LINE",
"262 206 LINE",
"192 206 LINE SMOOTH",
"139 206 OFFCURVE",
"112 154 OFFCURVE",
"112 103 CURVE SMOOTH",
"112 61 OFFCURVE",
"139 0 OFFCURVE",
"193 0 CURVE SMOOTH"
);
},
{
closed = 1;
nodes = (
"508 538 LINE",
"578 538 LINE SMOOTH",
"730 538 OFFCURVE",
"877 496 OFFCURVE",
"877 366 CURVE SMOOTH",
"877 250 OFFCURVE",
"720 206 OFFCURVE",
"554 206 CURVE SMOOTH",
"508 206 LINE"
);
},
{
closed = 1;
nodes = (
"508 985 LINE",
"554 985 LINE SMOOTH",
"672 985 OFFCURVE",
"790 959 OFFCURVE",
"790 855 CURVE SMOOTH",
"790 762 OFFCURVE",
"682 712 OFFCURVE",
"578 712 CURVE SMOOTH",
"508 712 LINE"
);
}
);
width = 1240;
}
);
unicode = 0042;
},
{
glyphname = C;
lastChange = "2017-06-30 19:56:34 +0000";
layers = (
{
anchors = (
{
name = bottom;
position = "{620, 0}";
},
{
name = top;
position = "{680, 1171}";
}
);
layerId = "840BD324-B0A6-42B0-BD23-CB5E8C19394F";
paths = (
{
closed = 1;
nodes = (
"946 -17 OFFCURVE",
"1130 191 OFFCURVE",
"1130 343 CURVE SMOOTH",
"1130 377 OFFCURVE",
"1106 393 OFFCURVE",
"1083 393 CURVE SMOOTH",
"1062 393 OFFCURVE",
"1044 380 OFFCURVE",
"1036 345 CURVE SMOOTH",
"1010 239 OFFCURVE",
"893 69 OFFCURVE",
"670 69 CURVE SMOOTH",
"435 69 OFFCURVE",
"228 263 OFFCURVE",
"228 600 CURVE SMOOTH",
"228 890 OFFCURVE",
"396 1101 OFFCURVE",
"668 1101 CURVE SMOOTH",
"850 1101 OFFCURVE",
"996 974 OFFCURVE",
"1026 827 CURVE SMOOTH",
"1032 797 OFFCURVE",
"1050 780 OFFCURVE",
"1074 780 CURVE SMOOTH",
"1097 780 OFFCURVE",
"1122 795 OFFCURVE",
"1120 827 CURVE SMOOTH",
"1100 1120 LINE SMOOTH",
"1098 1154 OFFCURVE",
"1076 1171 OFFCURVE",
"1051 1171 CURVE SMOOTH",
"1027 1171 OFFCURVE",
"997 1154 OFFCURVE",
"1002 1121 CURVE SMOOTH",
"1020 994 LINE",
"981 1071 OFFCURVE",
"863 1187 OFFCURVE",
"669 1187 CURVE SMOOTH",
"361 1187 OFFCURVE",
"132 954 OFFCURVE",
"132 607 CURVE SMOOTH",
"132 225 OFFCURVE",
"361 -17 OFFCURVE",
"669 -17 CURVE SMOOTH"
);
}
);
width = 1240;
},
{
anchors = (
{
name = bottom;
position = "{620, 0}";
},
{
name = top;
position = "{620, 1171}";
}
);
background = {
paths = (
{
closed = 1;
nodes = (
"946 -17 OFFCURVE",
"1130 191 OFFCURVE",
"1130 343 CURVE SMOOTH",
"1130 377 OFFCURVE",
"1106 393 OFFCURVE",
"1083 393 CURVE SMOOTH",
"1062 393 OFFCURVE",
"1044 380 OFFCURVE",
"1036 345 CURVE SMOOTH",
"1010 239 OFFCURVE",
"893 69 OFFCURVE",
"670 69 CURVE SMOOTH",
"435 69 OFFCURVE",
"228 263 OFFCURVE",
"228 600 CURVE SMOOTH",
"228 890 OFFCURVE",
"396 1101 OFFCURVE",
"668 1101 CURVE SMOOTH",
"850 1101 OFFCURVE",
"996 974 OFFCURVE",
"1026 827 CURVE SMOOTH",
"1032 797 OFFCURVE",
"1050 780 OFFCURVE",
"1074 780 CURVE SMOOTH",
"1097 780 OFFCURVE",
"1122 795 OFFCURVE",
"1120 827 CURVE SMOOTH",
"1100 1120 LINE SMOOTH",
"1098 1154 OFFCURVE",
"1076 1171 OFFCURVE",
"1051 1171 CURVE SMOOTH",
"1027 1171 OFFCURVE",
"997 1154 OFFCURVE",
"1002 1121 CURVE SMOOTH",
"1020 994 LINE",
"981 1071 OFFCURVE",
"863 1187 OFFCURVE",
"669 1187 CURVE SMOOTH",
"361 1187 OFFCURVE",
"132 954 OFFCURVE",
"132 607 CURVE SMOOTH",
"132 225 OFFCURVE",
"361 -17 OFFCURVE",
"669 -17 CURVE SMOOTH"
);
}
);
};
layerId = "F2E12B84-E402-48AA-89E7-06534AE23493";
paths = (
{
closed = 1;
nodes = (
"976 -17 OFFCURVE",
"1150 171 OFFCURVE",
"1152 308 CURVE SMOOTH",
"1153 367 OFFCURVE",
"1110 403 OFFCURVE",
"1064 403 CURVE SMOOTH",
"1019 403 OFFCURVE",
"983 359 OFFCURVE",
"952 308 CURVE SMOOTH",
"915 247 OFFCURVE",
"833 159 OFFCURVE",
"696 159 CURVE SMOOTH",
"555 159 OFFCURVE",
"368 313 OFFCURVE",
"368 600 CURVE SMOOTH",
"368 830 OFFCURVE",
"516 1011 OFFCURVE",
"708 1011 CURVE SMOOTH",
"885 1011 OFFCURVE",
"976 915 OFFCURVE",
"992 845 CURVE SMOOTH",
"1001 806 OFFCURVE",
"1036 780 OFFCURVE",
"1070 780 CURVE SMOOTH",
"1103 780 OFFCURVE",
"1149 803 OFFCURVE",
"1145 854 CURVE SMOOTH",
"1125 1100 LINE SMOOTH",
"1121 1144 OFFCURVE",
"1083 1181 OFFCURVE",
"1029 1181 CURVE SMOOTH",
"983 1181 OFFCURVE",
"938 1149 OFFCURVE",
"950 1102 CURVE SMOOTH",
"963 1054 LINE",
"932 1090 OFFCURVE",
"865 1187 OFFCURVE",
"669 1187 CURVE SMOOTH",
"351 1187 OFFCURVE",
"122 954 OFFCURVE",
"122 607 CURVE SMOOTH",
"122 225 OFFCURVE",
"351 -17 OFFCURVE",
"669 -17 CURVE SMOOTH"
);
}
);
width = 1240;
}
);
unicode = 0043;
},
{
glyphname = D;
lastChange = "2017-06-30 18:25:48 +0000";
layers = (
{
anchors = (
{
name = bottom;
position = "{620, 0}";
},
{
name = center;
position = "{620, 586}";
},
{
name = top;
position = "{580, 1151}";
}
);
layerId = "840BD324-B0A6-42B0-BD23-CB5E8C19394F";
paths = (
{
closed = 1;
nodes = (
"517 0 LINE SMOOTH",
"918 0 OFFCURVE",
"1135 188 OFFCURVE",
"1135 591 CURVE SMOOTH",
"1135 973 OFFCURVE",
"902 1171 OFFCURVE",
"519 1171 CURVE SMOOTH",
"161 1171 LINE SMOOTH",
"128 1171 OFFCURVE",
"111 1149 OFFCURVE",
"111 1127 CURVE SMOOTH",
"111 1106 OFFCURVE",
"127 1085 OFFCURVE",
"159 1085 CURVE SMOOTH",
"318 1085 LINE",
"318 86 LINE",
"155 86 LINE SMOOTH",
"122 86 OFFCURVE",
"105 64 OFFCURVE",
"105 43 CURVE SMOOTH",
"105 21 OFFCURVE",
"122 0 OFFCURVE",
"156 0 CURVE SMOOTH"
);
},
{
closed = 1;
nodes = (
"414 1085 LINE",
"538 1085 LINE SMOOTH",
"871 1085 OFFCURVE",
"1039 887 OFFCURVE",
"1039 591 CURVE SMOOTH",
"1039 276 OFFCURVE",
"895 86 OFFCURVE",
"524 86 CURVE SMOOTH",
"414 86 LINE"
);
}
);
width = 1240;
},
{
anchors = (
{
name = bottom;
position = "{620, 0}";
},
{
name = center;
position = "{620, 586}";
},
{
name = top;
position = "{620, 1171}";
}
);
layerId = "F2E12B84-E402-48AA-89E7-06534AE23493";
paths = (
{
closed = 1;
nodes = (
"517 0 LINE SMOOTH",
"918 0 OFFCURVE",
"1145 188 OFFCURVE",
"1145 591 CURVE SMOOTH",
"1145 973 OFFCURVE",
"902 1171 OFFCURVE",
"519 1171 CURVE SMOOTH",
"176 1171 LINE SMOOTH",
"128 1171 OFFCURVE",
"91 1132 OFFCURVE",
"91 1073 CURVE SMOOTH",
"91 1015 OFFCURVE",
"127 975 OFFCURVE",
"174 975 CURVE SMOOTH",
"248 975 LINE",
"248 196 LINE",
"170 196 LINE SMOOTH",
"122 196 OFFCURVE",
"85 154 OFFCURVE",
"85 98 CURVE SMOOTH",
"85 41 OFFCURVE",
"122 0 OFFCURVE",
"171 0 CURVE SMOOTH"
);
},
{
closed = 1;
nodes = (
"489 975 LINE",
"498 975 LINE SMOOTH",
"761 975 OFFCURVE",
"909 857 OFFCURVE",
"909 591 CURVE SMOOTH",
"909 336 OFFCURVE",
"785 196 OFFCURVE",
"498 196 CURVE SMOOTH",
"489 196 LINE"
);
}
);
width = 1240;
}
);
unicode = 0044;
},
{
glyphname = DZ;
lastChange = "2017-06-26 22:00:10 +0000";
layers = (
{
components = (
{
name = _halfd;
transform = "{1, 0, 0, 1, 7, 0}";
}
);
layerId = "840BD324-B0A6-42B0-BD23-CB5E8C19394F";
paths = (
{
closed = 1;
nodes = (
"1108 0 CURVE SMOOTH",
"746 0 LINE SMOOTH",
"722 0 OFFCURVE",
"711 14 OFFCURVE",
"711 39 CURVE SMOOTH",
"711 54 OFFCURVE",
"714 73 OFFCURVE",
"722 95 CURVE SMOOTH",
"1065 1085 LINE",
"835 1085 LINE",
"825 857 LINE SMOOTH",
"824 830 OFFCURVE",
"802 817 OFFCURVE",
"780 817 CURVE SMOOTH",
"755 817 OFFCURVE",
"738 834 OFFCURVE",
"739 866 CURVE SMOOTH",
"749 1116 LINE",
"750 1144 OFFCURVE",
"756 1171 OFFCURVE",
"807 1171 CURVE SMOOTH",
"1117 1171 LINE SMOOTH",
"1152 1171 OFFCURVE",
"1162 1142 OFFCURVE",
"1162 1116 CURVE SMOOTH",
"1162 1102 OFFCURVE",
"1157 1085 OFFCURVE",
"1156 1081 CURVE SMOOTH",
"818 86 LINE",
"1067 86 LINE",
"1077 314 LINE",
"1079 346 OFFCURVE",
"1100 363 OFFCURVE",
"1123 363 CURVE SMOOTH",
"1144 363 OFFCURVE",
"1170 350 OFFCURVE",
"1169 315 CURVE SMOOTH",
"1159 53 LINE",
"1160 19 OFFCURVE",
"1137 0 OFFCURVE"
);
}
);
width = 1240;
},
{
layerId = "F2E12B84-E402-48AA-89E7-06534AE23493";
width = 600;
}
);
unicode = 01F1;
},
{
glyphname = DZcaron;
lastChange = "2017-06-26 22:00:10 +0000";
layers = (
{
components = (
{
name = _halfd;
}
);
layerId = "840BD324-B0A6-42B0-BD23-CB5E8C19394F";
paths = (
{
closed = 1;
nodes = (
"985 1320 LINE SMOOTH",
"981 1312 OFFCURVE",
"974 1299 OFFCURVE",
"953 1299 CURVE SMOOTH",
"932 1299 OFFCURVE",
"927 1312 OFFCURVE",
"922 1320 CURVE SMOOTH",
"758 1583 LINE SMOOTH",
"754 1590 OFFCURVE",
"750 1596 OFFCURVE",
"752 1606 CURVE SMOOTH",
"755 1623 OFFCURVE",
"770 1634 OFFCURVE",
"783 1634 CURVE SMOOTH",
"796 1634 OFFCURVE",
"805 1629 OFFCURVE",
"811 1621 CURVE SMOOTH",
"953 1432 LINE",
"1066 1621 LINE SMOOTH",
"1071 1629 OFFCURVE",
"1081 1637 OFFCURVE",
"1094 1637 CURVE SMOOTH",
"1107 1637 OFFCURVE",
"1125 1627 OFFCURVE",
"1125 1612 CURVE SMOOTH",
"1125 1601 OFFCURVE",
"1123 1592 OFFCURVE",
"1119 1583 CURVE SMOOTH"
);
},
{
closed = 1;
nodes = (
"1108 0 CURVE SMOOTH",
"746 0 LINE SMOOTH",
"722 0 OFFCURVE",
"711 14 OFFCURVE",
"711 39 CURVE SMOOTH",
"711 54 OFFCURVE",
"714 73 OFFCURVE",
"722 95 CURVE SMOOTH",
"1065 1085 LINE",
"835 1085 LINE",
"825 857 LINE SMOOTH",
"824 830 OFFCURVE",
"802 817 OFFCURVE",
"780 817 CURVE SMOOTH",
"755 817 OFFCURVE",
"738 834 OFFCURVE",
"739 866 CURVE SMOOTH",
"749 1116 LINE",
"750 1144 OFFCURVE",
"756 1171 OFFCURVE",
"807 1171 CURVE SMOOTH",
"1117 1171 LINE SMOOTH",
"1152 1171 OFFCURVE",
"1162 1142 OFFCURVE",
"1162 1116 CURVE SMOOTH",
"1162 1102 OFFCURVE",
"1157 1085 OFFCURVE",
"1156 1081 CURVE SMOOTH",
"818 86 LINE",
"1067 86 LINE",
"1077 314 LINE",
"1079 346 OFFCURVE",
"1100 363 OFFCURVE",
"1123 363 CURVE SMOOTH",
"1144 363 OFFCURVE",
"1170 350 OFFCURVE",
"1169 315 CURVE SMOOTH",
"1159 53 LINE",
"1160 19 OFFCURVE",
"1137 0 OFFCURVE"
);
}
);
width = 1240;
},
{
layerId = "F2E12B84-E402-48AA-89E7-06534AE23493";
width = 600;
}
);
unicode = 01C4;
},
{
glyphname = Eth;
lastChange = "2017-06-26 22:00:10 +0000";
layers = (
{
components = (
{
name = D;
}
);
layerId = "840BD324-B0A6-42B0-BD23-CB5E8C19394F";
paths = (
{
closed = 1;
nodes = (
"172 572 LINE SMOOTH",
"140 572 OFFCURVE",
"126 592 OFFCURVE",
"126 611 CURVE SMOOTH",
"126 630 OFFCURVE",
"138 648 OFFCURVE",
"168 648 CURVE SMOOTH",
"314 648 LINE",
"420 648 LINE",
"607 648 LINE SMOOTH",
"635 648 OFFCURVE",
"646 630 OFFCURVE",
"646 611 CURVE SMOOTH",
"646 592 OFFCURVE",
"633 572 OFFCURVE",
"605 572 CURVE SMOOTH",
"420 572 LINE",
"314 572 LINE"
);
}
);
width = 1240;
},
{
layerId = "F2E12B84-E402-48AA-89E7-06534AE23493";
width = 600;
}
);
unicode = 00D0;
},
{
glyphname = Dcroat;
lastChange = "2017-06-26 22:00:10 +0000";
layers = (
{
components = (
{
name = D;
}
);
layerId = "840BD324-B0A6-42B0-BD23-CB5E8C19394F";
paths = (
{
closed = 1;
nodes = (
"172 572 LINE SMOOTH",
"140 572 OFFCURVE",
"126 592 OFFCURVE",
"126 611 CURVE SMOOTH",
"126 630 OFFCURVE",
"138 648 OFFCURVE",
"168 648 CURVE SMOOTH",
"314 648 LINE",
"420 648 LINE",
"607 648 LINE SMOOTH",
"635 648 OFFCURVE",
"646 630 OFFCURVE",
"646 611 CURVE SMOOTH",
"646 592 OFFCURVE",
"633 572 OFFCURVE",
"605 572 CURVE SMOOTH",
"420 572 LINE",
"314 572 LINE"
);
}
);
width = 1240;
},
{
layerId = "F2E12B84-E402-48AA-89E7-06534AE23493";
width = 600;
}
);
unicode = 0110;
},
{
glyphname = E;
lastChange = "2017-06-30 18:33:37 +0000";
layers = (
{
anchors = (
{
name = bottom;
position = "{620, 0}";
},
{
name = ogonek;
position = "{1116, 10}";
},
{
name = top;
position = "{650, 1171}";
},
{
name = topleft;
position = "{20, 1171}";
}
);
layerId = "840BD324-B0A6-42B0-BD23-CB5E8C19394F";
paths = (
{
closed = 1;
nodes = (
"1051 0 LINE SMOOTH",
"1084 0 OFFCURVE",
"1104 19 OFFCURVE",
"1107 53 CURVE SMOOTH",
"1127 323 LINE SMOOTH",
"1130 359 OFFCURVE",
"1106 375 OFFCURVE",
"1085 375 CURVE SMOOTH",
"1064 375 OFFCURVE",
"1044 360 OFFCURVE",
"1041 336 CURVE SMOOTH",
"1008 108 LINE SMOOTH",
"1007 99 OFFCURVE",
"1000 85 OFFCURVE",
"986 85 CURVE",
"410 85 LINE",
"410 577 LINE",
"736 577 LINE",
"749 429 LINE SMOOTH",
"751 401 OFFCURVE",
"770 386 OFFCURVE",
"789 386 CURVE SMOOTH",
"808 386 OFFCURVE",
"827 402 OFFCURVE",
"827 437 CURVE SMOOTH",
"827 779 LINE SMOOTH",
"827 816 OFFCURVE",
"808 832 OFFCURVE",
"789 832 CURVE SMOOTH",
"771 832 OFFCURVE",
"752 817 OFFCURVE",
"749 787 CURVE SMOOTH",
"736 654 LINE",
"410 654 LINE",
"410 1085 LINE",
"981 1085 LINE",
"992 1085 OFFCURVE",
"1001 1073 OFFCURVE",
"1003 1062 CURVE SMOOTH",
"1033 841 LINE SMOOTH",
"1036 816 OFFCURVE",
"1055 803 OFFCURVE",
"1075 803 CURVE SMOOTH",
"1095 803 OFFCURVE",
"1117 817 OFFCURVE",
"1115 847 CURVE SMOOTH",
"1095 1117 LINE SMOOTH",
"1092 1151 OFFCURVE",
"1072 1171 OFFCURVE",
"1039 1171 CURVE SMOOTH",
"181 1171 LINE SMOOTH",
"148 1171 OFFCURVE",
"131 1149 OFFCURVE",
"131 1127 CURVE SMOOTH",
"131 1106 OFFCURVE",
"147 1085 OFFCURVE",
"179 1085 CURVE SMOOTH",
"314 1085 LINE",
"314 85 LINE",
"144 85 LINE SMOOTH",
"111 85 OFFCURVE",
"94 64 OFFCURVE",
"94 43 CURVE SMOOTH",
"94 22 OFFCURVE",
"111 0 OFFCURVE",
"145 0 CURVE SMOOTH"
);
}
);
width = 1240;
},
{
anchors = (
{
name = bottom;
position = "{620, 0}";
},
{
name = ogonek;
position = "{1116, 10}";
},
{
name = top;
position = "{620, 1171}";
},
{
name = topleft;
position = "{20, 1171}";
}
);
layerId = "F2E12B84-E402-48AA-89E7-06534AE23493";
paths = (
{
closed = 1;
nodes = (
"1092 0 LINE SMOOTH",
"1125 0 OFFCURVE",
"1145 19 OFFCURVE",
"1148 53 CURVE SMOOTH",
"1168 317 LINE SMOOTH",
"1171 353 OFFCURVE",
"1138 395 OFFCURVE",
"1090 395 CURVE SMOOTH",
"1045 395 OFFCURVE",
"1006 370 OFFCURVE",
"998 330 CURVE SMOOTH",
"970 198 LINE SMOOTH",
"968 189 OFFCURVE",
"961 175 OFFCURVE",
"947 175 CURVE",
"491 175 LINE",
"491 527 LINE",
"727 527 LINE",
"750 429 LINE SMOOTH",
"757 401 OFFCURVE",
"781 386 OFFCURVE",
"810 386 CURVE SMOOTH",
"839 386 OFFCURVE",
"868 402 OFFCURVE",
"868 437 CURVE SMOOTH",
"868 779 LINE SMOOTH",
"868 816 OFFCURVE",
"839 832 OFFCURVE",
"810 832 CURVE SMOOTH",
"782 832 OFFCURVE",
"758 816 OFFCURVE",
"750 787 CURVE SMOOTH",
"727 704 LINE",
"491 704 LINE",
"491 995 LINE",
"942 995 LINE",
"953 995 OFFCURVE",
"963 983 OFFCURVE",
"965 972 CURVE SMOOTH",
"990 846 LINE SMOOTH",
"998 808 OFFCURVE",
"1036 783 OFFCURVE",
"1081 783 CURVE SMOOTH",
"1126 783 OFFCURVE",
"1158 812 OFFCURVE",
"1155 852 CURVE SMOOTH",
"1136 1117 LINE SMOOTH",
"1134 1151 OFFCURVE",
"1113 1171 OFFCURVE",
"1080 1171 CURVE SMOOTH",
"172 1171 LINE SMOOTH",
"129 1171 OFFCURVE",
"92 1144 OFFCURVE",
"92 1085 CURVE SMOOTH",
"92 1026 OFFCURVE",
"128 995 OFFCURVE",
"170 995 CURVE SMOOTH",
"245 995 LINE",
"245 175 LINE",
"135 175 LINE SMOOTH",
"92 175 OFFCURVE",
"55 144 OFFCURVE",
"55 88 CURVE SMOOTH",
"55 32 OFFCURVE",
"92 0 OFFCURVE",
"136 0 CURVE SMOOTH"
);
}
);
width = 1240;
}
);
unicode = 0045;
},
{
glyphname = F;
lastChange = "2017-06-30 18:54:14 +0000";
layers = (
{
anchors = (
{
name = bottom;
position = "{620, 0}";
},
{
name = top;
position = "{620, 1171}";
}
);
layerId = "840BD324-B0A6-42B0-BD23-CB5E8C19394F";
paths = (
{
closed = 1;
nodes = (
"791 0 LINE SMOOTH",
"820 0 OFFCURVE",
"836 21 OFFCURVE",
"836 43 CURVE SMOOTH",
"836 64 OFFCURVE",
"821 85 OFFCURVE",
"790 85 CURVE SMOOTH",
"430 85 LINE",
"430 577 LINE",
"777 577 LINE",
"790 429 LINE SMOOTH",
"792 401 OFFCURVE",
"811 386 OFFCURVE",
"830 386 CURVE SMOOTH",
"849 386 OFFCURVE",
"868 402 OFFCURVE",
"868 437 CURVE SMOOTH",
"868 779 LINE SMOOTH",
"868 816 OFFCURVE",
"849 832 OFFCURVE",
"830 832 CURVE SMOOTH",
"812 832 OFFCURVE",
"793 817 OFFCURVE",
"790 787 CURVE SMOOTH",
"777 654 LINE",
"430 654 LINE",
"430 1085 LINE",
"1024 1085 LINE SMOOTH",
"1035 1085 OFFCURVE",
"1044 1073 OFFCURVE",
"1046 1062 CURVE",
"1076 841 LINE SMOOTH",
"1079 816 OFFCURVE",
"1098 803 OFFCURVE",
"1118 803 CURVE SMOOTH",
"1138 803 OFFCURVE",
"1160 817 OFFCURVE",
"1158 847 CURVE SMOOTH",
"1138 1117 LINE SMOOTH",
"1135 1151 OFFCURVE",
"1115 1171 OFFCURVE",
"1082 1171 CURVE SMOOTH",
"201 1171 LINE SMOOTH",
"168 1171 OFFCURVE",
"151 1149 OFFCURVE",
"151 1127 CURVE SMOOTH",
"151 1106 OFFCURVE",
"167 1085 OFFCURVE",
"199 1085 CURVE SMOOTH",
"334 1085 LINE",
"334 85 LINE",
"164 85 LINE SMOOTH",
"131 85 OFFCURVE",
"114 64 OFFCURVE",
"114 43 CURVE SMOOTH",
"114 22 OFFCURVE",
"131 0 OFFCURVE",
"165 0 CURVE SMOOTH"
);
}
);
width = 1240;
},
{
anchors = (
{
name = bottom;
position = "{620, 0}";
},
{
name = top;
position = "{620, 1171}";
}
);
layerId = "F2E12B84-E402-48AA-89E7-06534AE23493";
paths = (
{
closed = 1;
nodes = (
"778 0 LINE SMOOTH",
"835 0 OFFCURVE",
"858 35 OFFCURVE",
"858 85 CURVE SMOOTH",
"858 138 OFFCURVE",
"834 175 OFFCURVE",
"778 175 CURVE SMOOTH",
"511 175 LINE",
"511 527 LINE",
"747 527 LINE",
"770 429 LINE SMOOTH",
"777 401 OFFCURVE",
"801 386 OFFCURVE",
"830 386 CURVE SMOOTH",
"859 386 OFFCURVE",
"888 402 OFFCURVE",
"888 437 CURVE SMOOTH",
"888 779 LINE SMOOTH",
"888 816 OFFCURVE",
"859 832 OFFCURVE",
"830 832 CURVE SMOOTH",
"802 832 OFFCURVE",
"778 816 OFFCURVE",
"770 787 CURVE SMOOTH",
"747 704 LINE",
"511 704 LINE",
"511 995 LINE",
"962 995 LINE",
"973 995 OFFCURVE",
"983 983 OFFCURVE",
"985 972 CURVE SMOOTH",
"1010 846 LINE SMOOTH",
"1018 808 OFFCURVE",
"1056 783 OFFCURVE",
"1101 783 CURVE SMOOTH",
"1146 783 OFFCURVE",
"1178 812 OFFCURVE",
"1175 852 CURVE SMOOTH",
"1156 1117 LINE SMOOTH",
"1154 1151 OFFCURVE",
"1133 1171 OFFCURVE",
"1100 1171 CURVE SMOOTH",
"192 1171 LINE SMOOTH",
"149 1171 OFFCURVE",
"112 1144 OFFCURVE",
"112 1085 CURVE SMOOTH",
"112 1026 OFFCURVE",
"148 995 OFFCURVE",
"190 995 CURVE SMOOTH",
"265 995 LINE",
"265 175 LINE",
"155 175 LINE SMOOTH",
"112 175 OFFCURVE",
"75 144 OFFCURVE",
"75 88 CURVE SMOOTH",
"75 32 OFFCURVE",
"112 0 OFFCURVE",
"156 0 CURVE SMOOTH"
);
}
);
width = 1240;
}
);
unicode = 0046;
},
{
glyphname = G;
lastChange = "2017-06-30 20:45:29 +0000";
layers = (
{
anchors = (
{
name = bottom;
position = "{620, 0}";
},
{
name = top;
position = "{644, 1171}";
}
);
layerId = "840BD324-B0A6-42B0-BD23-CB5E8C19394F";
paths = (
{
closed = 1;
nodes = (
"844 -17 OFFCURVE",
"970 159 OFFCURVE",
"973 192 CURVE",
"973 367 LINE",
"972 272 OFFCURVE",
"835 69 OFFCURVE",
"607 69 CURVE SMOOTH",
"382 69 OFFCURVE",
"196 263 OFFCURVE",
"196 600 CURVE SMOOTH",
"196 890 OFFCURVE",
"343 1101 OFFCURVE",
"618 1101 CURVE SMOOTH",
"815 1101 OFFCURVE",
"937 957 OFFCURVE",
"972 837 CURVE SMOOTH",
"981 807 OFFCURVE",
"996 790 OFFCURVE",
"1020 790 CURVE SMOOTH",
"1043 790 OFFCURVE",
"1065 805 OFFCURVE",
"1063 837 CURVE SMOOTH",
"1043 1120 LINE SMOOTH",
"1041 1154 OFFCURVE",
"1022 1171 OFFCURVE",
"998 1171 CURVE SMOOTH",
"973 1171 OFFCURVE",
"948 1154 OFFCURVE",
"952 1121 CURVE SMOOTH",
"970 982 LINE",
"923 1080 OFFCURVE",
"804 1187 OFFCURVE",
"615 1187 CURVE SMOOTH",
"307 1187 OFFCURVE",
"100 954 OFFCURVE",
"100 607 CURVE SMOOTH",
"100 225 OFFCURVE",
"308 -17 OFFCURVE",
"606 -17 CURVE SMOOTH"
);
},
{
closed = 1;
nodes = (
"1043 -8 OFFCURVE",
"1066 11 OFFCURVE",
"1066 49 CURVE SMOOTH",
"1066 470 LINE",
"1129 470 LINE SMOOTH",
"1163 470 OFFCURVE",
"1180 492 OFFCURVE",
"1180 514 CURVE SMOOTH",
"1180 535 OFFCURVE",
"1164 556 OFFCURVE",
"1131 556 CURVE SMOOTH",
"787 556 LINE SMOOTH",
"754 556 OFFCURVE",
"738 535 OFFCURVE",
"738 514 CURVE SMOOTH",
"738 492 OFFCURVE",
"755 470 OFFCURVE",
"788 470 CURVE SMOOTH",
"972 470 LINE",
"972 280 LINE",
"972 255 LINE",
"972 51 LINE SMOOTH",
"972 12 OFFCURVE",
"997 -8 OFFCURVE",
"1020 -8 CURVE SMOOTH"
);
}
);
width = 1240;
},
{
anchors = (
{
name = bottom;
position = "{620, 0}";
},
{
name = top;
position = "{620, 1171}";
}
);
layerId = "F2E12B84-E402-48AA-89E7-06534AE23493";
paths = (
{
closed = 1;
nodes = (
"834 -17 OFFCURVE",
"905 109 OFFCURVE",
"905 126 CURVE",
"883 325 LINE",
"883 255 OFFCURVE",
"795 159 OFFCURVE",
"637 159 CURVE SMOOTH",
"442 159 OFFCURVE",
"346 353 OFFCURVE",
"346 600 CURVE SMOOTH",
"346 800 OFFCURVE",
"463 1011 OFFCURVE",
"678 1011 CURVE SMOOTH",
"855 1011 OFFCURVE",
"946 915 OFFCURVE",
"962 845 CURVE SMOOTH",
"971 806 OFFCURVE",
"1006 780 OFFCURVE",
"1040 780 CURVE SMOOTH",
"1073 780 OFFCURVE",
"1119 803 OFFCURVE",
"1115 854 CURVE SMOOTH",
"1095 1100 LINE SMOOTH",
"1091 1144 OFFCURVE",
"1053 1181 OFFCURVE",
"999 1181 CURVE SMOOTH",
"953 1181 OFFCURVE",
"908 1149 OFFCURVE",
"920 1102 CURVE SMOOTH",
"933 1054 LINE",
"902 1090 OFFCURVE",
"835 1187 OFFCURVE",
"639 1187 CURVE SMOOTH",
"307 1187 OFFCURVE",
"100 954 OFFCURVE",
"100 607 CURVE SMOOTH",
"100 225 OFFCURVE",
"308 -17 OFFCURVE",
"596 -17 CURVE SMOOTH"
);
},
{
closed = 1;
nodes = (
"1053 -18 OFFCURVE",
"1096 11 OFFCURVE",
"1096 69 CURVE SMOOTH",
"1096 430 LINE",
"1129 430 LINE SMOOTH",
"1173 430 OFFCURVE",
"1190 472 OFFCURVE",
"1190 504 CURVE SMOOTH",
"1190 535 OFFCURVE",
"1174 576 OFFCURVE",
"1131 576 CURVE SMOOTH",
"747 576 LINE SMOOTH",
"702 576 OFFCURVE",
"678 535 OFFCURVE",
"678 504 CURVE SMOOTH",
"678 472 OFFCURVE",
"703 430 OFFCURVE",
"748 430 CURVE SMOOTH",
"882 430 LINE",
"882 233 LINE",
"902 144 LINE",
"902 71 LINE SMOOTH",
"902 12 OFFCURVE",
"957 -18 OFFCURVE",
"1000 -18 CURVE SMOOTH"
);
}
);
width = 1240;
}
);
unicode = 0047;
},
{
glyphname = H;
lastChange = "2017-06-29 15:02:36 +0000";
layers = (
{
anchors = (
{
name = bottom;
position = "{620, 0}";
},
{
name = center;
position = "{620, 586}";
},
{
name = top;
position = "{630, 1171}";
},
{
name = topleft;
position = "{20, 1171}";
}
);
layerId = "840BD324-B0A6-42B0-BD23-CB5E8C19394F";
paths = (
{
closed = 1;
nodes = (
"459 0 LINE SMOOTH",
"492 0 OFFCURVE",
"509 23 OFFCURVE",
"509 46 CURVE SMOOTH",
"509 66 OFFCURVE",
"493 86 OFFCURVE",
"461 86 CURVE SMOOTH",
"358 86 LINE",
"358 558 LINE",
"904 558 LINE",
"904 86 LINE",
"801 86 LINE SMOOTH",
"769 86 OFFCURVE",
"753 65 OFFCURVE",
"753 44 CURVE SMOOTH",
"753 22 OFFCURVE",
"770 0 OFFCURVE",
"803 0 CURVE SMOOTH",
"1097 0 LINE SMOOTH",
"1130 0 OFFCURVE",
"1147 22 OFFCURVE",
"1147 43 CURVE SMOOTH",
"1147 65 OFFCURVE",
"1130 86 OFFCURVE",
"1097 86 CURVE SMOOTH",
"997 86 LINE",
"997 1085 LINE",
"1097 1085 LINE SMOOTH",
"1130 1085 OFFCURVE",
"1147 1107 OFFCURVE",
"1147 1130 CURVE SMOOTH",
"1147 1150 OFFCURVE",
"1130 1171 OFFCURVE",
"1097 1171 CURVE SMOOTH",
"803 1171 LINE SMOOTH",
"770 1171 OFFCURVE",
"753 1149 OFFCURVE",
"753 1127 CURVE SMOOTH",
"753 1106 OFFCURVE",
"768 1085 OFFCURVE",
"801 1085 CURVE SMOOTH",
"904 1085 LINE",
"904 638 LINE",
"358 638 LINE",
"358 1085 LINE",
"461 1085 LINE SMOOTH",
"494 1085 OFFCURVE",
"509 1106 OFFCURVE",
"509 1127 CURVE SMOOTH",
"509 1149 OFFCURVE",
"492 1171 OFFCURVE",
"459 1171 CURVE SMOOTH",
"157 1171 LINE SMOOTH",
"124 1171 OFFCURVE",
"107 1149 OFFCURVE",
"107 1128 CURVE SMOOTH",
"107 1106 OFFCURVE",
"124 1085 OFFCURVE",
"157 1085 CURVE SMOOTH",
"265 1085 LINE",
"265 86 LINE",
"141 86 LINE SMOOTH",
"109 86 OFFCURVE",
"93 65 OFFCURVE",
"93 44 CURVE SMOOTH",
"93 22 OFFCURVE",
"110 0 OFFCURVE",
"143 0 CURVE SMOOTH"
);
}
);
width = 1240;
},
{
anchors = (
{
name = bottom;
position = "{620, 0}";
},
{
name = center;
position = "{620, 586}";
},
{
name = top;
position = "{620, 1171}";
},
{
name = topleft;
position = "{20, 1171}";
}
);
layerId = "F2E12B84-E402-48AA-89E7-06534AE23493";
paths = (
{
closed = 1;
nodes = (
"476 0 LINE SMOOTH",
"524 0 OFFCURVE",
"561 35 OFFCURVE",
"561 86 CURVE SMOOTH",
"561 139 OFFCURVE",
"526 172 OFFCURVE",
"478 172 CURVE SMOOTH",
"433 172 LINE",
"431 508 LINE",
"807 508 LINE",
"809 172 LINE",
"764 172 LINE SMOOTH",
"715 172 OFFCURVE",
"678 139 OFFCURVE",
"678 86 CURVE SMOOTH",
"678 35 OFFCURVE",
"715 0 OFFCURVE",
"764 0 CURVE SMOOTH",
"1088 0 LINE SMOOTH",
"1136 0 OFFCURVE",
"1173 35 OFFCURVE",
"1173 86 CURVE SMOOTH",
"1173 138 OFFCURVE",
"1136 172 OFFCURVE",
"1088 172 CURVE SMOOTH",
"1052 172 LINE",
"1050 999 LINE",
"1088 999 LINE SMOOTH",
"1136 999 OFFCURVE",
"1173 1034 OFFCURVE",
"1173 1087 CURVE SMOOTH",
"1173 1137 OFFCURVE",
"1136 1171 OFFCURVE",
"1088 1171 CURVE SMOOTH",
"763 1171 LINE SMOOTH",
"715 1171 OFFCURVE",
"678 1141 OFFCURVE",
"678 1084 CURVE SMOOTH",
"678 1027 OFFCURVE",
"713 999 OFFCURVE",
"761 999 CURVE SMOOTH",
"807 999 LINE",
"807 698 LINE",
"431 698 LINE",
"431 999 LINE",
"476 999 LINE SMOOTH",
"525 999 OFFCURVE",
"562 1027 OFFCURVE",
"562 1084 CURVE SMOOTH",
"562 1141 OFFCURVE",
"525 1171 OFFCURVE",
"476 1171 CURVE SMOOTH",
"152 1171 LINE SMOOTH",
"104 1171 OFFCURVE",
"67 1136 OFFCURVE",
"67 1085 CURVE SMOOTH",
"67 1033 OFFCURVE",
"104 999 OFFCURVE",
"152 999 CURVE SMOOTH",
"188 999 LINE",
"190 172 LINE",
"152 172 LINE SMOOTH",
"104 172 OFFCURVE",
"67 139 OFFCURVE",
"67 86 CURVE SMOOTH",
"67 36 OFFCURVE",
"104 0 OFFCURVE",
"152 0 CURVE SMOOTH"
);
}
);
width = 1240;
}
);
unicode = 0048;
},
{
glyphname = Hbar;
lastChange = "2017-06-26 22:00:10 +0000";
layers = (
{
components = (
{
name = H;
}
);
layerId = "840BD324-B0A6-42B0-BD23-CB5E8C19394F";
paths = (
{
closed = 1;
nodes = (
"153 855 LINE SMOOTH",
"116 855 OFFCURVE",
"107 875 OFFCURVE",
"107 894 CURVE SMOOTH",
"107 913 OFFCURVE",
"114 931 OFFCURVE",
"149 931 CURVE SMOOTH",
"1108 931 LINE SMOOTH",
"1141 931 OFFCURVE",
"1147 913 OFFCURVE",
"1147 894 CURVE SMOOTH",
"1147 875 OFFCURVE",
"1139 855 OFFCURVE",
"1106 855 CURVE SMOOTH"
);
}
);
width = 1240;
},
{
layerId = "F2E12B84-E402-48AA-89E7-06534AE23493";
width = 600;
}
);
unicode = 0126;
},
{
glyphname = I;
lastChange = "2017-06-30 19:05:59 +0000";
layers = (
{
anchors = (
{
name = bottom;
position = "{620, 0}";
},
{
name = ogonek;
position = "{1116, 10}";
},
{
name = top;
position = "{670, 1171}";
},
{
name = topleft;
position = "{20, 1171}";
}
);
layerId = "840BD324-B0A6-42B0-BD23-CB5E8C19394F";
paths = (
{
closed = 1;
nodes = (
"995 0 LINE SMOOTH",
"1028 0 OFFCURVE",
"1045 21 OFFCURVE",
"1045 43 CURVE SMOOTH",
"1045 64 OFFCURVE",
"1029 86 OFFCURVE",
"996 86 CURVE SMOOTH",
"710 86 LINE",
"710 1085 LINE",
"996 1085 LINE SMOOTH",
"1029 1085 OFFCURVE",
"1045 1106 OFFCURVE",
"1045 1127 CURVE SMOOTH",
"1045 1149 OFFCURVE",
"1028 1171 OFFCURVE",
"995 1171 CURVE SMOOTH",
"310 1171 LINE SMOOTH",
"277 1171 OFFCURVE",
"259 1149 OFFCURVE",
"259 1127 CURVE SMOOTH",
"259 1106 OFFCURVE",
"276 1085 OFFCURVE",
"309 1085 CURVE SMOOTH",
"614 1085 LINE",
"614 86 LINE",
"309 86 LINE SMOOTH",
"276 86 OFFCURVE",
"259 64 OFFCURVE",
"259 43 CURVE SMOOTH",
"259 21 OFFCURVE",
"277 0 OFFCURVE",
"310 0 CURVE SMOOTH"
);
}
);
width = 1240;
},
{
anchors = (
{
name = bottom;
position = "{620, 0}";
},
{
name = ogonek;
position = "{1116, 10}";
},
{
name = top;
position = "{620, 1171}";
},
{
name = topleft;
position = "{20, 1171}";
}
);
layerId = "F2E12B84-E402-48AA-89E7-06534AE23493";
paths = (
{
closed = 1;
nodes = (
"985 0 LINE SMOOTH",
"1038 0 OFFCURVE",
"1065 46 OFFCURVE",
"1065 88 CURVE SMOOTH",
"1065 129 OFFCURVE",
"1039 176 OFFCURVE",
"986 176 CURVE SMOOTH",
"785 176 LINE",
"785 995 LINE",
"986 995 LINE SMOOTH",
"1039 995 OFFCURVE",
"1065 1041 OFFCURVE",
"1065 1082 CURVE SMOOTH",
"1065 1124 OFFCURVE",
"1038 1171 OFFCURVE",
"985 1171 CURVE SMOOTH",
"320 1171 LINE SMOOTH",
"267 1171 OFFCURVE",
"239 1124 OFFCURVE",
"239 1082 CURVE SMOOTH",
"239 1041 OFFCURVE",
"266 995 OFFCURVE",
"319 995 CURVE SMOOTH",
"539 995 LINE",
"539 176 LINE",
"319 176 LINE SMOOTH",
"266 176 OFFCURVE",
"239 129 OFFCURVE",
"239 88 CURVE SMOOTH",
"239 46 OFFCURVE",
"267 0 OFFCURVE",
"320 0 CURVE SMOOTH"
);
}
);
width = 1240;
}
);
unicode = 0049;
},
{
glyphname = IJ;
lastChange = "2017-06-26 22:00:10 +0000";
layers = (
{
layerId = "840BD324-B0A6-42B0-BD23-CB5E8C19394F";
paths = (
{
closed = 1;
nodes = (
"428 1085 LINE",
"428 206 LINE",
"559 206 LINE SMOOTH",
"592 206 OFFCURVE",
"608 184 OFFCURVE",
"608 163 CURVE SMOOTH",
"608 141 OFFCURVE",
"591 120 OFFCURVE",
"558 120 CURVE SMOOTH",
"218 120 LINE SMOOTH",
"185 120 OFFCURVE",
"167 141 OFFCURVE",
"167 163 CURVE SMOOTH",
"167 184 OFFCURVE",
"184 206 OFFCURVE",
"217 206 CURVE SMOOTH",
"332 206 LINE",
"332 1085 LINE",
"217 1085 LINE SMOOTH",
"184 1085 OFFCURVE",
"167 1106 OFFCURVE",
"167 1127 CURVE SMOOTH",
"167 1149 OFFCURVE",
"185 1171 OFFCURVE",
"218 1171 CURVE SMOOTH",
"546 1171 LINE SMOOTH",
"579 1171 OFFCURVE",
"596 1150 OFFCURVE",
"596 1128 CURVE SMOOTH",
"596 1107 OFFCURVE",
"580 1085 OFFCURVE",
"547 1085 CURVE SMOOTH"
);
},
{
closed = 1;
nodes = (
"726 1085 OFFCURVE",
"709 1106 OFFCURVE",
"709 1127 CURVE SMOOTH",
"709 1149 OFFCURVE",
"727 1171 OFFCURVE",
"760 1171 CURVE SMOOTH",
"1063 1171 LINE SMOOTH",
"1096 1171 OFFCURVE",
"1113 1150 OFFCURVE",
"1113 1128 CURVE SMOOTH",
"1113 1107 OFFCURVE",
"1097 1085 OFFCURVE",
"1064 1085 CURVE SMOOTH",
"960 1085 LINE",
"961 121 LINE SMOOTH",
"961 -164 OFFCURVE",
"838 -329 OFFCURVE",
"601 -329 CURVE SMOOTH",
"384 -329 OFFCURVE",
"254 -209 OFFCURVE",
"254 -47 CURVE SMOOTH",
"254 -18 OFFCURVE",
"275 1 OFFCURVE",
"304 1 CURVE SMOOTH",
"330 1 OFFCURVE",
"352 -16 OFFCURVE",
"352 -47 CURVE SMOOTH",
"352 -156 OFFCURVE",
"447 -246 OFFCURVE",
"601 -246 CURVE SMOOTH",
"768 -246 OFFCURVE",
"865 -112 OFFCURVE",
"865 118 CURVE",
"864 1085 LINE",
"759 1085 LINE SMOOTH"
);
}
);
width = 1240;
},
{
layerId = "F2E12B84-E402-48AA-89E7-06534AE23493";
width = 600;
}
);
unicode = 0132;
},
{
glyphname = J;
lastChange = "2017-06-30 20:29:18 +0000";
layers = (
{
anchors = (
{
name = bottom;
position = "{620, 0}";
},
{
name = top;
position = "{730, 1171}";
}
);
layerId = "840BD324-B0A6-42B0-BD23-CB5E8C19394F";
paths = (
{
closed = 1;
nodes = (
"752 -13 OFFCURVE",
"865 142 OFFCURVE",
"865 387 CURVE SMOOTH",
"865 1085 LINE",
"1036 1085 LINE SMOOTH",
"1069 1085 OFFCURVE",
"1085 1107 OFFCURVE",
"1085 1128 CURVE SMOOTH",
"1085 1150 OFFCURVE",
"1068 1171 OFFCURVE",
"1035 1171 CURVE SMOOTH",
"400 1171 LINE SMOOTH",
"367 1171 OFFCURVE",
"351 1149 OFFCURVE",
"351 1127 CURVE SMOOTH",
"351 1106 OFFCURVE",
"367 1085 OFFCURVE",
"399 1085 CURVE SMOOTH",
"769 1085 LINE",
"769 384 LINE SMOOTH",
"769 194 OFFCURVE",
"682 70 OFFCURVE",
"500 70 CURVE SMOOTH",
"341 70 OFFCURVE",
"246 160 OFFCURVE",
"246 320 CURVE SMOOTH",
"246 352 OFFCURVE",
"224 368 OFFCURVE",
"198 368 CURVE SMOOTH",
"169 368 OFFCURVE",
"148 349 OFFCURVE",
"148 320 CURVE SMOOTH",
"148 107 OFFCURVE",
"278 -13 OFFCURVE",
"500 -13 CURVE SMOOTH"
);
}
);
width = 1240;
},
{
anchors = (
{
name = bottom;
position = "{620, 0}";
},
{
name = top;
position = "{620, 1171}";
}
);
layerId = "F2E12B84-E402-48AA-89E7-06534AE23493";
paths = (
{
closed = 1;
nodes = (
"852 -13 OFFCURVE",
"965 142 OFFCURVE",
"965 417 CURVE SMOOTH",
"965 995 LINE",
"1046 995 LINE SMOOTH",
"1099 995 OFFCURVE",
"1135 1037 OFFCURVE",
"1135 1083 CURVE SMOOTH",
"1135 1125 OFFCURVE",
"1098 1171 OFFCURVE",
"1045 1171 CURVE SMOOTH",
"410 1171 LINE SMOOTH",
"357 1171 OFFCURVE",
"321 1124 OFFCURVE",
"321 1082 CURVE SMOOTH",
"321 1036 OFFCURVE",
"357 995 OFFCURVE",
"409 995 CURVE SMOOTH",
"719 995 LINE",
"719 424 LINE SMOOTH",
"719 284 OFFCURVE",
"683 170 OFFCURVE",
"530 170 CURVE SMOOTH",
"431 170 OFFCURVE",
"356 222 OFFCURVE",
"356 320 CURVE SMOOTH",
"356 392 OFFCURVE",
"304 428 OFFCURVE",
"248 428 CURVE SMOOTH",
"189 428 OFFCURVE",
"138 389 OFFCURVE",
"138 320 CURVE SMOOTH",
"138 107 OFFCURVE",
"268 -13 OFFCURVE",
"530 -13 CURVE SMOOTH"
);
}
);
width = 1240;
}
);
unicode = 004A;
},
{
glyphname = K;
lastChange = "2017-06-26 22:00:10 +0000";
layers = (
{
anchors = (
{
name = bottom;
position = "{620, 0}";
},
{
name = top;
position = "{620, 1171}";
}
);
layerId = "840BD324-B0A6-42B0-BD23-CB5E8C19394F";
paths = (
{
closed = 1;
nodes = (
"362 405 LINE",
"362 86 LINE",
"520 86 LINE SMOOTH",
"553 86 OFFCURVE",
"569 64 OFFCURVE",
"569 43 CURVE SMOOTH",
"569 21 OFFCURVE",
"552 0 OFFCURVE",
"519 0 CURVE SMOOTH",
"94 0 LINE SMOOTH",
"60 0 OFFCURVE",
"43 21 OFFCURVE",
"43 43 CURVE SMOOTH",
"43 64 OFFCURVE",
"60 86 OFFCURVE",
"93 86 CURVE SMOOTH",
"262 86 LINE",
"262 1084 LINE",
"93 1084 LINE SMOOTH",
"60 1084 OFFCURVE",
"43 1105 OFFCURVE",
"43 1127 CURVE SMOOTH",
"43 1149 OFFCURVE",
"60 1171 OFFCURVE",
"94 1171 CURVE SMOOTH",
"519 1171 LINE SMOOTH",
"552 1171 OFFCURVE",
"569 1148 OFFCURVE",
"569 1126 CURVE SMOOTH",
"569 1105 OFFCURVE",
"554 1084 OFFCURVE",
"521 1084 CURVE SMOOTH",
"358 1084 LINE",
"358 519 LINE",
"911 1085 LINE",
"915 1085 OFFCURVE",
"908 1085 OFFCURVE",
"793 1085 CURVE SMOOTH",
"760 1085 OFFCURVE",
"744 1108 OFFCURVE",
"744 1127 CURVE SMOOTH",
"744 1147 OFFCURVE",
"762 1171 OFFCURVE",
"794 1171 CURVE SMOOTH",
"1156 1171 LINE SMOOTH",
"1189 1171 OFFCURVE",
"1205 1149 OFFCURVE",
"1205 1127 CURVE SMOOTH",
"1205 1105 OFFCURVE",
"1189 1085 OFFCURVE",
"1157 1085 CURVE SMOOTH",
"1029 1085 LINE"
);
},
{
closed = 1;
nodes = (
"611 676 LINE",
"1072 86 LINE",
"1159 86 LINE SMOOTH",
"1191 86 OFFCURVE",
"1207 64 OFFCURVE",
"1207 43 CURVE SMOOTH",
"1207 21 OFFCURVE",
"1191 0 OFFCURVE",
"1158 0 CURVE SMOOTH",
"780 0 LINE SMOOTH",
"747 0 OFFCURVE",
"730 21 OFFCURVE",
"730 43 CURVE SMOOTH",
"730 64 OFFCURVE",
"746 86 OFFCURVE",
"779 86 CURVE SMOOTH",
"955 86 LINE",
"537 621 LINE"
);
}
);
width = 1240;
},
{
layerId = "F2E12B84-E402-48AA-89E7-06534AE23493";
width = 600;
}
);
unicode = 004B;
},
{
glyphname = L;
lastChange = "2017-06-30 19:53:20 +0000";
layers = (
{
anchors = (
{
name = bottom;
position = "{708, -175}";
},
{
name = center;
position = "{620, 586}";
},
{
name = top;
position = "{440, 1171}";
},
{
name = topright;
position = "{1220, 1171}";
}
);
layerId = "840BD324-B0A6-42B0-BD23-CB5E8C19394F";
paths = (
{
closed = 1;
nodes = (
"1048 0 LINE SMOOTH",
"1091 0 OFFCURVE",
"1115 29 OFFCURVE",
"1120 66 CURVE",
"1150 387 LINE",
"1150 393 LINE SMOOTH",
"1150 425 OFFCURVE",
"1127 442 OFFCURVE",
"1101 442 CURVE SMOOTH",
"1078 442 OFFCURVE",
"1057 428 OFFCURVE",
"1053 399 CURVE SMOOTH",
"1019 123 LINE SMOOTH",
"1015 92 OFFCURVE",
"998 88 OFFCURVE",
"976 86 CURVE",
"489 86 LINE",
"489 1085 LINE",
"641 1085 LINE SMOOTH",
"674 1085 OFFCURVE",
"691 1106 OFFCURVE",
"691 1127 CURVE SMOOTH",
"691 1149 OFFCURVE",
"674 1171 OFFCURVE",
"640 1171 CURVE SMOOTH",
"167 1171 LINE SMOOTH",
"134 1171 OFFCURVE",
"117 1149 OFFCURVE",
"117 1127 CURVE SMOOTH",
"117 1106 OFFCURVE",
"133 1085 OFFCURVE",
"166 1085 CURVE SMOOTH",
"393 1085 LINE",
"393 86 LINE",
"124 86 LINE SMOOTH",
"91 86 OFFCURVE",
"74 64 OFFCURVE",
"74 43 CURVE SMOOTH",
"74 21 OFFCURVE",
"91 0 OFFCURVE",
"125 0 CURVE SMOOTH"
);
}
);
width = 1240;
},
{
anchors = (
{
name = bottom;
position = "{620, 0}";
},
{
name = center;
position = "{620, 586}";
},
{
name = top;
position = "{620, 1171}";
},
{
name = topright;
position = "{1220, 1171}";
}
);
layerId = "F2E12B84-E402-48AA-89E7-06534AE23493";
paths = (
{
closed = 1;
nodes = (
"1048 0 LINE SMOOTH",
"1101 0 OFFCURVE",
"1135 29 OFFCURVE",
"1140 86 CURVE",
"1170 467 LINE",
"1170 473 LINE SMOOTH",
"1170 525 OFFCURVE",
"1117 552 OFFCURVE",
"1071 552 CURVE SMOOTH",
"1028 552 OFFCURVE",
"978 528 OFFCURVE",
"972 479 CURVE SMOOTH",
"939 213 LINE SMOOTH",
"935 182 OFFCURVE",
"918 178 OFFCURVE",
"896 176 CURVE",
"539 176 LINE",
"539 995 LINE",
"611 995 LINE SMOOTH",
"664 995 OFFCURVE",
"691 1041 OFFCURVE",
"691 1082 CURVE SMOOTH",
"691 1124 OFFCURVE",
"664 1171 OFFCURVE",
"610 1171 CURVE SMOOTH",
"187 1171 LINE SMOOTH",
"134 1171 OFFCURVE",
"107 1124 OFFCURVE",
"107 1082 CURVE SMOOTH",
"107 1041 OFFCURVE",
"133 995 OFFCURVE",
"186 995 CURVE SMOOTH",
"293 995 LINE",
"293 176 LINE",
"144 176 LINE SMOOTH",
"91 176 OFFCURVE",
"64 129 OFFCURVE",
"64 88 CURVE SMOOTH",
"64 46 OFFCURVE",
"91 0 OFFCURVE",
"145 0 CURVE SMOOTH"
);
}
);
width = 1240;
}
);
unicode = 004C;
},
{
glyphname = LJ;
lastChange = "2017-06-29 15:13:14 +0000";
layers = (
{
layerId = "840BD324-B0A6-42B0-BD23-CB5E8C19394F";
paths = (
{
closed = 1;
nodes = (
"1154 367 LINE SMOOTH",
"1154 72 OFFCURVE",
"1058 -13 OFFCURVE",
"924 -13 CURVE SMOOTH",
"793 -13 OFFCURVE",
"697 87 OFFCURVE",
"697 251 CURVE SMOOTH",
"697 273 LINE SMOOTH",
"697 312 OFFCURVE",
"722 328 OFFCURVE",
"746 328 CURVE SMOOTH",
"770 328 OFFCURVE",
"793 313 OFFCURVE",
"793 273 CURVE SMOOTH",
"793 250 LINE SMOOTH",
"793 143 OFFCURVE",
"856 73 OFFCURVE",
"924 73 CURVE SMOOTH",
"1000 73 OFFCURVE",
"1053 149 OFFCURVE",
"1053 364 CURVE SMOOTH",
"1053 1085 LINE",
"828 1085 LINE SMOOTH",
"796 1085 OFFCURVE",
"780 1106 OFFCURVE",
"780 1127 CURVE SMOOTH",
"780 1149 OFFCURVE",
"796 1171 OFFCURVE",
"829 1171 CURVE SMOOTH",
"1224 1171 LINE SMOOTH",
"1257 1171 OFFCURVE",
"1274 1150 OFFCURVE",
"1274 1128 CURVE SMOOTH",
"1274 1107 OFFCURVE",
"1258 1085 OFFCURVE",
"1225 1085 CURVE SMOOTH",
"1154 1085 LINE"
);
},
{
closed = 1;
nodes = (
"415 1171 LINE SMOOTH",
"449 1171 OFFCURVE",
"466 1149 OFFCURVE",
"466 1127 CURVE SMOOTH",
"466 1106 OFFCURVE",
"449 1085 OFFCURVE",
"416 1085 CURVE SMOOTH",
"234 1085 LINE",
"234 86 LINE",
"476 86 LINE",
"498 88 OFFCURVE",
"513 92 OFFCURVE",
"517 123 CURVE SMOOTH",
"551 399 LINE SMOOTH",
"555 428 OFFCURVE",
"572 442 OFFCURVE",
"595 442 CURVE SMOOTH",
"621 442 OFFCURVE",
"642 425 OFFCURVE",
"642 393 CURVE SMOOTH",
"642 387 LINE",
"612 66 LINE",
"607 29 OFFCURVE",
"583 0 OFFCURVE",
"540 0 CURVE SMOOTH",
"64 0 LINE SMOOTH",
"30 0 OFFCURVE",
"13 21 OFFCURVE",
"13 43 CURVE SMOOTH",
"13 64 OFFCURVE",
"30 86 OFFCURVE",
"63 86 CURVE SMOOTH",
"138 86 LINE",
"138 1085 LINE",
"55 1085 LINE SMOOTH",
"22 1085 OFFCURVE",
"6 1106 OFFCURVE",
"6 1127 CURVE SMOOTH",
"6 1149 OFFCURVE",
"23 1171 OFFCURVE",
"56 1171 CURVE SMOOTH"
);
}
);
width = 1240;
},
{
layerId = "F2E12B84-E402-48AA-89E7-06534AE23493";
width = 600;
}
);
unicode = 01C7;
},
{
glyphname = Lj;
lastChange = "2017-06-26 22:00:10 +0000";
layers = (
{
layerId = "840BD324-B0A6-42B0-BD23-CB5E8C19394F";
paths = (
{
closed = 1;
nodes = (
"464 1171 LINE SMOOTH",
"498 1171 OFFCURVE",
"515 1149 OFFCURVE",
"515 1127 CURVE SMOOTH",
"515 1106 OFFCURVE",
"498 1085 OFFCURVE",
"465 1085 CURVE SMOOTH",
"353 1085 LINE",
"353 86 LINE",
"655 86 LINE",
"677 88 OFFCURVE",
"692 92 OFFCURVE",
"696 123 CURVE SMOOTH",
"730 399 LINE SMOOTH",
"734 428 OFFCURVE",
"752 442 OFFCURVE",
"775 442 CURVE SMOOTH",
"801 442 OFFCURVE",
"821 425 OFFCURVE",
"821 393 CURVE SMOOTH",
"821 387 LINE",
"791 66 LINE",
"786 29 OFFCURVE",
"762 0 OFFCURVE",
"719 0 CURVE SMOOTH",
"113 0 LINE SMOOTH",
"79 0 OFFCURVE",
"62 21 OFFCURVE",
"62 43 CURVE SMOOTH",
"62 64 OFFCURVE",
"79 86 OFFCURVE",
"112 86 CURVE SMOOTH",
"257 86 LINE",
"257 1085 LINE",
"154 1085 LINE SMOOTH",
"121 1085 OFFCURVE",
"105 1106 OFFCURVE",
"105 1127 CURVE SMOOTH",
"105 1149 OFFCURVE",
"122 1171 OFFCURVE",
"155 1171 CURVE SMOOTH"
);
},
{
closed = 1;
nodes = (
"1116 -198 OFFCURVE",
"973 -309 OFFCURVE",
"728 -309 CURVE SMOOTH",
"695 -309 OFFCURVE",
"677 -287 OFFCURVE",
"677 -265 CURVE SMOOTH",
"677 -243 OFFCURVE",
"696 -220 OFFCURVE",
"735 -220 CURVE SMOOTH",
"910 -220 OFFCURVE",
"1020 -155 OFFCURVE",
"1020 50 CURVE SMOOTH",
"1020 730 LINE",
"754 702 LINE SMOOTH",
"725 699 OFFCURVE",
"710 724 OFFCURVE",
"710 745 CURVE SMOOTH",
"710 765 OFFCURVE",
"724 782 OFFCURVE",
"750 784 CURVE SMOOTH",
"1080 814 LINE SMOOTH",
"1100 816 OFFCURVE",
"1116 806 OFFCURVE",
"1116 785 CURVE SMOOTH",
"1116 50 LINE SMOOTH"
);
},
{
closed = 1;
nodes = (
"931 1130 OFFCURVE",
"971 1171 OFFCURVE",
"1022 1171 CURVE SMOOTH",
"1072 1171 OFFCURVE",
"1112 1130 OFFCURVE",
"1112 1080 CURVE SMOOTH",
"1112 1029 OFFCURVE",
"1072 990 OFFCURVE",
"1022 990 CURVE SMOOTH",
"971 990 OFFCURVE",
"931 1029 OFFCURVE",
"931 1080 CURVE SMOOTH"
);
}
);
width = 1240;
},
{
layerId = "F2E12B84-E402-48AA-89E7-06534AE23493";
width = 600;
}
);
unicode = 01C8;
},
{
glyphname = Lslash;
lastChange = "2017-06-26 22:00:10 +0000";
layers = (
{
components = (
{
name = L;
}
);
layerId = "840BD324-B0A6-42B0-BD23-CB5E8C19394F";
paths = (
{
closed = 1;
nodes = (
"757 748 CURVE SMOOTH",
"782 748 OFFCURVE",
"798 730 OFFCURVE",
"798 702 CURVE SMOOTH",
"798 683 OFFCURVE",
"786 676 OFFCURVE",
"760 665 CURVE SMOOTH",
"215 441 LINE SMOOTH",
"207 438 OFFCURVE",
"199 438 OFFCURVE",
"193 438 CURVE SMOOTH",
"168 438 OFFCURVE",
"153 456 OFFCURVE",
"153 484 CURVE SMOOTH",
"153 503 OFFCURVE",
"166 513 OFFCURVE",
"193 524 CURVE SMOOTH",
"738 745 LINE SMOOTH",
"745 748 OFFCURVE",
"751 748 OFFCURVE"
);
}
);
width = 1240;
},
{
layerId = "F2E12B84-E402-48AA-89E7-06534AE23493";
width = 600;
}
);
unicode = 0141;
},
{
glyphname = M;
lastChange = "2017-07-02 17:57:59 +0000";
layers = (
{
anchors = (
{
name = bottom;
position = "{620, 0}";
},
{
name = top;
position = "{620, 1171}";
}
);
layerId = "840BD324-B0A6-42B0-BD23-CB5E8C19394F";
paths = (
{
closed = 1;
nodes = (
"417 0 LINE SMOOTH",
"451 0 OFFCURVE",
"468 22 OFFCURVE",
"468 44 CURVE SMOOTH",
"468 65 OFFCURVE",
"452 86 OFFCURVE",
"418 86 CURVE SMOOTH",
"295 86 LINE",
"295 978 LINE",
"567 385 LINE SMOOTH",
"581 355 OFFCURVE",
"601 342 OFFCURVE",
"625 342 CURVE SMOOTH",
"650 342 OFFCURVE",
"670 353 OFFCURVE",
"684 385 CURVE SMOOTH",
"951 979 LINE",
"951 86 LINE",
"815 86 LINE SMOOTH",
"782 86 OFFCURVE",
"766 65 OFFCURVE",
"766 44 CURVE SMOOTH",
"766 22 OFFCURVE",
"783 0 OFFCURVE",
"817 0 CURVE SMOOTH",
"1170 0 LINE SMOOTH",
"1203 0 OFFCURVE",
"1220 22 OFFCURVE",
"1220 44 CURVE SMOOTH",
"1220 65 OFFCURVE",
"1204 86 OFFCURVE",
"1172 86 CURVE SMOOTH",
"1044 86 LINE",
"1044 1085 LINE",
"1157 1085 LINE SMOOTH",
"1190 1085 OFFCURVE",
"1207 1106 OFFCURVE",
"1207 1127 CURVE SMOOTH",
"1207 1149 OFFCURVE",
"1190 1171 OFFCURVE",
"1156 1171 CURVE SMOOTH",
"974 1171 LINE SMOOTH",
"952 1171 OFFCURVE",
"937 1158 OFFCURVE",
"929 1141 CURVE SMOOTH",
"630 470 LINE",
"318 1136 LINE SMOOTH",
"310 1154 OFFCURVE",
"296 1171 OFFCURVE",
"272 1171 CURVE SMOOTH",
"84 1171 LINE SMOOTH",
"51 1171 OFFCURVE",
"34 1149 OFFCURVE",
"34 1127 CURVE SMOOTH",
"34 1106 OFFCURVE",
"50 1085 OFFCURVE",
"83 1085 CURVE SMOOTH",
"203 1085 LINE",
"203 86 LINE",
"69 86 LINE SMOOTH",
"36 86 OFFCURVE",
"20 64 OFFCURVE",
"20 43 CURVE SMOOTH",
"20 21 OFFCURVE",
"37 0 OFFCURVE",
"70 0 CURVE SMOOTH"
);
}
);
width = 1240;
},
{
anchors = (
{
name = bottom;
position = "{620, 0}";
},
{
name = top;
position = "{620, 1171}";
}
);
layerId = "F2E12B84-E402-48AA-89E7-06534AE23493";
paths = (
{
closed = 1;
nodes = (
"407 0 LINE SMOOTH",
"451 0 OFFCURVE",
"478 47 OFFCURVE",
"478 89 CURVE SMOOTH",
"478 135 OFFCURVE",
"452 176 OFFCURVE",
"408 176 CURVE SMOOTH",
"375 176 LINE",
"375 678 LINE",
"567 385 LINE SMOOTH",
"587 354 OFFCURVE",
"601 342 OFFCURVE",
"625 342 CURVE SMOOTH",
"650 342 OFFCURVE",
"663 353 OFFCURVE",
"684 385 CURVE SMOOTH",
"881 679 LINE",
"881 176 LINE",
"825 176 LINE SMOOTH",
"782 176 OFFCURVE",
"756 135 OFFCURVE",
"756 89 CURVE SMOOTH",
"756 47 OFFCURVE",
"783 0 OFFCURVE",
"827 0 CURVE SMOOTH",
"1150 0 LINE SMOOTH",
"1193 0 OFFCURVE",
"1220 47 OFFCURVE",
"1220 89 CURVE SMOOTH",
"1220 130 OFFCURVE",
"1194 176 OFFCURVE",
"1152 176 CURVE SMOOTH",
"1114 176 LINE",
"1114 995 LINE",
"1127 995 LINE SMOOTH",
"1180 995 OFFCURVE",
"1207 1041 OFFCURVE",
"1207 1082 CURVE SMOOTH",
"1207 1124 OFFCURVE",
"1180 1171 OFFCURVE",
"1126 1171 CURVE SMOOTH",
"974 1171 LINE SMOOTH",
"952 1171 OFFCURVE",
"940 1158 OFFCURVE",
"929 1141 CURVE SMOOTH",
"630 680 LINE",
"318 1136 LINE SMOOTH",
"306 1154 OFFCURVE",
"296 1171 OFFCURVE",
"272 1171 CURVE SMOOTH",
"114 1171 LINE SMOOTH",
"61 1171 OFFCURVE",
"34 1124 OFFCURVE",
"34 1082 CURVE SMOOTH",
"34 1041 OFFCURVE",
"60 995 OFFCURVE",
"113 995 CURVE SMOOTH",
"133 995 LINE",
"133 176 LINE",
"89 176 LINE SMOOTH",
"46 176 OFFCURVE",
"20 129 OFFCURVE",
"20 88 CURVE SMOOTH",
"20 46 OFFCURVE",
"47 0 OFFCURVE",
"90 0 CURVE SMOOTH"
);
}
);
width = 1240;
}
);
unicode = 004D;
},
{
glyphname = N;
lastChange = "2017-07-02 17:53:30 +0000";
layers = (
{
anchors = (
{
name = bottom;
position = "{680, -140}";
},
{
name = top;
position = "{620, 1171}";
}
);
layerId = "840BD324-B0A6-42B0-BD23-CB5E8C19394F";
paths = (
{
closed = 1;
nodes = (
"1005 -16 OFFCURVE",
"1027 4 OFFCURVE",
"1027 47 CURVE SMOOTH",
"1027 1085 LINE",
"1127 1085 LINE SMOOTH",
"1159 1085 OFFCURVE",
"1175 1106 OFFCURVE",
"1175 1127 CURVE SMOOTH",
"1175 1149 OFFCURVE",
"1158 1171 OFFCURVE",
"1125 1171 CURVE SMOOTH",
"786 1171 LINE SMOOTH",
"752 1171 OFFCURVE",
"735 1149 OFFCURVE",
"735 1127 CURVE SMOOTH",
"735 1106 OFFCURVE",
"751 1085 OFFCURVE",
"784 1085 CURVE SMOOTH",
"936 1085 LINE",
"939 176 LINE",
"407 1147 LINE SMOOTH",
"398 1163 OFFCURVE",
"389 1171 OFFCURVE",
"367 1171 CURVE SMOOTH",
"120 1171 LINE SMOOTH",
"87 1171 OFFCURVE",
"70 1149 OFFCURVE",
"70 1127 CURVE SMOOTH",
"70 1106 OFFCURVE",
"86 1085 OFFCURVE",
"119 1085 CURVE SMOOTH",
"267 1085 LINE",
"267 86 LINE",
"149 86 LINE SMOOTH",
"116 86 OFFCURVE",
"100 64 OFFCURVE",
"100 43 CURVE SMOOTH",
"100 21 OFFCURVE",
"117 0 OFFCURVE",
"150 0 CURVE SMOOTH",
"498 0 LINE SMOOTH",
"531 0 OFFCURVE",
"548 21 OFFCURVE",
"548 43 CURVE SMOOTH",
"548 64 OFFCURVE",
"532 86 OFFCURVE",
"499 86 CURVE SMOOTH",
"361 86 LINE",
"361 1042 LINE",
"924 22 LINE SMOOTH",
"938 -3 OFFCURVE",
"958 -16 OFFCURVE",
"979 -16 CURVE SMOOTH"
);
}
);
width = 1240;
},
{
anchors = (
{
name = bottom;
position = "{620, 0}";
},
{
name = top;
position = "{620, 1171}";
}
);
layerId = "F2E12B84-E402-48AA-89E7-06534AE23493";
paths = (
{
closed = 1;
nodes = (
"1048 -16 OFFCURVE",
"1077 4 OFFCURVE",
"1077 47 CURVE SMOOTH",
"1077 995 LINE",
"1116 995 LINE SMOOTH",
"1168 995 OFFCURVE",
"1195 1041 OFFCURVE",
"1195 1082 CURVE SMOOTH",
"1195 1124 OFFCURVE",
"1168 1171 OFFCURVE",
"1115 1171 CURVE SMOOTH",
"776 1171 LINE SMOOTH",
"722 1171 OFFCURVE",
"695 1124 OFFCURVE",
"695 1082 CURVE SMOOTH",
"695 1041 OFFCURVE",
"721 995 OFFCURVE",
"774 995 CURVE SMOOTH",
"846 995 LINE",
"849 496 LINE",
"387 1147 LINE SMOOTH",
"376 1163 OFFCURVE",
"369 1171 OFFCURVE",
"347 1171 CURVE SMOOTH",
"140 1171 LINE SMOOTH",
"87 1171 OFFCURVE",
"60 1124 OFFCURVE",
"60 1082 CURVE SMOOTH",
"60 1041 OFFCURVE",
"86 995 OFFCURVE",
"139 995 CURVE SMOOTH",
"197 995 LINE",
"197 176 LINE",
"149 176 LINE SMOOTH",
"96 176 OFFCURVE",
"70 129 OFFCURVE",
"70 88 CURVE SMOOTH",
"70 46 OFFCURVE",
"97 0 OFFCURVE",
"150 0 CURVE SMOOTH",
"498 0 LINE SMOOTH",
"551 0 OFFCURVE",
"578 46 OFFCURVE",
"578 88 CURVE SMOOTH",
"578 129 OFFCURVE",
"552 176 OFFCURVE",
"499 176 CURVE SMOOTH",
"441 176 LINE",
"441 712 LINE",
"930 39 LINE SMOOTH",
"960 -2 OFFCURVE",
"988 -16 OFFCURVE",
"1019 -16 CURVE SMOOTH"
);
}
);
width = 1240;
}
);
unicode = 004E;
},
{
glyphname = NJ;
lastChange = "2017-06-26 22:00:10 +0000";
layers = (
{
layerId = "840BD324-B0A6-42B0-BD23-CB5E8C19394F";
paths = (
{
closed = 1;
nodes = (
"79 1085 LINE SMOOTH",
"46 1085 OFFCURVE",
"30 1106 OFFCURVE",
"30 1127 CURVE SMOOTH",
"30 1149 OFFCURVE",
"47 1171 OFFCURVE",
"80 1171 CURVE SMOOTH",
"233 1171 LINE SMOOTH",
"255 1171 OFFCURVE",
"267 1164 OFFCURVE",
"273 1147 CURVE SMOOTH",
"595 257 LINE",
"595 1085 LINE",
"504 1085 LINE SMOOTH",
"471 1085 OFFCURVE",
"455 1106 OFFCURVE",
"455 1127 CURVE SMOOTH",
"455 1149 OFFCURVE",
"472 1171 OFFCURVE",
"506 1171 CURVE SMOOTH",
"1224 1171 LINE SMOOTH",
"1257 1171 OFFCURVE",
"1274 1150 OFFCURVE",
"1274 1128 CURVE SMOOTH",
"1274 1107 OFFCURVE",
"1258 1085 OFFCURVE",
"1225 1085 CURVE SMOOTH",
"1151 1085 LINE",
"1151 277 LINE SMOOTH",
"1151 68 OFFCURVE",
"1085 -17 OFFCURVE",
"964 -17 CURVE SMOOTH",
"856 -17 OFFCURVE",
"786 68 OFFCURVE",
"786 181 CURVE SMOOTH",
"786 233 LINE SMOOTH",
"786 262 OFFCURVE",
"810 283 OFFCURVE",
"834 283 CURVE SMOOTH",
"858 283 OFFCURVE",
"879 263 OFFCURVE",
"879 233 CURVE SMOOTH",
"879 180 LINE SMOOTH",
"879 113 OFFCURVE",
"913 67 OFFCURVE",
"964 67 CURVE SMOOTH",
"1025 67 OFFCURVE",
"1058 125 OFFCURVE",
"1058 269 CURVE SMOOTH",
"1058 1085 LINE",
"682 1085 LINE",
"682 53 LINE SMOOTH",
"682 10 OFFCURVE",
"666 -10 OFFCURVE",
"640 -10 CURVE SMOOTH",
"619 -10 OFFCURVE",
"603 3 OFFCURVE",
"594 28 CURVE SMOOTH",
"225 1024 LINE",
"225 86 LINE",
"299 86 LINE SMOOTH",
"332 86 OFFCURVE",
"348 64 OFFCURVE",
"348 43 CURVE SMOOTH",
"348 21 OFFCURVE",
"331 0 OFFCURVE",
"298 0 CURVE SMOOTH",
"100 0 LINE SMOOTH",
"67 0 OFFCURVE",
"50 21 OFFCURVE",
"50 43 CURVE SMOOTH",
"50 64 OFFCURVE",
"66 86 OFFCURVE",
"99 86 CURVE SMOOTH",
"135 86 LINE",
"135 1085 LINE"
);
}
);
width = 1240;
},
{
layerId = "F2E12B84-E402-48AA-89E7-06534AE23493";
width = 600;
}
);
unicode = 01CA;
},
{
glyphname = Eng;
lastChange = "2017-06-26 22:00:10 +0000";
layers = (
{
layerId = "840BD324-B0A6-42B0-BD23-CB5E8C19394F";
paths = (
{
closed = 1;
nodes = (
"629 -401 CURVE SMOOTH",
"598 -401 OFFCURVE",
"584 -378 OFFCURVE",
"584 -357 CURVE SMOOTH",
"584 -337 OFFCURVE",
"597 -315 OFFCURVE",
"630 -315 CURVE SMOOTH",
"782 -315 OFFCURVE",
"943 -211 OFFCURVE",
"943 -2 CURVE SMOOTH",
"943 52 LINE",
"875 177 OFFCURVE",
"506 844 OFFCURVE",
"381 1084 CURVE",
"381 86 LINE",
"519 86 LINE SMOOTH",
"552 86 OFFCURVE",
"568 64 OFFCURVE",
"568 43 CURVE SMOOTH",
"568 21 OFFCURVE",
"551 0 OFFCURVE",
"518 0 CURVE SMOOTH",
"160 0 LINE SMOOTH",
"127 0 OFFCURVE",
"110 21 OFFCURVE",
"110 43 CURVE SMOOTH",
"110 64 OFFCURVE",
"126 86 OFFCURVE",
"159 86 CURVE SMOOTH",
"285 86 LINE",
"285 1085 LINE",
"129 1085 LINE SMOOTH",
"96 1085 OFFCURVE",
"80 1106 OFFCURVE",
"80 1127 CURVE SMOOTH",
"80 1149 OFFCURVE",
"97 1171 OFFCURVE",
"130 1171 CURVE SMOOTH",
"407 1171 LINE SMOOTH",
"429 1171 OFFCURVE",
"439 1163 OFFCURVE",
"447 1147 CURVE SMOOTH",
"943 224 LINE",
"943 1085 LINE",
"794 1085 LINE SMOOTH",
"761 1085 OFFCURVE",
"745 1106 OFFCURVE",
"745 1127 CURVE SMOOTH",
"745 1149 OFFCURVE",
"762 1171 OFFCURVE",
"796 1171 CURVE SMOOTH",
"1133 1171 LINE SMOOTH",
"1166 1171 OFFCURVE",
"1183 1149 OFFCURVE",
"1183 1127 CURVE SMOOTH",
"1183 1106 OFFCURVE",
"1167 1085 OFFCURVE",
"1135 1085 CURVE SMOOTH",
"1039 1085 LINE",
"1039 1 LINE SMOOTH",
"1039 -252 OFFCURVE",
"841 -401 OFFCURVE"
);
}
);
width = 1240;
},
{
layerId = "F2E12B84-E402-48AA-89E7-06534AE23493";
width = 600;
}
);
unicode = 014A;
},
{
glyphname = Nj;
lastChange = "2017-06-26 22:00:10 +0000";
layers = (
{
layerId = "840BD324-B0A6-42B0-BD23-CB5E8C19394F";
paths = (
{
closed = 1;
nodes = (
"1136 -178 OFFCURVE",
"973 -309 OFFCURVE",
"748 -309 CURVE SMOOTH",
"715 -309 OFFCURVE",
"697 -287 OFFCURVE",
"697 -265 CURVE SMOOTH",
"697 -243 OFFCURVE",
"716 -220 OFFCURVE",
"755 -220 CURVE SMOOTH",
"910 -220 OFFCURVE",
"1040 -135 OFFCURVE",
"1040 40 CURVE SMOOTH",
"1040 727 LINE",
"854 712 LINE SMOOTH",
"825 710 OFFCURVE",
"810 734 OFFCURVE",
"810 755 CURVE SMOOTH",
"810 775 OFFCURVE",
"824 792 OFFCURVE",
"850 794 CURVE SMOOTH",
"1100 814 LINE SMOOTH",
"1120 816 OFFCURVE",
"1136 806 OFFCURVE",
"1136 785 CURVE SMOOTH",
"1136 37 LINE SMOOTH"
);
},
{
closed = 1;
nodes = (
"961 1130 OFFCURVE",
"1001 1171 OFFCURVE",
"1052 1171 CURVE SMOOTH",
"1102 1171 OFFCURVE",
"1142 1130 OFFCURVE",
"1142 1080 CURVE SMOOTH",
"1142 1029 OFFCURVE",
"1102 990 OFFCURVE",
"1052 990 CURVE SMOOTH",
"1001 990 OFFCURVE",
"961 1029 OFFCURVE",
"961 1080 CURVE SMOOTH"
);
},
{
closed = 1;
nodes = (
"730 47 LINE SMOOTH",
"730 4 OFFCURVE",
"716 -16 OFFCURVE",
"690 -16 CURVE SMOOTH",
"669 -16 OFFCURVE",
"653 -3 OFFCURVE",
"644 22 CURVE SMOOTH",
"255 1064 LINE",
"255 86 LINE",
"329 86 LINE SMOOTH",
"362 86 OFFCURVE",
"378 64 OFFCURVE",
"378 43 CURVE SMOOTH",
"378 21 OFFCURVE",
"361 0 OFFCURVE",
"328 0 CURVE SMOOTH",
"110 0 LINE SMOOTH",
"77 0 OFFCURVE",
"60 21 OFFCURVE",
"60 43 CURVE SMOOTH",
"60 64 OFFCURVE",
"76 86 OFFCURVE",
"109 86 CURVE SMOOTH",
"165 86 LINE",
"165 1085 LINE",
"89 1085 LINE SMOOTH",
"56 1085 OFFCURVE",
"40 1106 OFFCURVE",
"40 1127 CURVE SMOOTH",
"40 1149 OFFCURVE",
"57 1171 OFFCURVE",
"90 1171 CURVE SMOOTH",
"283 1171 LINE SMOOTH",
"305 1171 OFFCURVE",
"317 1164 OFFCURVE",
"323 1147 CURVE SMOOTH",
"643 282 LINE",
"643 1085 LINE",
"564 1085 LINE SMOOTH",
"531 1085 OFFCURVE",
"515 1106 OFFCURVE",
"515 1127 CURVE SMOOTH",
"515 1149 OFFCURVE",
"532 1171 OFFCURVE",
"566 1171 CURVE SMOOTH",
"793 1171 LINE SMOOTH",
"826 1171 OFFCURVE",
"843 1149 OFFCURVE",
"843 1127 CURVE SMOOTH",
"843 1106 OFFCURVE",
"827 1085 OFFCURVE",
"795 1085 CURVE SMOOTH",
"730 1085 LINE"
);
}
);
width = 1240;
},
{
layerId = "F2E12B84-E402-48AA-89E7-06534AE23493";
width = 600;
}
);
unicode = 01CB;
},
{
glyphname = O;
lastChange = "2017-06-29 14:52:25 +0000";
layers = (
{
anchors = (
{
name = bottom;
position = "{620, 0}";
},
{
name = center;
position = "{620, 586}";
},
{
name = ogonek;
position = "{1116, 10}";
},
{
name = top;
position = "{620, 1171}";
},
{
name = topleft;
position = "{20, 1171}";
},
{
name = topright;
position = "{1141, 1291}";
}
);
layerId = "840BD324-B0A6-42B0-BD23-CB5E8C19394F";
paths = (
{
closed = 1;
nodes = (
"961 -17 OFFCURVE",
"1135 291 OFFCURVE",
"1135 582 CURVE SMOOTH",
"1135 883 OFFCURVE",
"961 1187 OFFCURVE",
"620 1187 CURVE SMOOTH",
"279 1187 OFFCURVE",
"105 883 OFFCURVE",
"105 582 CURVE SMOOTH",
"105 291 OFFCURVE",
"279 -17 OFFCURVE",
"620 -17 CURVE SMOOTH"
);
},
{
closed = 1;
nodes = (
"340 69 OFFCURVE",
"201 336 OFFCURVE",
"201 582 CURVE SMOOTH",
"201 842 OFFCURVE",
"344 1101 OFFCURVE",
"620 1101 CURVE SMOOTH",
"896 1101 OFFCURVE",
"1039 842 OFFCURVE",
"1039 582 CURVE SMOOTH",
"1039 336 OFFCURVE",
"900 69 OFFCURVE",
"620 69 CURVE SMOOTH"
);
}
);
width = 1240;
},
{
anchors = (
{
name = bottom;
position = "{620, 0}";
},
{
name = center;
position = "{620, 586}";
},
{
name = ogonek;
position = "{1116, 10}";
},
{
name = top;
position = "{620, 1171}";
},
{
name = topleft;
position = "{20, 1171}";
},
{
name = topright;
position = "{1220, 1171}";
}
);
layerId = "F2E12B84-E402-48AA-89E7-06534AE23493";
paths = (
{
closed = 1;
nodes = (
"971 -17 OFFCURVE",
"1135 301 OFFCURVE",
"1135 582 CURVE SMOOTH",
"1135 873 OFFCURVE",
"971 1187 OFFCURVE",
"620 1187 CURVE SMOOTH",
"269 1187 OFFCURVE",
"105 873 OFFCURVE",
"105 582 CURVE SMOOTH",
"105 301 OFFCURVE",
"269 -17 OFFCURVE",
"620 -17 CURVE SMOOTH"
);
},
{
closed = 1;
nodes = (
"431 188 OFFCURVE",
"342 388 OFFCURVE",
"342 583 CURVE SMOOTH",
"342 788 OFFCURVE",
"434 982 OFFCURVE",
"620 982 CURVE SMOOTH",
"806 982 OFFCURVE",
"898 788 OFFCURVE",
"898 583 CURVE SMOOTH",
"898 388 OFFCURVE",
"809 188 OFFCURVE",
"620 188 CURVE SMOOTH"
);
}
);
width = 1240;
}
);
unicode = 004F;
},
{
glyphname = Oslash;
lastChange = "2017-06-26 22:00:10 +0000";
layers = (
{
components = (
{
name = O;
}
);
layerId = "840BD324-B0A6-42B0-BD23-CB5E8C19394F";
paths = (
{
closed = 1;
nodes = (
"277 -192 OFFCURVE",
"288 -187 OFFCURVE",
"295 -172 CURVE SMOOTH",
"1033 1274 LINE SMOOTH",
"1036 1279 OFFCURVE",
"1037 1284 OFFCURVE",
"1037 1289 CURVE SMOOTH",
"1037 1308 OFFCURVE",
"1017 1321 OFFCURVE",
"999 1321 CURVE SMOOTH",
"988 1321 OFFCURVE",
"978 1316 OFFCURVE",
"972 1305 CURVE SMOOTH",
"229 -146 LINE SMOOTH",
"227 -150 OFFCURVE",
"226 -154 OFFCURVE",
"226 -158 CURVE SMOOTH",
"226 -176 OFFCURVE",
"246 -192 OFFCURVE",
"265 -192 CURVE SMOOTH"
);
}
);
width = 1240;
},
{
layerId = "F2E12B84-E402-48AA-89E7-06534AE23493";
width = 600;
}
);
unicode = 00D8;
},
{
glyphname = OE;
lastChange = "2017-06-26 22:00:10 +0000";
layers = (
{
layerId = "840BD324-B0A6-42B0-BD23-CB5E8C19394F";
paths = (
{
closed = 1;
nodes = (
"924 437 LINE SMOOTH",
"924 402 OFFCURVE",
"905 386 OFFCURVE",
"886 386 CURVE SMOOTH",
"867 386 OFFCURVE",
"848 401 OFFCURVE",
"846 429 CURVE SMOOTH",
"833 577 LINE",
"677 577 LINE",
"677 85 LINE",
"1012 85 LINE",
"1028 336 LINE SMOOTH",
"1029 360 OFFCURVE",
"1051 375 OFFCURVE",
"1072 375 CURVE SMOOTH",
"1093 375 OFFCURVE",
"1114 359 OFFCURVE",
"1114 323 CURVE SMOOTH",
"1114 53 LINE SMOOTH",
"1114 19 OFFCURVE",
"1091 0 OFFCURVE",
"1058 0 CURVE SMOOTH",
"564 0 LINE SMOOTH",
"563 0 LINE SMOOTH",
"340 0 OFFCURVE",
"118 200 OFFCURVE",
"118 582 CURVE SMOOTH",
"118 965 OFFCURVE",
"342 1172 OFFCURVE",
"566 1172 CURVE SMOOTH",
"726 1172 OFFCURVE",
"886 1171 OFFCURVE",
"1046 1171 CURVE SMOOTH",
"1079 1171 OFFCURVE",
"1102 1151 OFFCURVE",
"1102 1117 CURVE SMOOTH",
"1102 847 LINE SMOOTH",
"1102 817 OFFCURVE",
"1082 803 OFFCURVE",
"1062 803 CURVE SMOOTH",
"1042 803 OFFCURVE",
"1021 816 OFFCURVE",
"1020 841 CURVE SMOOTH",
"1006 1084 LINE",
"677 1084 LINE",
"677 654 LINE",
"833 654 LINE",
"846 787 LINE SMOOTH",
"849 817 OFFCURVE",
"868 832 OFFCURVE",
"886 832 CURVE SMOOTH",
"905 832 OFFCURVE",
"924 816 OFFCURVE",
"924 779 CURVE SMOOTH"
);
},
{
closed = 1;
nodes = (
"214 582 CURVE SMOOTH",
"214 260 OFFCURVE",
"387 82 OFFCURVE",
"561 82 CURVE SMOOTH",
"579 82 LINE",
"579 1084 LINE",
"564 1084 LINE SMOOTH",
"389 1084 OFFCURVE",
"214 913 OFFCURVE"
);
}
);
width = 1240;
},
{
layerId = "F2E12B84-E402-48AA-89E7-06534AE23493";
width = 600;
}
);
unicode = 0152;
},
{
glyphname = P;
lastChange = "2017-06-30 20:53:37 +0000";
layers = (
{
anchors = (
{
name = bottom;
position = "{620, 0}";
},
{
name = top;
position = "{620, 1171}";
}
);
layerId = "840BD324-B0A6-42B0-BD23-CB5E8C19394F";
paths = (
{
closed = 1;
nodes = (
"792 0 LINE SMOOTH",
"825 0 OFFCURVE",
"842 21 OFFCURVE",
"842 43 CURVE SMOOTH",
"842 64 OFFCURVE",
"826 86 OFFCURVE",
"793 86 CURVE SMOOTH",
"464 86 LINE",
"464 441 LINE",
"574 441 LINE SMOOTH",
"917 441 OFFCURVE",
"1112 560 OFFCURVE",
"1112 806 CURVE SMOOTH",
"1112 1054 OFFCURVE",
"904 1171 OFFCURVE",
"574 1171 CURVE SMOOTH",
"210 1171 LINE SMOOTH",
"177 1171 OFFCURVE",
"160 1149 OFFCURVE",
"160 1127 CURVE SMOOTH",
"160 1106 OFFCURVE",
"176 1085 OFFCURVE",
"209 1085 CURVE SMOOTH",
"368 1085 LINE",
"368 86 LINE",
"195 86 LINE SMOOTH",
"162 86 OFFCURVE",
"145 64 OFFCURVE",
"145 43 CURVE SMOOTH",
"145 21 OFFCURVE",
"162 0 OFFCURVE",
"196 0 CURVE SMOOTH"
);
},
{
closed = 1;
nodes = (
"464 1085 LINE",
"594 1085 LINE SMOOTH",
"814 1085 OFFCURVE",
"1016 1015 OFFCURVE",
"1016 802 CURVE SMOOTH",
"1016 606 OFFCURVE",
"824 527 OFFCURVE",
"600 527 CURVE SMOOTH",
"464 527 LINE"
);
}
);
width = 1240;
},
{
anchors = (
{
name = bottom;
position = "{620, 0}";
},
{
name = top;
position = "{620, 1171}";
}
);
layerId = "F2E12B84-E402-48AA-89E7-06534AE23493";
paths = (
{
closed = 1;
nodes = (
"782 0 LINE SMOOTH",
"835 0 OFFCURVE",
"862 36 OFFCURVE",
"862 78 CURVE SMOOTH",
"862 119 OFFCURVE",
"836 166 OFFCURVE",
"783 166 CURVE SMOOTH",
"554 166 LINE",
"554 441 LINE",
"594 441 LINE SMOOTH",
"977 441 OFFCURVE",
"1152 560 OFFCURVE",
"1152 806 CURVE SMOOTH",
"1152 1054 OFFCURVE",
"964 1171 OFFCURVE",
"594 1171 CURVE SMOOTH",
"220 1171 LINE SMOOTH",
"167 1171 OFFCURVE",
"140 1129 OFFCURVE",
"140 1087 CURVE SMOOTH",
"140 1046 OFFCURVE",
"166 1005 OFFCURVE",
"219 1005 CURVE SMOOTH",
"308 1005 LINE",
"308 166 LINE",
"215 166 LINE SMOOTH",
"162 166 OFFCURVE",
"135 119 OFFCURVE",
"135 78 CURVE SMOOTH",
"135 36 OFFCURVE",
"162 0 OFFCURVE",
"216 0 CURVE SMOOTH"
);
},
{
closed = 1;
nodes = (
"554 1005 LINE",
"624 1005 LINE SMOOTH",
"784 1005 OFFCURVE",
"906 935 OFFCURVE",
"906 802 CURVE SMOOTH",
"906 686 OFFCURVE",
"794 607 OFFCURVE",
"630 607 CURVE SMOOTH",
"554 607 LINE"
);
}
);
width = 1240;
}
);
unicode = 0050;
},
{
glyphname = Thorn;
lastChange = "2017-06-26 22:00:10 +0000";
layers = (
{
layerId = "840BD324-B0A6-42B0-BD23-CB5E8C19394F";
paths = (
{
closed = 1;
nodes = (
"961 594 CURVE SMOOTH",
"961 769 OFFCURVE",
"756 816 OFFCURVE",
"429 816 CURVE",
"429 370 LINE",
"730 370 OFFCURVE",
"961 410 OFFCURVE"
);
},
{
closed = 1;
nodes = (
"1057 594 CURVE SMOOTH",
"1057 358 OFFCURVE",
"794 288 OFFCURVE",
"429 288 CURVE",
"429 82 LINE",
"656 82 LINE SMOOTH",
"689 82 OFFCURVE",
"695 61 OFFCURVE",
"695 41 CURVE SMOOTH",
"695 20 OFFCURVE",
"688 0 OFFCURVE",
"655 0 CURVE SMOOTH",
"109 0 LINE SMOOTH",
"75 0 OFFCURVE",
"68 20 OFFCURVE",
"68 41 CURVE SMOOTH",
"68 61 OFFCURVE",
"75 82 OFFCURVE",
"108 82 CURVE SMOOTH",
"333 82 LINE",
"333 1085 LINE",
"121 1085 LINE SMOOTH",
"88 1085 OFFCURVE",
"82 1106 OFFCURVE",
"82 1127 CURVE SMOOTH",
"82 1149 OFFCURVE",
"89 1171 OFFCURVE",
"123 1171 CURVE SMOOTH",
"600 1171 LINE SMOOTH",
"627 1171 OFFCURVE",
"631 1151 OFFCURVE",
"631 1130 CURVE SMOOTH",
"631 1108 OFFCURVE",
"625 1085 OFFCURVE",
"592 1085 CURVE SMOOTH",
"429 1085 LINE",
"429 898 LINE",
"813 898 OFFCURVE",
"1057 818 OFFCURVE"
);
}
);
width = 1240;
},
{
layerId = "F2E12B84-E402-48AA-89E7-06534AE23493";
width = 600;
}
);
unicode = 00DE;
},
{
glyphname = Q;
lastChange = "2017-06-29 15:10:16 +0000";
layers = (
{
anchors = (
{
name = bottom;
position = "{620, 0}";
},
{
name = top;
position = "{620, 1171}";
}
);
layerId = "840BD324-B0A6-42B0-BD23-CB5E8C19394F";
paths = (
{
closed = 1;
nodes = (
"1036 842 OFFCURVE",
"896 1101 OFFCURVE",
"620 1101 CURVE SMOOTH",
"344 1101 OFFCURVE",
"204 842 OFFCURVE",
"204 582 CURVE SMOOTH",
"204 306 OFFCURVE",
"340 66 OFFCURVE",
"620 66 CURVE SMOOTH",
"900 66 OFFCURVE",
"1036 326 OFFCURVE",
"1036 582 CURVE SMOOTH"
);
},
{
closed = 1;
nodes = (
"280 -19 OFFCURVE",
"108 256 OFFCURVE",
"108 582 CURVE SMOOTH",
"108 883 OFFCURVE",
"279 1187 OFFCURVE",
"620 1187 CURVE SMOOTH",
"961 1187 OFFCURVE",
"1132 883 OFFCURVE",
"1132 582 CURVE SMOOTH",
"1132 286 OFFCURVE",
"967 -15 OFFCURVE",
"620 -17 CURVE SMOOTH"
);
},
{
closed = 1;
nodes = (
"204 306 LINE",
"216 322 OFFCURVE",
"281 392 OFFCURVE",
"410 392 CURVE SMOOTH",
"620 392 OFFCURVE",
"688 223 OFFCURVE",
"722 59 CURVE SMOOTH",
"742 -38 OFFCURVE",
"790 -170 OFFCURVE",
"972 -171 CURVE",
"1035 -76 OFFCURVE",
"1103 -38 OFFCURVE",
"1155 -72 CURVE SMOOTH",
"1190 -95 OFFCURVE",
"1177 -136 OFFCURVE",
"1147 -171 CURVE SMOOTH",
"1107 -218 OFFCURVE",
"1030 -253 OFFCURVE",
"970 -253 CURVE SMOOTH",
"761 -253 OFFCURVE",
"666 -101 OFFCURVE",
"637 30 CURVE SMOOTH",
"599 200 OFFCURVE",
"542 307 OFFCURVE",
"410 307 CURVE SMOOTH",
"310 307 OFFCURVE",
"259 259 OFFCURVE",
"250 240 CURVE"
);
}
);
width = 1240;
},
{
layerId = "F2E12B84-E402-48AA-89E7-06534AE23493";
width = 600;
}
);
unicode = 0051;
},
{
glyphname = R;
lastChange = "2017-06-30 20:59:55 +0000";
layers = (
{
anchors = (
{
name = bottom;
position = "{620, 0}";
},
{
name = top;
position = "{620, 1141}";
}
);
layerId = "840BD324-B0A6-42B0-BD23-CB5E8C19394F";
paths = (
{
closed = 1;
nodes = (
"588 0 LINE SMOOTH",
"622 0 OFFCURVE",
"638 21 OFFCURVE",
"638 43 CURVE SMOOTH",
"638 62 OFFCURVE",
"622 86 OFFCURVE",
"589 86 CURVE SMOOTH",
"419 86 LINE",
"419 482 LINE",
"584 482 LINE SMOOTH",
"827 482 OFFCURVE",
"1047 592 OFFCURVE",
"1047 834 CURVE SMOOTH",
"1047 1064 OFFCURVE",
"847 1171 OFFCURVE",
"537 1171 CURVE SMOOTH",
"217 1171 LINE SMOOTH",
"183 1171 OFFCURVE",
"166 1149 OFFCURVE",
"166 1127 CURVE SMOOTH",
"166 1106 OFFCURVE",
"183 1085 OFFCURVE",
"216 1085 CURVE SMOOTH",
"323 1085 LINE",
"323 86 LINE",
"188 86 LINE SMOOTH",
"155 86 OFFCURVE",
"138 62 OFFCURVE",
"138 43 CURVE SMOOTH",
"138 21 OFFCURVE",
"155 0 OFFCURVE",
"189 0 CURVE SMOOTH"
);
},
{
closed = 1;
nodes = (
"1070 0 LINE SMOOTH",
"1114 0 OFFCURVE",
"1130 21 OFFCURVE",
"1130 44 CURVE SMOOTH",
"1130 62 OFFCURVE",
"1116 86 OFFCURVE",
"1069 86 CURVE SMOOTH",
"980 86 LINE",
"726 558 LINE",
"635 536 LINE",
"895 48 LINE SMOOTH",
"906 27 OFFCURVE",
"924 0 OFFCURVE",
"950 0 CURVE SMOOTH"
);
},
{
closed = 1;
nodes = (
"419 1085 LINE",
"536 1085 LINE SMOOTH",
"774 1085 OFFCURVE",
"951 1020 OFFCURVE",
"951 827 CURVE SMOOTH",
"951 627 OFFCURVE",
"774 569 OFFCURVE",
"516 569 CURVE SMOOTH",
"419 569 LINE"
);
}
);
width = 1240;
},
{
anchors = (
{
name = bottom;
position = "{620, 0}";
},
{
name = top;
position = "{620, 1171}";
}
);
layerId = "F2E12B84-E402-48AA-89E7-06534AE23493";
paths = (
{
closed = 1;
nodes = (
"592 0 LINE SMOOTH",
"645 0 OFFCURVE",
"672 36 OFFCURVE",
"672 78 CURVE SMOOTH",
"672 119 OFFCURVE",
"646 166 OFFCURVE",
"593 166 CURVE SMOOTH",
"514 166 LINE",
"514 441 LINE",
"554 441 LINE SMOOTH",
"937 441 OFFCURVE",
"1112 560 OFFCURVE",
"1112 806 CURVE SMOOTH",
"1112 1054 OFFCURVE",
"924 1171 OFFCURVE",
"554 1171 CURVE SMOOTH",
"180 1171 LINE SMOOTH",
"127 1171 OFFCURVE",
"100 1129 OFFCURVE",
"100 1087 CURVE SMOOTH",
"100 1046 OFFCURVE",
"126 1005 OFFCURVE",
"179 1005 CURVE SMOOTH",
"268 1005 LINE",
"268 166 LINE",
"175 166 LINE SMOOTH",
"122 166 OFFCURVE",
"95 119 OFFCURVE",
"95 78 CURVE SMOOTH",
"95 36 OFFCURVE",
"122 0 OFFCURVE",
"176 0 CURVE SMOOTH"
);
},
{
closed = 1;
nodes = (
"1100 0 LINE SMOOTH",
"1154 0 OFFCURVE",
"1180 41 OFFCURVE",
"1180 84 CURVE SMOOTH",
"1180 122 OFFCURVE",
"1156 166 OFFCURVE",
"1099 166 CURVE SMOOTH",
"1010 166 LINE",
"816 558 LINE",
"595 496 LINE",
"835 48 LINE SMOOTH",
"846 27 OFFCURVE",
"864 0 OFFCURVE",
"890 0 CURVE SMOOTH"
);
},
{
closed = 1;
nodes = (
"514 1005 LINE",
"584 1005 LINE SMOOTH",
"754 1005 OFFCURVE",
"866 925 OFFCURVE",
"866 802 CURVE SMOOTH",
"866 696 OFFCURVE",
"764 607 OFFCURVE",
"590 607 CURVE SMOOTH",
"514 607 LINE"
);
}
);
width = 1240;
}
);
unicode = 0052;
},
{
glyphname = S;
lastChange = "2017-06-26 22:00:10 +0000";
layers = (
{
anchors = (
{
name = bottom;
position = "{620, 0}";
},
{
name = top;
position = "{630, 1171}";
}
);
layerId = "840BD324-B0A6-42B0-BD23-CB5E8C19394F";
paths = (
{
closed = 1;
nodes = (
"309 -17 OFFCURVE",
"323 6 OFFCURVE",
"317 46 CURVE SMOOTH",
"299 172 LINE",
"348 86 OFFCURVE",
"476 -17 OFFCURVE",
"659 -17 CURVE SMOOTH",
"871 -17 OFFCURVE",
"1037 71 OFFCURVE",
"1037 278 CURVE SMOOTH",
"1037 496 OFFCURVE",
"840 587 OFFCURVE",
"679 636 CURVE SMOOTH",
"491 693 OFFCURVE",
"313 743 OFFCURVE",
"313 916 CURVE SMOOTH",
"313 1038 OFFCURVE",
"435 1101 OFFCURVE",
"586 1101 CURVE SMOOTH",
"771 1101 OFFCURVE",
"920 969 OFFCURVE",
"928 868 CURVE SMOOTH",
"931 832 OFFCURVE",
"946 811 OFFCURVE",
"963 811 CURVE SMOOTH",
"981 811 OFFCURVE",
"1001 828 OFFCURVE",
"999 864 CURVE SMOOTH",
"987 1117 LINE SMOOTH",
"985 1169 OFFCURVE",
"971 1187 OFFCURVE",
"942 1187 CURVE SMOOTH",
"915 1187 OFFCURVE",
"892 1167 OFFCURVE",
"898 1120 CURVE SMOOTH",
"911 1018 LINE",
"869 1099 OFFCURVE",
"764 1187 OFFCURVE",
"586 1187 CURVE SMOOTH",
"374 1187 OFFCURVE",
"217 1091 OFFCURVE",
"217 916 CURVE SMOOTH",
"217 693 OFFCURVE",
"430 620 OFFCURVE",
"606 564 CURVE SMOOTH",
"751 518 OFFCURVE",
"941 445 OFFCURVE",
"941 274 CURVE SMOOTH",
"941 133 OFFCURVE",
"808 69 OFFCURVE",
"662 69 CURVE SMOOTH",
"461 69 OFFCURVE",
"293 223 OFFCURVE",
"293 329 CURVE SMOOTH",
"293 362 OFFCURVE",
"275 378 OFFCURVE",
"257 378 CURVE SMOOTH",
"239 378 OFFCURVE",
"222 363 OFFCURVE",
"223 331 CURVE SMOOTH",
"230 46 LINE SMOOTH",
"231 5 OFFCURVE",
"246 -17 OFFCURVE",
"277 -17 CURVE SMOOTH"
);
}
);
width = 1240;
},
{
layerId = "F2E12B84-E402-48AA-89E7-06534AE23493";
width = 600;
}
);
unicode = 0053;
},
{
glyphname = Germandbls;
lastChange = "2017-06-29 15:11:55 +0000";
layers = (
{
layerId = "840BD324-B0A6-42B0-BD23-CB5E8C19394F";
paths = (
{
closed = 1;
nodes = (
"928 645 OFFCURVE",
"1072 509 OFFCURVE",
"1072 323 CURVE SMOOTH",
"1072 137 OFFCURVE",
"955 0 OFFCURVE",
"769 0 CURVE SMOOTH",
"631 0 OFFCURVE",
"516 99 OFFCURVE",
"516 171 CURVE SMOOTH",
"516 193 OFFCURVE",
"532 211 OFFCURVE",
"555 211 CURVE SMOOTH",
"583 211 OFFCURVE",
"597 192 OFFCURVE",
"615 163 CURVE SMOOTH",
"646 113 OFFCURVE",
"716 85 OFFCURVE",
"769 85 CURVE SMOOTH",
"896 85 OFFCURVE",
"974 192 OFFCURVE",
"974 325 CURVE SMOOTH",
"974 470 OFFCURVE",
"852 569 OFFCURVE",
"679 606 CURVE SMOOTH",
"647 613 OFFCURVE",
"626 631 OFFCURVE",
"626 652 CURVE SMOOTH",
"626 672 OFFCURVE",
"642 691 OFFCURVE",
"661 707 CURVE SMOOTH",
"764 794 OFFCURVE",
"940 988 OFFCURVE",
"950 1101 CURVE",
"861 1101 OFFCURVE",
"773 1101 OFFCURVE",
"631 1101 CURVE SMOOTH",
"480 1101 OFFCURVE",
"396 979 OFFCURVE",
"396 790 CURVE",
"396 40 LINE",
"396 15 OFFCURVE",
"377 0 OFFCURVE",
"345 0 CURVE SMOOTH",
"175 0 LINE SMOOTH",
"143 0 OFFCURVE",
"124 19 OFFCURVE",
"124 40 CURVE SMOOTH",
"124 67 OFFCURVE",
"139 86 OFFCURVE",
"173 86 CURVE SMOOTH",
"304 86 LINE",
"304 790 LINE SMOOTH",
"304 1032 OFFCURVE",
"422 1188 OFFCURVE",
"631 1188 CURVE SMOOTH",
"786 1188 OFFCURVE",
"895 1188 OFFCURVE",
"1005 1188 CURVE SMOOTH",
"1037 1188 OFFCURVE",
"1055 1167 OFFCURVE",
"1050 1134 CURVE SMOOTH",
"1028 980 OFFCURVE",
"897 803 OFFCURVE",
"742 665 CURVE"
);
}
);
width = 1240;
},
{
layerId = "F2E12B84-E402-48AA-89E7-06534AE23493";
width = 600;
}
);
unicode = 1E9E;
},
{
glyphname = Schwa;
lastChange = "2017-06-26 22:00:10 +0000";
layers = (
{
anchors = (
{
name = bottom;
position = "{620, 397}";
},
{
name = ogonek;
position = "{124, 1161}";
},
{
name = top;
position = "{620, 1171}";
}
);
layerId = "840BD324-B0A6-42B0-BD23-CB5E8C19394F";
paths = (
{
closed = 1;
nodes = (
"371 1188 OFFCURVE",
"232 1081 OFFCURVE",
"152 987 CURVE SMOOTH",
"141 974 OFFCURVE",
"135 958 OFFCURVE",
"135 944 CURVE SMOOTH",
"135 920 OFFCURVE",
"147 896 OFFCURVE",
"175 896 CURVE SMOOTH",
"187 896 OFFCURVE",
"202 900 OFFCURVE",
"215 914 CURVE SMOOTH",
"298 1003 OFFCURVE",
"390 1102 OFFCURVE",
"583 1102 CURVE SMOOTH",
"902 1102 OFFCURVE",
"1042 826 OFFCURVE",
"1042 594 CURVE SMOOTH",
"1042 312 OFFCURVE",
"904 74 OFFCURVE",
"604 74 CURVE SMOOTH",
"327 74 OFFCURVE",
"215 310 OFFCURVE",
"209 531 CURVE",
"1052 535 LINE",
"1052 624 LINE",
"191 619 LINE SMOOTH",
"142 619 OFFCURVE",
"115 578 OFFCURVE",
"115 536 CURVE SMOOTH",
"115 248 OFFCURVE",
"300 -12 OFFCURVE",
"606 -12 CURVE SMOOTH",
"947 -12 OFFCURVE",
"1138 248 OFFCURVE",
"1138 594 CURVE SMOOTH",
"1138 880 OFFCURVE",
"952 1188 OFFCURVE",
"583 1188 CURVE SMOOTH"
);
}
);
width = 1240;
},
{
layerId = "F2E12B84-E402-48AA-89E7-06534AE23493";
width = 600;
}
);
unicode = 018F;
},
{
glyphname = T;
lastChange = "2017-06-30 19:40:48 +0000";
layers = (
{
anchors = (
{
name = bottom;
position = "{620, 0}";
},
{
name = center;
position = "{620, 586}";
},
{
name = top;
position = "{620, 1171}";
}
);
layerId = "840BD324-B0A6-42B0-BD23-CB5E8C19394F";
paths = (
{
closed = 1;
nodes = (
"907 0 LINE SMOOTH",
"940 0 OFFCURVE",
"958 22 OFFCURVE",
"958 44 CURVE SMOOTH",
"958 65 OFFCURVE",
"941 86 OFFCURVE",
"909 86 CURVE SMOOTH",
"667 86 LINE",
"667 1085 LINE",
"999 1085 LINE",
"1029 814 LINE SMOOTH",
"1032 786 OFFCURVE",
"1052 771 OFFCURVE",
"1073 771 CURVE SMOOTH",
"1096 771 OFFCURVE",
"1121 788 OFFCURVE",
"1119 823 CURVE SMOOTH",
"1099 1117 LINE SMOOTH",
"1097 1152 OFFCURVE",
"1088 1171 OFFCURVE",
"1059 1171 CURVE SMOOTH",
"183 1171 LINE SMOOTH",
"152 1171 OFFCURVE",
"143 1153 OFFCURVE",
"141 1117 CURVE SMOOTH",
"121 823 LINE SMOOTH",
"119 788 OFFCURVE",
"146 769 OFFCURVE",
"170 769 CURVE SMOOTH",
"190 769 OFFCURVE",
"207 783 OFFCURVE",
"211 814 CURVE SMOOTH",
"243 1085 LINE",
"571 1085 LINE",
"571 86 LINE",
"329 86 LINE SMOOTH",
"296 86 OFFCURVE",
"279 65 OFFCURVE",
"279 44 CURVE SMOOTH",
"279 22 OFFCURVE",
"297 0 OFFCURVE",
"331 0 CURVE SMOOTH"
);
}
);
width = 1240;
},
{
anchors = (
{
name = bottom;
position = "{620, 0}";
},
{
name = center;
position = "{620, 586}";
},
{
name = top;
position = "{620, 1171}";
}
);
layerId = "F2E12B84-E402-48AA-89E7-06534AE23493";
paths = (
{
closed = 1;
nodes = (
"907 0 LINE SMOOTH",
"950 0 OFFCURVE",
"978 47 OFFCURVE",
"978 89 CURVE SMOOTH",
"978 130 OFFCURVE",
"951 176 OFFCURVE",
"909 176 CURVE SMOOTH",
"747 176 LINE",
"747 994 LINE",
"959 994 LINE",
"989 804 LINE SMOOTH",
"995 766 OFFCURVE",
"1032 741 OFFCURVE",
"1073 741 CURVE SMOOTH",
"1116 741 OFFCURVE",
"1152 768 OFFCURVE",
"1149 813 CURVE SMOOTH",
"1129 1117 LINE SMOOTH",
"1127 1152 OFFCURVE",
"1118 1171 OFFCURVE",
"1089 1171 CURVE SMOOTH",
"153 1171 LINE SMOOTH",
"122 1171 OFFCURVE",
"113 1153 OFFCURVE",
"111 1117 CURVE SMOOTH",
"91 813 LINE SMOOTH",
"88 768 OFFCURVE",
"126 739 OFFCURVE",
"170 739 CURVE SMOOTH",
"210 739 OFFCURVE",
"244 763 OFFCURVE",
"251 804 CURVE SMOOTH",
"283 994 LINE",
"491 994 LINE",
"491 176 LINE",
"319 176 LINE SMOOTH",
"276 176 OFFCURVE",
"249 130 OFFCURVE",
"249 89 CURVE SMOOTH",
"249 47 OFFCURVE",
"277 0 OFFCURVE",
"321 0 CURVE SMOOTH"
);
}
);
width = 1240;
}
);
unicode = 0054;
},
{
glyphname = Tbar;
lastChange = "2017-06-26 22:00:10 +0000";
layers = (
{
components = (
{
name = T;
}
);
layerId = "840BD324-B0A6-42B0-BD23-CB5E8C19394F";
paths = (
{
closed = 1;
nodes = (
"837 572 LINE SMOOTH",
"870 572 OFFCURVE",
"878 592 OFFCURVE",
"878 611 CURVE SMOOTH",
"878 630 OFFCURVE",
"872 648 OFFCURVE",
"839 648 CURVE SMOOTH",
"400 648 LINE SMOOTH",
"365 648 OFFCURVE",
"358 630 OFFCURVE",
"358 611 CURVE SMOOTH",
"358 592 OFFCURVE",
"367 572 OFFCURVE",
"404 572 CURVE SMOOTH"
);
}
);
width = 1240;
},
{
layerId = "F2E12B84-E402-48AA-89E7-06534AE23493";
width = 600;
}
);
unicode = 0166;
},
{
glyphname = U;
lastChange = "2017-06-30 22:00:54 +0000";
layers = (
{
anchors = (
{
name = bottom;
position = "{620, 0}";
},
{
name = ogonek;
position = "{1116, 10}";
},
{
name = top;
position = "{650, 1171}";
},
{
name = topright;
position = "{1260, 1302}";
}
);
layerId = "840BD324-B0A6-42B0-BD23-CB5E8C19394F";
paths = (
{
closed = 1;
nodes = (
"864 -17 OFFCURVE",
"1027 157 OFFCURVE",
"1027 411 CURVE SMOOTH",
"1027 1085 LINE",
"1170 1085 LINE SMOOTH",
"1196 1085 OFFCURVE",
"1214 1106 OFFCURVE",
"1214 1127 CURVE SMOOTH",
"1214 1149 OFFCURVE",
"1196 1171 OFFCURVE",
"1169 1171 CURVE SMOOTH",
"811 1171 LINE SMOOTH",
"777 1171 OFFCURVE",
"760 1149 OFFCURVE",
"760 1127 CURVE SMOOTH",
"760 1106 OFFCURVE",
"777 1085 OFFCURVE",
"810 1085 CURVE SMOOTH",
"931 1085 LINE",
"931 411 LINE SMOOTH",
"931 211 OFFCURVE",
"811 69 OFFCURVE",
"625 69 CURVE SMOOTH",
"426 69 OFFCURVE",
"316 195 OFFCURVE",
"316 413 CURVE SMOOTH",
"316 1085 LINE",
"478 1085 LINE SMOOTH",
"511 1085 OFFCURVE",
"527 1106 OFFCURVE",
"527 1127 CURVE SMOOTH",
"527 1149 OFFCURVE",
"510 1171 OFFCURVE",
"477 1171 CURVE SMOOTH",
"76 1171 LINE SMOOTH",
"43 1171 OFFCURVE",
"26 1149 OFFCURVE",
"26 1127 CURVE SMOOTH",
"26 1106 OFFCURVE",
"42 1085 OFFCURVE",
"75 1085 CURVE SMOOTH",
"220 1085 LINE",
"220 413 LINE SMOOTH",
"220 142 OFFCURVE",
"386 -17 OFFCURVE",
"625 -17 CURVE SMOOTH"
);
}
);
width = 1240;
},
{
anchors = (
{
name = bottom;
position = "{620, 0}";
},
{
name = ogonek;
position = "{1116, 10}";
},
{
name = top;
position = "{620, 1171}";
},
{
name = topright;
position = "{1220, 1171}";
}
);
layerId = "F2E12B84-E402-48AA-89E7-06534AE23493";
paths = (
{
closed = 1;
nodes = (
"931 -17 OFFCURVE",
"1087 157 OFFCURVE",
"1087 411 CURVE SMOOTH",
"1087 995 LINE",
"1140 995 LINE SMOOTH",
"1186 995 OFFCURVE",
"1214 1041 OFFCURVE",
"1214 1082 CURVE SMOOTH",
"1214 1124 OFFCURVE",
"1186 1171 OFFCURVE",
"1139 1171 CURVE SMOOTH",
"801 1171 LINE SMOOTH",
"747 1171 OFFCURVE",
"720 1124 OFFCURVE",
"720 1082 CURVE SMOOTH",
"720 1041 OFFCURVE",
"747 995 OFFCURVE",
"800 995 CURVE SMOOTH",
"841 995 LINE",
"841 431 LINE SMOOTH",
"841 305 OFFCURVE",
"778 179 OFFCURVE",
"637 179 CURVE SMOOTH",
"483 179 OFFCURVE",
"406 305 OFFCURVE",
"406 433 CURVE SMOOTH",
"406 995 LINE",
"468 995 LINE SMOOTH",
"521 995 OFFCURVE",
"547 1041 OFFCURVE",
"547 1082 CURVE SMOOTH",
"547 1124 OFFCURVE",
"520 1171 OFFCURVE",
"467 1171 CURVE SMOOTH",
"106 1171 LINE SMOOTH",
"53 1171 OFFCURVE",
"26 1124 OFFCURVE",
"26 1082 CURVE SMOOTH",
"26 1041 OFFCURVE",
"52 995 OFFCURVE",
"105 995 CURVE SMOOTH",
"160 995 LINE",
"160 413 LINE SMOOTH",
"160 142 OFFCURVE",
"353 -17 OFFCURVE",
"632 -17 CURVE SMOOTH"
);
}
);
width = 1240;
}
);
unicode = 0055;
},
{
glyphname = Uhorn;
lastChange = "2017-06-26 22:00:10 +0000";
layers = (
{
anchors = (
{
name = bottom;
position = "{620, 0}";
},
{
name = ogonek;
position = "{1116, 10}";
},
{
name = top;
position = "{650, 1171}";
},
{
name = topright;
position = "{1240, 1302}";
}
);
components = (
{
name = horncomb;
transform = "{1, 0, 0, 1, 411, 179}";
}
);
layerId = "840BD324-B0A6-42B0-BD23-CB5E8C19394F";
paths = (
{
closed = 1;
nodes = (
"844 -17 OFFCURVE",
"1007 157 OFFCURVE",
"1007 411 CURVE SMOOTH",
"1007 1085 LINE",
"1009 1171 LINE",
"791 1171 LINE SMOOTH",
"757 1171 OFFCURVE",
"740 1149 OFFCURVE",
"740 1127 CURVE SMOOTH",
"740 1106 OFFCURVE",
"757 1085 OFFCURVE",
"790 1085 CURVE SMOOTH",
"911 1085 LINE",
"911 411 LINE SMOOTH",
"911 211 OFFCURVE",
"791 69 OFFCURVE",
"625 69 CURVE SMOOTH",
"446 69 OFFCURVE",
"336 195 OFFCURVE",
"336 413 CURVE SMOOTH",
"336 1085 LINE",
"498 1085 LINE SMOOTH",
"531 1085 OFFCURVE",
"547 1106 OFFCURVE",
"547 1127 CURVE SMOOTH",
"547 1149 OFFCURVE",
"530 1171 OFFCURVE",
"497 1171 CURVE SMOOTH",
"96 1171 LINE SMOOTH",
"63 1171 OFFCURVE",
"46 1149 OFFCURVE",
"46 1127 CURVE SMOOTH",
"46 1106 OFFCURVE",
"62 1085 OFFCURVE",
"95 1085 CURVE SMOOTH",
"240 1085 LINE",
"240 413 LINE SMOOTH",
"240 142 OFFCURVE",
"406 -17 OFFCURVE",
"625 -17 CURVE SMOOTH"
);
}
);
width = 1240;
},
{
layerId = "F2E12B84-E402-48AA-89E7-06534AE23493";
width = 600;
}
);
unicode = 01AF;
},
{
glyphname = V;
lastChange = "2017-06-26 22:00:10 +0000";
layers = (
{
anchors = (
{
name = bottom;
position = "{620, 0}";
},
{
name = top;
position = "{620, 1171}";
}
);
layerId = "840BD324-B0A6-42B0-BD23-CB5E8C19394F";
paths = (
{
closed = 1;
nodes = (
"1129 1171 LINE SMOOTH",
"1162 1171 OFFCURVE",
"1178 1150 OFFCURVE",
"1178 1128 CURVE SMOOTH",
"1178 1107 OFFCURVE",
"1163 1085 OFFCURVE",
"1130 1085 CURVE SMOOTH",
"1044 1085 LINE",
"698 39 LINE",
"682 3 OFFCURVE",
"670 -17 OFFCURVE",
"634 -17 CURVE SMOOTH",
"598 -17 OFFCURVE",
"581 6 OFFCURVE",
"570 39 CURVE SMOOTH",
"208 1085 LINE",
"104 1085 LINE SMOOTH",
"72 1085 OFFCURVE",
"56 1106 OFFCURVE",
"56 1127 CURVE SMOOTH",
"56 1149 OFFCURVE",
"73 1171 OFFCURVE",
"106 1171 CURVE SMOOTH",
"446 1171 LINE SMOOTH",
"479 1171 OFFCURVE",
"496 1150 OFFCURVE",
"496 1128 CURVE SMOOTH",
"496 1107 OFFCURVE",
"480 1085 OFFCURVE",
"447 1085 CURVE SMOOTH",
"312 1085 LINE",
"639 126 LINE",
"944 1085 LINE",
"824 1085 LINE SMOOTH",
"791 1085 OFFCURVE",
"774 1107 OFFCURVE",
"774 1128 CURVE SMOOTH",
"774 1150 OFFCURVE",
"791 1171 OFFCURVE",
"825 1171 CURVE SMOOTH"
);
}
);
width = 1240;
},
{
layerId = "F2E12B84-E402-48AA-89E7-06534AE23493";
width = 600;
}
);
unicode = 0056;
},
{
glyphname = W;
lastChange = "2017-06-26 22:00:10 +0000";
layers = (
{
anchors = (
{
name = bottom;
position = "{620, 0}";
},
{
name = top;
position = "{640, 1171}";
}
);
layerId = "840BD324-B0A6-42B0-BD23-CB5E8C19394F";
paths = (
{
closed = 1;
nodes = (
"867 1085 LINE SMOOTH",
"834 1085 OFFCURVE",
"817 1107 OFFCURVE",
"817 1129 CURVE SMOOTH",
"817 1150 OFFCURVE",
"833 1171 OFFCURVE",
"866 1171 CURVE SMOOTH",
"1145 1171 LINE SMOOTH",
"1178 1171 OFFCURVE",
"1195 1150 OFFCURVE",
"1195 1129 CURVE SMOOTH",
"1195 1107 OFFCURVE",
"1178 1085 OFFCURVE",
"1144 1085 CURVE SMOOTH",
"1071 1085 LINE",
"911 27 LINE SMOOTH",
"906 -3 OFFCURVE",
"883 -17 OFFCURVE",
"858 -17 CURVE SMOOTH",
"837 -17 OFFCURVE",
"810 1 OFFCURVE",
"802 35 CURVE SMOOTH",
"635 716 LINE",
"452 27 LINE SMOOTH",
"444 -3 OFFCURVE",
"420 -17 OFFCURVE",
"398 -17 CURVE SMOOTH",
"374 -17 OFFCURVE",
"349 1 OFFCURVE",
"345 35 CURVE SMOOTH",
"182 1085 LINE",
"95 1085 LINE SMOOTH",
"62 1085 OFFCURVE",
"45 1107 OFFCURVE",
"45 1129 CURVE SMOOTH",
"45 1150 OFFCURVE",
"61 1171 OFFCURVE",
"94 1171 CURVE SMOOTH",
"396 1171 LINE SMOOTH",
"429 1171 OFFCURVE",
"445 1150 OFFCURVE",
"445 1129 CURVE SMOOTH",
"445 1107 OFFCURVE",
"428 1085 OFFCURVE",
"394 1085 CURVE SMOOTH",
"280 1085 LINE",
"413 172 LINE",
"593 845 LINE SMOOTH",
"599 869 OFFCURVE",
"621 881 OFFCURVE",
"640 881 CURVE SMOOTH",
"659 881 OFFCURVE",
"679 869 OFFCURVE",
"685 845 CURVE SMOOTH",
"853 171 LINE",
"974 1085 LINE"
);
}
);
width = 1240;
},
{
layerId = "F2E12B84-E402-48AA-89E7-06534AE23493";
width = 600;
}
);
unicode = 0057;
},
{
glyphname = X;
lastChange = "2017-06-26 22:00:10 +0000";
layers = (
{
anchors = (
{
name = bottom;
position = "{620, 0}";
},
{
name = top;
position = "{620, 1171}";
}
);
layerId = "840BD324-B0A6-42B0-BD23-CB5E8C19394F";
paths = (
{
closed = 1;
nodes = (
"242 1085 LINE",
"150 1085 LINE SMOOTH",
"117 1085 OFFCURVE",
"101 1106 OFFCURVE",
"101 1127 CURVE SMOOTH",
"101 1149 OFFCURVE",
"118 1171 OFFCURVE",
"151 1171 CURVE SMOOTH",
"497 1171 LINE SMOOTH",
"530 1171 OFFCURVE",
"547 1149 OFFCURVE",
"547 1127 CURVE SMOOTH",
"547 1106 OFFCURVE",
"531 1085 OFFCURVE",
"498 1085 CURVE SMOOTH",
"350 1085 LINE",
"644 651 LINE",
"665 626 LINE",
"1024 86 LINE",
"1097 86 LINE SMOOTH",
"1130 86 OFFCURVE",
"1146 64 OFFCURVE",
"1146 44 CURVE SMOOTH",
"1146 23 OFFCURVE",
"1129 0 OFFCURVE",
"1095 0 CURVE SMOOTH",
"763 0 LINE SMOOTH",
"730 0 OFFCURVE",
"713 22 OFFCURVE",
"713 43 CURVE SMOOTH",
"713 67 OFFCURVE",
"729 86 OFFCURVE",
"762 86 CURVE SMOOTH",
"916 86 LINE",
"609 556 LINE",
"591 578 LINE"
);
},
{
closed = 1;
nodes = (
"912 1085 LINE",
"801 1085 LINE SMOOTH",
"768 1085 OFFCURVE",
"752 1106 OFFCURVE",
"752 1127 CURVE SMOOTH",
"752 1149 OFFCURVE",
"769 1171 OFFCURVE",
"802 1171 CURVE SMOOTH",
"1101 1171 LINE SMOOTH",
"1134 1171 OFFCURVE",
"1151 1149 OFFCURVE",
"1151 1127 CURVE SMOOTH",
"1151 1106 OFFCURVE",
"1135 1085 OFFCURVE",
"1102 1085 CURVE SMOOTH",
"1019 1085 LINE",
"665 575 LINE",
"646 554 LINE",
"330 86 LINE",
"478 86 LINE SMOOTH",
"511 86 OFFCURVE",
"527 67 OFFCURVE",
"527 43 CURVE SMOOTH",
"527 22 OFFCURVE",
"510 0 OFFCURVE",
"477 0 CURVE SMOOTH",
"139 0 LINE SMOOTH",
"106 0 OFFCURVE",
"89 22 OFFCURVE",
"89 43 CURVE SMOOTH",
"89 67 OFFCURVE",
"105 86 OFFCURVE",
"138 86 CURVE SMOOTH",
"219 86 LINE",
"592 630 LINE",
"613 651 LINE"
);
}
);
width = 1240;
},
{
layerId = "F2E12B84-E402-48AA-89E7-06534AE23493";
width = 600;
}
);
unicode = 0058;
},
{
glyphname = Y;
lastChange = "2017-06-26 22:00:10 +0000";
layers = (
{
anchors = (
{
name = bottom;
position = "{620, 0}";
},
{
name = top;
position = "{640, 1171}";
},
{
name = topleft;
position = "{20, 1171}";
}
);
layerId = "840BD324-B0A6-42B0-BD23-CB5E8C19394F";
paths = (
{
closed = 1;
nodes = (
"1110 1171 LINE SMOOTH",
"1144 1171 OFFCURVE",
"1161 1146 OFFCURVE",
"1161 1127 CURVE SMOOTH",
"1161 1108 OFFCURVE",
"1145 1085 OFFCURVE",
"1112 1085 CURVE SMOOTH",
"1007 1085 LINE",
"674 498 LINE",
"674 86 LINE",
"906 86 LINE SMOOTH",
"938 86 OFFCURVE",
"954 65 OFFCURVE",
"954 44 CURVE SMOOTH",
"954 22 OFFCURVE",
"937 0 OFFCURVE",
"904 0 CURVE SMOOTH",
"348 0 LINE SMOOTH",
"314 0 OFFCURVE",
"296 22 OFFCURVE",
"296 44 CURVE SMOOTH",
"296 65 OFFCURVE",
"313 86 OFFCURVE",
"346 86 CURVE SMOOTH",
"578 86 LINE",
"578 503 LINE",
"233 1085 LINE",
"129 1085 LINE SMOOTH",
"96 1085 OFFCURVE",
"79 1109 OFFCURVE",
"79 1128 CURVE SMOOTH",
"79 1147 OFFCURVE",
"97 1171 OFFCURVE",
"130 1171 CURVE SMOOTH",
"480 1171 LINE SMOOTH",
"514 1171 OFFCURVE",
"531 1147 OFFCURVE",
"531 1128 CURVE SMOOTH",
"531 1109 OFFCURVE",
"514 1085 OFFCURVE",
"481 1085 CURVE SMOOTH",
"345 1085 LINE",
"631 583 LINE",
"909 1085 LINE",
"793 1085 LINE SMOOTH",
"760 1085 OFFCURVE",
"743 1109 OFFCURVE",
"743 1128 CURVE SMOOTH",
"743 1147 OFFCURVE",
"761 1171 OFFCURVE",
"794 1171 CURVE SMOOTH"
);
}
);
width = 1240;
},
{
layerId = "F2E12B84-E402-48AA-89E7-06534AE23493";
width = 600;
}
);
unicode = 0059;
},
{
glyphname = Z;
lastChange = "2017-06-26 22:00:10 +0000";
layers = (
{
anchors = (
{
name = bottom;
position = "{620, 0}";
},
{
name = top;
position = "{620, 1171}";
}
);
layerId = "840BD324-B0A6-42B0-BD23-CB5E8C19394F";
paths = (
{
closed = 1;
nodes = (
"217 757 OFFCURVE",
"190 774 OFFCURVE",
"192 806 CURVE SMOOTH",
"212 1116 LINE",
"213 1144 OFFCURVE",
"229 1171 OFFCURVE",
"280 1171 CURVE SMOOTH",
"991 1171 LINE SMOOTH",
"1023 1171 OFFCURVE",
"1040 1144 OFFCURVE",
"1040 1116 CURVE SMOOTH",
"1040 1104 OFFCURVE",
"1038 1092 OFFCURVE",
"1030 1081 CURVE SMOOTH",
"321 86 LINE",
"931 86 LINE",
"961 384 LINE",
"963 416 OFFCURVE",
"989 435 OFFCURVE",
"1012 435 CURVE SMOOTH",
"1033 435 OFFCURVE",
"1053 420 OFFCURVE",
"1053 385 CURVE",
"1033 53 LINE SMOOTH",
"1031 19 OFFCURVE",
"1011 0 OFFCURVE",
"982 0 CURVE SMOOTH",
"229 0 LINE SMOOTH",
"190 0 OFFCURVE",
"177 14 OFFCURVE",
"177 31 CURVE SMOOTH",
"177 53 OFFCURVE",
"195 81 OFFCURVE",
"205 95 CURVE SMOOTH",
"926 1085 LINE",
"321 1085 LINE",
"286 797 LINE SMOOTH",
"283 770 OFFCURVE",
"264 757 OFFCURVE",
"242 757 CURVE SMOOTH"
);
}
);
width = 1240;
},
{
layerId = "F2E12B84-E402-48AA-89E7-06534AE23493";
width = 600;
}
);
unicode = 005A;
},
{
glyphname = a;
lastChange = "2017-06-29 18:00:05 +0000";
layers = (
{
anchors = (
{
name = bottom;
position = "{640, 0}";
},
{
name = ogonek;
position = "{1116, 10}";
},
{
name = top;
position = "{590, 774}";
}
);
layerId = "840BD324-B0A6-42B0-BD23-CB5E8C19394F";
paths = (
{
closed = 1;
nodes = (
"637 -16 OFFCURVE",
"760 44 OFFCURVE",
"821 113 CURVE",
"846 16 OFFCURVE",
"898 -7 OFFCURVE",
"965 -7 CURVE SMOOTH",
"1035 -7 OFFCURVE",
"1063 11 OFFCURVE",
"1091 37 CURVE SMOOTH",
"1106 51 OFFCURVE",
"1118 73 OFFCURVE",
"1118 90 CURVE SMOOTH",
"1118 116 OFFCURVE",
"1103 133 OFFCURVE",
"1078 133 CURVE SMOOTH",
"1057 133 OFFCURVE",
"1042 113 OFFCURVE",
"1032 102 CURVE SMOOTH",
"1021 90 OFFCURVE",
"1004 72 OFFCURVE",
"973 72 CURVE SMOOTH",
"945 72 OFFCURVE",
"910 93 OFFCURVE",
"910 162 CURVE SMOOTH",
"910 444 LINE SMOOTH",
"910 644 OFFCURVE",
"849 813 OFFCURVE",
"612 813 CURVE SMOOTH",
"405 813 OFFCURVE",
"264 725 OFFCURVE",
"264 603 CURVE SMOOTH",
"264 563 OFFCURVE",
"283 531 OFFCURVE",
"324 531 CURVE SMOOTH",
"372 531 OFFCURVE",
"385 593 OFFCURVE",
"390 686 CURVE",
"461 718 OFFCURVE",
"527 731 OFFCURVE",
"611 731 CURVE SMOOTH",
"756 731 OFFCURVE",
"814 623 OFFCURVE",
"814 484 CURVE",
"547 464 OFFCURVE",
"253 455 OFFCURVE",
"253 210 CURVE SMOOTH",
"253 74 OFFCURVE",
"340 -16 OFFCURVE",
"491 -16 CURVE SMOOTH"
);
},
{
closed = 1;
nodes = (
"417 72 OFFCURVE",
"350 120 OFFCURVE",
"350 210 CURVE SMOOTH",
"350 364 OFFCURVE",
"525 373 OFFCURVE",
"814 401 CURVE",
"814 204 LINE",
"742 128 OFFCURVE",
"621 72 OFFCURVE",
"502 72 CURVE SMOOTH"
);
}
);
width = 1240;
},
{
anchors = (
{
name = bottom;
position = "{620, 0}";
},
{
name = ogonek;
position = "{1116, 10}";
},
{
name = top;
position = "{580, 774}";
}
);
layerId = "F2E12B84-E402-48AA-89E7-06534AE23493";
paths = (
{
closed = 1;
nodes = (
"617 -16 OFFCURVE",
"710 44 OFFCURVE",
"745 93 CURVE",
"797 22 OFFCURVE",
"874 -16 OFFCURVE",
"975 -16 CURVE SMOOTH",
"1060 -16 OFFCURVE",
"1109 8 OFFCURVE",
"1148 50 CURVE SMOOTH",
"1166 69 OFFCURVE",
"1184 94 OFFCURVE",
"1184 135 CURVE SMOOTH",
"1184 169 OFFCURVE",
"1157 197 OFFCURVE",
"1124 197 CURVE SMOOTH",
"1096 197 OFFCURVE",
"1078 182 OFFCURVE",
"1068 165 CURVE SMOOTH",
"1058 148 OFFCURVE",
"1041 122 OFFCURVE",
"1011 122 CURVE SMOOTH",
"981 122 OFFCURVE",
"969 163 OFFCURVE",
"968 212 CURVE SMOOTH",
"963 494 LINE SMOOTH",
"959 724 OFFCURVE",
"799 813 OFFCURVE",
"572 813 CURVE SMOOTH",
"305 813 OFFCURVE",
"184 701 OFFCURVE",
"184 573 CURVE SMOOTH",
"184 503 OFFCURVE",
"237 474 OFFCURVE",
"303 474 CURVE SMOOTH",
"366 474 OFFCURVE",
"397 545 OFFCURVE",
"401 630 CURVE",
"418 643 OFFCURVE",
"484 657 OFFCURVE",
"542 657 CURVE SMOOTH",
"679 657 OFFCURVE",
"718 565 OFFCURVE",
"718 490 CURVE",
"450 445 OFFCURVE",
"192 415 OFFCURVE",
"186 200 CURVE SMOOTH",
"182 64 OFFCURVE",
"293 -16 OFFCURVE",
"481 -16 CURVE SMOOTH"
);
},
{
closed = 1;
nodes = (
"479 153 OFFCURVE",
"440 183 OFFCURVE",
"440 226 CURVE SMOOTH",
"440 294 OFFCURVE",
"585 330 OFFCURVE",
"718 355 CURVE",
"718 210 LINE",
"686 194 OFFCURVE",
"631 153 OFFCURVE",
"541 153 CURVE SMOOTH"
);
}
);
width = 1240;
}
);
unicode = 0061;
},
{
glyphname = ae;
lastChange = "2017-06-26 21:39:00 +0000";
layers = (
{
layerId = "840BD324-B0A6-42B0-BD23-CB5E8C19394F";
paths = (
{
closed = 1;
nodes = (
"572 162 OFFCURVE",
"570 386 CURVE SMOOTH",
"569 496 LINE SMOOTH",
"568 631 OFFCURVE",
"517 731 OFFCURVE",
"385 731 CURVE SMOOTH",
"327 731 OFFCURVE",
"270 711 OFFCURVE",
"247 701 CURVE",
"242 608 OFFCURVE",
"230 531 OFFCURVE",
"185 531 CURVE SMOOTH",
"147 531 OFFCURVE",
"129 563 OFFCURVE",
"129 603 CURVE SMOOTH",
"129 725 OFFCURVE",
"213 813 OFFCURVE",
"386 813 CURVE SMOOTH",
"500 813 OFFCURVE",
"606 737 OFFCURVE",
"624 642 CURVE",
"666 738 OFFCURVE",
"758 813 OFFCURVE",
"859 813 CURVE SMOOTH",
"1002 813 OFFCURVE",
"1112 699 OFFCURVE",
"1112 480 CURVE SMOOTH",
"1112 430 OFFCURVE",
"1084 400 OFFCURVE",
"1040 398 CURVE SMOOTH",
"583 379 LINE SMOOTH",
"297 367 OFFCURVE",
"203 345 OFFCURVE",
"203 203 CURVE SMOOTH",
"203 121 OFFCURVE",
"267 65 OFFCURVE",
"372 65 CURVE SMOOTH",
"469 65 OFFCURVE",
"559 103 OFFCURVE",
"604 198 CURVE",
"656 131 LINE",
"598 31 OFFCURVE",
"479 -17 OFFCURVE",
"355 -17 CURVE SMOOTH",
"221 -17 OFFCURVE",
"114 69 OFFCURVE",
"114 203 CURVE SMOOTH",
"114 423 OFFCURVE",
"303 450 OFFCURVE",
"572 459 CURVE SMOOTH",
"1029 475 LINE",
"1023 564 OFFCURVE",
"1005 731 OFFCURVE",
"860 731 CURVE SMOOTH",
"738 731 OFFCURVE",
"658 606 OFFCURVE",
"658 394 CURVE SMOOTH",
"658 176 OFFCURVE",
"739 65 OFFCURVE",
"884 65 CURVE SMOOTH",
"953 65 OFFCURVE",
"1005 104 OFFCURVE",
"1048 150 CURVE SMOOTH",
"1060 162 OFFCURVE",
"1075 167 OFFCURVE",
"1088 167 CURVE SMOOTH",
"1109 167 OFFCURVE",
"1121 148 OFFCURVE",
"1122 127 CURVE SMOOTH",
"1123 113 OFFCURVE",
"1117 98 OFFCURVE",
"1106 85 CURVE SMOOTH",
"1033 1 OFFCURVE",
"938 -17 OFFCURVE",
"876 -17 CURVE SMOOTH",
"670 -17 OFFCURVE"
);
}
);
width = 1240;
},
{
layerId = "F2E12B84-E402-48AA-89E7-06534AE23493";
width = 600;
}
);
unicode = 00E6;
},
{
glyphname = b;
lastChange = "2017-06-29 17:36:37 +0000";
layers = (
{
anchors = (
{
name = bottom;
position = "{620, 0}";
},
{
name = top;
position = "{700, 756}";
}
);
layerId = "840BD324-B0A6-42B0-BD23-CB5E8C19394F";
paths = (
{
closed = 1;
nodes = (
"290 7 OFFCURVE",
"310 -4 OFFCURVE",
"331 -4 CURVE SMOOTH",
"356 -4 OFFCURVE",
"391 0 OFFCURVE",
"382 102 CURVE SMOOTH",
"386 1141 LINE SMOOTH",
"389 1164 OFFCURVE",
"374 1180 OFFCURVE",
"345 1180 CURVE SMOOTH",
"339 1180 OFFCURVE",
"333 1179 OFFCURVE",
"325 1178 CURVE SMOOTH",
"136 1159 LINE",
"112 1154 OFFCURVE",
"103 1134 OFFCURVE",
"103 1118 CURVE SMOOTH",
"103 1098 OFFCURVE",
"118 1080 OFFCURVE",
"142 1080 CURVE SMOOTH",
"290 1091 LINE",
"290 74 LINE SMOOTH"
);
},
{
closed = 1;
nodes = (
"449 681 OFFCURVE",
"537 731 OFFCURVE",
"664 731 CURVE SMOOTH",
"855 731 OFFCURVE",
"952 575 OFFCURVE",
"952 398 CURVE SMOOTH",
"952 219 OFFCURVE",
"858 65 OFFCURVE",
"672 65 CURVE SMOOTH",
"537 65 OFFCURVE",
"444 127 OFFCURVE",
"382 210 CURVE",
"382 102 LINE",
"446 37 OFFCURVE",
"547 -17 OFFCURVE",
"674 -17 CURVE SMOOTH",
"909 -17 OFFCURVE",
"1048 156 OFFCURVE",
"1048 398 CURVE SMOOTH",
"1048 636 OFFCURVE",
"904 813 OFFCURVE",
"670 813 CURVE SMOOTH",
"541 813 OFFCURVE",
"460 771 OFFCURVE",
"385 707 CURVE",
"384 602 LINE"
);
}
);
width = 1240;
},
{
anchors = (
{
name = bottom;
position = "{620, 0}";
},
{
name = top;
position = "{620, 774}";
}
);
layerId = "F2E12B84-E402-48AA-89E7-06534AE23493";
paths = (
{
closed = 1;
nodes = (
"226 37 OFFCURVE",
"271 -17 OFFCURVE",
"356 -17 CURVE SMOOTH",
"431 -17 OFFCURVE",
"487 25 OFFCURVE",
"487 93 CURVE SMOOTH",
"484 1141 LINE SMOOTH",
"484 1164 OFFCURVE",
"472 1180 OFFCURVE",
"443 1180 CURVE SMOOTH",
"437 1180 OFFCURVE",
"431 1179 OFFCURVE",
"423 1178 CURVE SMOOTH",
"174 1159 LINE SMOOTH",
"130 1156 OFFCURVE",
"102 1131 OFFCURVE",
"102 1081 CURVE SMOOTH",
"102 1036 OFFCURVE",
"127 1002 OFFCURVE",
"181 1005 CURVE SMOOTH",
"228 1008 LINE",
"226 93 LINE SMOOTH"
);
},
{
closed = 1;
nodes = (
"487 575 OFFCURVE",
"536 631 OFFCURVE",
"640 631 CURVE SMOOTH",
"771 631 OFFCURVE",
"858 525 OFFCURVE",
"858 398 CURVE SMOOTH",
"858 269 OFFCURVE",
"770 175 OFFCURVE",
"644 175 CURVE SMOOTH",
"539 175 OFFCURVE",
"487 242 OFFCURVE",
"462 270 CURVE",
"453 107 LINE",
"482 62 OFFCURVE",
"569 -17 OFFCURVE",
"696 -17 CURVE SMOOTH",
"951 -17 OFFCURVE",
"1104 146 OFFCURVE",
"1104 398 CURVE SMOOTH",
"1104 646 OFFCURVE",
"950 813 OFFCURVE",
"706 813 CURVE SMOOTH",
"567 813 OFFCURVE",
"499 744 OFFCURVE",
"480 712 CURVE",
"472 546 LINE"
);
}
);
width = 1240;
}
);
unicode = 0062;
},
{
glyphname = c;
lastChange = "2017-06-29 19:27:50 +0000";
layers = (
{
anchors = (
{
name = bottom;
position = "{620, 0}";
},
{
name = top;
position = "{640, 774}";
}
);
layerId = "840BD324-B0A6-42B0-BD23-CB5E8C19394F";
paths = (
{
closed = 1;
nodes = (
"794 -17 OFFCURVE",
"922 25 OFFCURVE",
"996 105 CURVE SMOOTH",
"1008 118 OFFCURVE",
"1019 137 OFFCURVE",
"1019 151 CURVE SMOOTH",
"1019 180 OFFCURVE",
"1007 202 OFFCURVE",
"978 202 CURVE SMOOTH",
"965 202 OFFCURVE",
"950 192 OFFCURVE",
"938 181 CURVE SMOOTH",
"859 108 OFFCURVE",
"784 69 OFFCURVE",
"662 69 CURVE SMOOTH",
"459 69 OFFCURVE",
"317 175 OFFCURVE",
"317 407 CURVE SMOOTH",
"317 609 OFFCURVE",
"454 727 OFFCURVE",
"674 727 CURVE SMOOTH",
"755 727 OFFCURVE",
"820 717 OFFCURVE",
"891 682 CURVE",
"906 560 OFFCURVE",
"909 480 OFFCURVE",
"957 480 CURVE SMOOTH",
"998 480 OFFCURVE",
"1017 515 OFFCURVE",
"1017 560 CURVE SMOOTH",
"1017 740 OFFCURVE",
"871 813 OFFCURVE",
"673 813 CURVE SMOOTH",
"425 813 OFFCURVE",
"221 663 OFFCURVE",
"221 407 CURVE SMOOTH",
"221 141 OFFCURVE",
"403 -17 OFFCURVE",
"662 -17 CURVE SMOOTH"
);
}
);
width = 1240;
},
{
anchors = (
{
name = bottom;
position = "{620, 0}";
},
{
name = top;
position = "{620, 774}";
}
);
layerId = "F2E12B84-E402-48AA-89E7-06534AE23493";
paths = (
{
closed = 1;
nodes = (
"804 -17 OFFCURVE",
"953 13 OFFCURVE",
"1035 94 CURVE SMOOTH",
"1047 106 OFFCURVE",
"1080 137 OFFCURVE",
"1080 190 CURVE SMOOTH",
"1080 250 OFFCURVE",
"1039 272 OFFCURVE",
"1001 272 CURVE SMOOTH",
"957 272 OFFCURVE",
"930 245 OFFCURVE",
"893 219 CURVE SMOOTH",
"849 188 OFFCURVE",
"794 149 OFFCURVE",
"707 149 CURVE SMOOTH",
"569 149 OFFCURVE",
"437 235 OFFCURVE",
"437 387 CURVE SMOOTH",
"437 539 OFFCURVE",
"564 637 OFFCURVE",
"707 637 CURVE SMOOTH",
"772 637 OFFCURVE",
"838 622 OFFCURVE",
"855 598 CURVE",
"859 534 OFFCURVE",
"890 463 OFFCURVE",
"953 463 CURVE SMOOTH",
"1019 463 OFFCURVE",
"1072 492 OFFCURVE",
"1072 562 CURVE SMOOTH",
"1072 700 OFFCURVE",
"950 813 OFFCURVE",
"683 813 CURVE SMOOTH",
"415 813 OFFCURVE",
"191 663 OFFCURVE",
"191 407 CURVE SMOOTH",
"191 141 OFFCURVE",
"393 -17 OFFCURVE",
"682 -17 CURVE SMOOTH"
);
}
);
width = 1240;
}
);
unicode = 0063;
},
{
glyphname = d;
lastChange = "2017-06-29 16:16:07 +0000";
layers = (
{
anchors = (
{
name = bottom;
position = "{620, 0}";
},
{
name = center;
position = "{620, 387}";
},
{
name = top;
position = "{544, 702}";
},
{
name = topright;
position = "{1220, 774}";
}
);
layerId = "840BD324-B0A6-42B0-BD23-CB5E8C19394F";
paths = (
{
closed = 1;
nodes = (
"784 771 OFFCURVE",
"703 813 OFFCURVE",
"574 813 CURVE SMOOTH",
"340 813 OFFCURVE",
"196 636 OFFCURVE",
"196 398 CURVE SMOOTH",
"196 156 OFFCURVE",
"339 -17 OFFCURVE",
"574 -17 CURVE SMOOTH",
"701 -17 OFFCURVE",
"808 36 OFFCURVE",
"877 107 CURVE",
"868 210 LINE",
"800 127 OFFCURVE",
"711 65 OFFCURVE",
"576 65 CURVE SMOOTH",
"390 65 OFFCURVE",
"292 219 OFFCURVE",
"292 398 CURVE SMOOTH",
"292 575 OFFCURVE",
"389 731 OFFCURVE",
"580 731 CURVE SMOOTH",
"707 731 OFFCURVE",
"795 681 OFFCURVE",
"861 601 CURVE",
"858 707 LINE"
);
},
{
closed = 1;
nodes = (
"870 47 LINE SMOOTH",
"872 13 OFFCURVE",
"891 -3 OFFCURVE",
"917 -3 CURVE SMOOTH",
"1110 17 LINE",
"1135 22 OFFCURVE",
"1148 42 OFFCURVE",
"1148 61 CURVE SMOOTH",
"1148 79 OFFCURVE",
"1136 96 OFFCURVE",
"1108 96 CURVE SMOOTH",
"954 85 LINE",
"954 1141 LINE SMOOTH",
"954 1164 OFFCURVE",
"942 1180 OFFCURVE",
"913 1180 CURVE SMOOTH",
"907 1180 OFFCURVE",
"901 1179 OFFCURVE",
"893 1178 CURVE SMOOTH",
"704 1159 LINE SMOOTH",
"680 1154 OFFCURVE",
"671 1134 OFFCURVE",
"671 1118 CURVE SMOOTH",
"671 1098 OFFCURVE",
"689 1079 OFFCURVE",
"710 1080 CURVE SMOOTH",
"858 1091 LINE",
"858 707 LINE"
);
}
);
width = 1240;
},
{
anchors = (
{
name = bottom;
position = "{620, 0}";
},
{
name = center;
position = "{620, 387}";
},
{
name = top;
position = "{620, 774}";
},
{
name = topright;
position = "{1220, 774}";
}
);
layerId = "F2E12B84-E402-48AA-89E7-06534AE23493";
paths = (
{
closed = 1;
nodes = (
"741 744 OFFCURVE",
"673 813 OFFCURVE",
"534 813 CURVE SMOOTH",
"290 813 OFFCURVE",
"136 646 OFFCURVE",
"136 398 CURVE SMOOTH",
"136 146 OFFCURVE",
"289 -17 OFFCURVE",
"544 -17 CURVE SMOOTH",
"671 -17 OFFCURVE",
"758 62 OFFCURVE",
"787 107 CURVE",
"778 270 LINE",
"753 242 OFFCURVE",
"701 175 OFFCURVE",
"596 175 CURVE SMOOTH",
"470 175 OFFCURVE",
"382 269 OFFCURVE",
"382 398 CURVE SMOOTH",
"382 525 OFFCURVE",
"469 631 OFFCURVE",
"600 631 CURVE SMOOTH",
"704 631 OFFCURVE",
"753 575 OFFCURVE",
"768 546 CURVE",
"760 712 LINE"
);
},
{
closed = 1;
nodes = (
"779 47 LINE SMOOTH",
"780 13 OFFCURVE",
"801 -3 OFFCURVE",
"827 -1 CURVE SMOOTH",
"1061 16 LINE SMOOTH",
"1109 20 OFFCURVE",
"1138 58 OFFCURVE",
"1138 107 CURVE SMOOTH",
"1138 157 OFFCURVE",
"1112 188 OFFCURVE",
"1059 182 CURVE SMOOTH",
"1014 177 LINE",
"1014 1141 LINE SMOOTH",
"1014 1164 OFFCURVE",
"1002 1180 OFFCURVE",
"973 1180 CURVE SMOOTH",
"967 1180 OFFCURVE",
"961 1179 OFFCURVE",
"953 1178 CURVE SMOOTH",
"704 1159 LINE SMOOTH",
"660 1155 OFFCURVE",
"632 1131 OFFCURVE",
"632 1081 CURVE SMOOTH",
"632 1036 OFFCURVE",
"657 1001 OFFCURVE",
"711 1005 CURVE SMOOTH",
"758 1008 LINE",
"758 709 LINE"
);
}
);
width = 1240;
}
);
unicode = 0064;
},
{
glyphname = eth;
lastChange = "2017-06-26 21:39:00 +0000";
layers = (
{
layerId = "840BD324-B0A6-42B0-BD23-CB5E8C19394F";
paths = (
{
closed = 1;
nodes = (
"602 69 CURVE SMOOTH",
"801 69 OFFCURVE",
"918 206 OFFCURVE",
"918 395 CURVE SMOOTH",
"918 590 OFFCURVE",
"780 735 OFFCURVE",
"608 735 CURVE SMOOTH",
"414 735 OFFCURVE",
"308 601 OFFCURVE",
"308 395 CURVE SMOOTH",
"308 196 OFFCURVE",
"433 69 OFFCURVE"
);
},
{
closed = 1;
nodes = (
"703 1116 LINE",
"914 920 OFFCURVE",
"1010 694 OFFCURVE",
"1010 457 CURVE SMOOTH",
"1010 161 OFFCURVE",
"881 -17 OFFCURVE",
"602 -17 CURVE SMOOTH",
"366 -17 OFFCURVE",
"212 158 OFFCURVE",
"212 398 CURVE SMOOTH",
"212 637 OFFCURVE",
"360 821 OFFCURVE",
"607 821 CURVE SMOOTH",
"731 821 OFFCURVE",
"874 740 OFFCURVE",
"919 617 CURVE",
"874 812 OFFCURVE",
"745 966 OFFCURVE",
"633 1069 CURVE",
"496 975 LINE SMOOTH",
"486 968 OFFCURVE",
"475 964 OFFCURVE",
"463 964 CURVE SMOOTH",
"442 964 OFFCURVE",
"428 985 OFFCURVE",
"428 1007 CURVE SMOOTH",
"428 1018 OFFCURVE",
"435 1030 OFFCURVE",
"446 1038 CURVE SMOOTH",
"567 1124 LINE",
"503 1177 OFFCURVE",
"449 1206 OFFCURVE",
"434 1218 CURVE SMOOTH",
"422 1228 OFFCURVE",
"417 1238 OFFCURVE",
"417 1257 CURVE SMOOTH",
"417 1279 OFFCURVE",
"432 1296 OFFCURVE",
"450 1296 CURVE SMOOTH",
"465 1296 OFFCURVE",
"477 1289 OFFCURVE",
"487 1282 CURVE SMOOTH",
"540 1247 OFFCURVE",
"592 1210 OFFCURVE",
"638 1172 CURVE",
"777 1269 LINE SMOOTH",
"783 1273 OFFCURVE",
"792 1278 OFFCURVE",
"804 1278 CURVE SMOOTH",
"831 1278 OFFCURVE",
"844 1256 OFFCURVE",
"844 1231 CURVE SMOOTH",
"844 1215 OFFCURVE",
"835 1206 OFFCURVE",
"825 1199 CURVE SMOOTH"
);
}
);
width = 1240;
},
{
layerId = "F2E12B84-E402-48AA-89E7-06534AE23493";
width = 600;
}
);
unicode = 00F0;
},
{
glyphname = dcroat;
lastChange = "2017-06-29 15:16:40 +0000";
layers = (
{
components = (
{
name = d;
}
);
layerId = "840BD324-B0A6-42B0-BD23-CB5E8C19394F";
paths = (
{
closed = 1;
nodes = (
"1070 917 OFFCURVE",
"1070 944 CURVE SMOOTH",
"1070 971 OFFCURVE",
"1054 979 OFFCURVE",
"1021 979 CURVE SMOOTH",
"660 979 LINE SMOOTH",
"626 979 OFFCURVE",
"610 971 OFFCURVE",
"610 944 CURVE SMOOTH",
"610 917 OFFCURVE",
"623 907 OFFCURVE",
"661 907 CURVE SMOOTH",
"1023 907 LINE SMOOTH",
"1056 907 OFFCURVE"
);
}
);
width = 1240;
},
{
layerId = "F2E12B84-E402-48AA-89E7-06534AE23493";
width = 600;
}
);
unicode = 0111;
},
{
glyphname = ddotaccent;
lastChange = "2017-06-29 15:18:38 +0000";
layers = (
{
anchors = (
{
name = bottom;
position = "{620, 0}";
},
{
name = center;
position = "{620, 387}";
},
{
name = top;
position = "{533, 732}";
},
{
name = topright;
position = "{1220, 774}";
}
);
components = (
{
name = dotaccentcomb;
transform = "{1, 0, 0, 1, -69, 369}";
}
);
layerId = "840BD324-B0A6-42B0-BD23-CB5E8C19394F";
paths = (
{
closed = 1;
nodes = (
"701 -17 OFFCURVE",
"808 36 OFFCURVE",
"867 107 CURVE",
"870 47 LINE SMOOTH",
"872 13 OFFCURVE",
"891 -3 OFFCURVE",
"917 -3 LINE SMOOTH",
"924 -3 LINE",
"1110 17 LINE",
"1135 22 OFFCURVE",
"1148 42 OFFCURVE",
"1148 61 CURVE SMOOTH",
"1148 79 OFFCURVE",
"1136 96 OFFCURVE",
"1108 96 CURVE SMOOTH",
"1102 96 LINE",
"954 85 LINE",
"954 1141 LINE SMOOTH",
"954 1164 OFFCURVE",
"942 1180 OFFCURVE",
"913 1180 CURVE SMOOTH",
"907 1180 OFFCURVE",
"901 1179 OFFCURVE",
"893 1178 CURVE SMOOTH",
"744 1159 LINE",
"720 1154 OFFCURVE",
"711 1134 OFFCURVE",
"711 1118 CURVE SMOOTH",
"711 1098 OFFCURVE",
"729 1079 OFFCURVE",
"750 1080 CURVE SMOOTH",
"774 1081 OFFCURVE",
"793 1087 OFFCURVE",
"858 1091 CURVE",
"858 707 LINE",
"784 771 OFFCURVE",
"703 813 OFFCURVE",
"574 813 CURVE SMOOTH",
"340 813 OFFCURVE",
"196 636 OFFCURVE",
"196 398 CURVE SMOOTH",
"196 156 OFFCURVE",
"339 -17 OFFCURVE",
"574 -17 CURVE SMOOTH"
);
},
{
closed = 1;
nodes = (
"390 65 OFFCURVE",
"292 219 OFFCURVE",
"292 398 CURVE SMOOTH",
"292 575 OFFCURVE",
"389 731 OFFCURVE",
"580 731 CURVE SMOOTH",
"707 731 OFFCURVE",
"795 681 OFFCURVE",
"858 602 CURVE",
"858 210 LINE",
"800 127 OFFCURVE",
"711 65 OFFCURVE",
"576 65 CURVE SMOOTH"
);
}
);
width = 1240;
},
{
layerId = "F2E12B84-E402-48AA-89E7-06534AE23493";
width = 600;
}
);
unicode = 1E0B;
},
{
glyphname = dz;
lastChange = "2017-06-26 21:39:00 +0000";
layers = (
{
layerId = "840BD324-B0A6-42B0-BD23-CB5E8C19394F";
paths = (
{
closed = 1;
nodes = (
"1089 772 LINE SMOOTH",
"1135 772 OFFCURVE",
"1150 759 OFFCURVE",
"1150 736 CURVE SMOOTH",
"1150 719 OFFCURVE",
"1138 695 OFFCURVE",
"1132 682 CURVE SMOOTH",
"850 82 LINE",
"1061 82 LINE",
"1082 259 LINE SMOOTH",
"1085 283 OFFCURVE",
"1102 297 OFFCURVE",
"1123 297 CURVE SMOOTH",
"1144 297 OFFCURVE",
"1162 284 OFFCURVE",
"1161 255 CURVE SMOOTH",
"1151 46 LINE SMOOTH",
"1150 21 OFFCURVE",
"1124 0 OFFCURVE",
"1100 0 CURVE SMOOTH",
"806 0 LINE SMOOTH",
"768 0 OFFCURVE",
"750 24 OFFCURVE",
"750 59 CURVE SMOOTH",
"750 81 OFFCURVE",
"761 97 OFFCURVE",
"767 109 CURVE SMOOTH",
"1045 692 LINE",
"836 692 LINE",
"818 535 LINE SMOOTH",
"815 505 OFFCURVE",
"799 490 OFFCURVE",
"778 490 CURVE SMOOTH",
"756 490 OFFCURVE",
"734 507 OFFCURVE",
"736 540 CURVE SMOOTH",
"746 726 LINE SMOOTH",
"747 750 OFFCURVE",
"768 772 OFFCURVE",
"792 772 CURVE SMOOTH"
);
},
{
closed = 1;
nodes = (
"497 47 CURVE SMOOTH",
"494 97 LINE",
"471 52 OFFCURVE",
"438 -16 OFFCURVE",
"338 -16 CURVE SMOOTH",
"177 -16 OFFCURVE",
"63 183 OFFCURVE",
"63 398 CURVE SMOOTH",
"63 621 OFFCURVE",
"164 813 OFFCURVE",
"329 813 CURVE SMOOTH",
"418 813 OFFCURVE",
"493 734 OFFCURVE",
"493 734 CURVE",
"493 1091 LINE",
"445 1088 OFFCURVE",
"343 1080 OFFCURVE",
"337 1080 CURVE SMOOTH",
"313 1080 OFFCURVE",
"298 1098 OFFCURVE",
"298 1118 CURVE SMOOTH",
"298 1134 OFFCURVE",
"307 1154 OFFCURVE",
"331 1159 CURVE",
"520 1178 LINE SMOOTH",
"528 1179 OFFCURVE",
"534 1180 OFFCURVE",
"540 1180 CURVE SMOOTH",
"569 1180 OFFCURVE",
"581 1164 OFFCURVE",
"581 1141 CURVE SMOOTH",
"581 85 LINE",
"637 91 LINE",
"643 91 LINE SMOOTH",
"671 91 OFFCURVE",
"683 74 OFFCURVE",
"683 56 CURVE SMOOTH",
"683 37 OFFCURVE",
"670 17 OFFCURVE",
"645 12 CURVE",
"551 -3 LINE",
"544 -3 LINE SMOOTH",
"518 -3 OFFCURVE",
"499 13 OFFCURVE"
);
},
{
closed = 1;
nodes = (
"159 398 CURVE SMOOTH",
"159 216 OFFCURVE",
"226 70 OFFCURVE",
"338 70 CURVE SMOOTH",
"418 70 OFFCURVE",
"476 137 OFFCURVE",
"493 210 CURVE",
"493 629 LINE",
"454 678 OFFCURVE",
"400 725 OFFCURVE",
"329 725 CURVE SMOOTH",
"213 725 OFFCURVE",
"159 580 OFFCURVE"
);
}
);
width = 1240;
},
{
layerId = "F2E12B84-E402-48AA-89E7-06534AE23493";
width = 600;
}
);
unicode = 01F3;
},
{
glyphname = dzcaron;
lastChange = "2017-06-26 21:39:00 +0000";
layers = (
{
components = (
{
name = caron;
transform = "{1, 0, 0, 1, 327, -44}";
}
);
layerId = "840BD324-B0A6-42B0-BD23-CB5E8C19394F";
paths = (
{
closed = 1;
nodes = (
"1089 772 LINE SMOOTH",
"1135 772 OFFCURVE",
"1150 759 OFFCURVE",
"1150 736 CURVE SMOOTH",
"1150 719 OFFCURVE",
"1138 695 OFFCURVE",
"1132 682 CURVE SMOOTH",
"850 82 LINE",
"1061 82 LINE",
"1082 259 LINE SMOOTH",
"1085 283 OFFCURVE",
"1102 297 OFFCURVE",
"1123 297 CURVE SMOOTH",
"1144 297 OFFCURVE",
"1162 284 OFFCURVE",
"1161 255 CURVE SMOOTH",
"1151 46 LINE SMOOTH",
"1150 21 OFFCURVE",
"1124 0 OFFCURVE",
"1100 0 CURVE SMOOTH",
"806 0 LINE SMOOTH",
"768 0 OFFCURVE",
"750 24 OFFCURVE",
"750 59 CURVE SMOOTH",
"750 81 OFFCURVE",
"761 97 OFFCURVE",
"767 109 CURVE SMOOTH",
"1045 692 LINE",
"836 692 LINE",
"818 535 LINE SMOOTH",
"815 505 OFFCURVE",
"799 490 OFFCURVE",
"778 490 CURVE SMOOTH",
"756 490 OFFCURVE",
"734 507 OFFCURVE",
"736 540 CURVE SMOOTH",
"746 726 LINE SMOOTH",
"747 750 OFFCURVE",
"768 772 OFFCURVE",
"792 772 CURVE SMOOTH"
);
},
{
closed = 1;
nodes = (
"497 47 CURVE SMOOTH",
"494 97 LINE",
"471 52 OFFCURVE",
"438 -16 OFFCURVE",
"338 -16 CURVE SMOOTH",
"177 -16 OFFCURVE",
"63 183 OFFCURVE",
"63 398 CURVE SMOOTH",
"63 621 OFFCURVE",
"164 813 OFFCURVE",
"329 813 CURVE SMOOTH",
"418 813 OFFCURVE",
"493 734 OFFCURVE",
"493 734 CURVE",
"493 1091 LINE",
"445 1088 OFFCURVE",
"343 1080 OFFCURVE",
"337 1080 CURVE SMOOTH",
"313 1080 OFFCURVE",
"298 1098 OFFCURVE",
"298 1118 CURVE SMOOTH",
"298 1134 OFFCURVE",
"307 1154 OFFCURVE",
"331 1159 CURVE",
"520 1178 LINE SMOOTH",
"528 1179 OFFCURVE",
"534 1180 OFFCURVE",
"540 1180 CURVE SMOOTH",
"569 1180 OFFCURVE",
"581 1164 OFFCURVE",
"581 1141 CURVE SMOOTH",
"581 85 LINE",
"637 91 LINE",
"643 91 LINE SMOOTH",
"671 91 OFFCURVE",
"683 74 OFFCURVE",
"683 56 CURVE SMOOTH",
"683 37 OFFCURVE",
"670 17 OFFCURVE",
"645 12 CURVE",
"551 -3 LINE",
"544 -3 LINE SMOOTH",
"518 -3 OFFCURVE",
"499 13 OFFCURVE"
);
},
{
closed = 1;
nodes = (
"159 398 CURVE SMOOTH",
"159 216 OFFCURVE",
"226 70 OFFCURVE",
"338 70 CURVE SMOOTH",
"418 70 OFFCURVE",
"476 137 OFFCURVE",
"493 210 CURVE",
"493 629 LINE",
"454 678 OFFCURVE",
"400 725 OFFCURVE",
"329 725 CURVE SMOOTH",
"213 725 OFFCURVE",
"159 580 OFFCURVE"
);
}
);
width = 1240;
},
{
layerId = "F2E12B84-E402-48AA-89E7-06534AE23493";
width = 600;
}
);
unicode = 01C6;
},
{
glyphname = e;
lastChange = "2017-06-29 14:50:24 +0000";
layers = (
{
anchors = (
{
name = bottom;
position = "{620, 0}";
},
{
name = ogonek;
position = "{1116, 10}";
},
{
name = top;
position = "{620, 774}";
}
);
layerId = "840BD324-B0A6-42B0-BD23-CB5E8C19394F";
paths = (
{
closed = 1;
nodes = (
"769 -17 OFFCURVE",
"920 28 OFFCURVE",
"997 105 CURVE SMOOTH",
"1009 117 OFFCURVE",
"1015 133 OFFCURVE",
"1015 147 CURVE SMOOTH",
"1015 171 OFFCURVE",
"1003 195 OFFCURVE",
"975 195 CURVE SMOOTH",
"963 195 OFFCURVE",
"948 191 OFFCURVE",
"934 178 CURVE SMOOTH",
"855 105 OFFCURVE",
"754 69 OFFCURVE",
"657 69 CURVE SMOOTH",
"438 69 OFFCURVE",
"308 185 OFFCURVE",
"308 407 CURVE SMOOTH",
"308 609 OFFCURVE",
"446 727 OFFCURVE",
"636 727 CURVE SMOOTH",
"813 727 OFFCURVE",
"925 621 OFFCURVE",
"931 467 CURVE",
"298 463 LINE",
"298 377 LINE",
"949 382 LINE SMOOTH",
"998 382 OFFCURVE",
"1025 423 OFFCURVE",
"1025 465 CURVE SMOOTH",
"1025 683 OFFCURVE",
"840 813 OFFCURVE",
"634 813 CURVE SMOOTH",
"403 813 OFFCURVE",
"212 673 OFFCURVE",
"212 407 CURVE SMOOTH",
"212 141 OFFCURVE",
"398 -17 OFFCURVE",
"657 -17 CURVE SMOOTH"
);
}
);
width = 1240;
},
{
anchors = (
{
name = bottom;
position = "{620, 0}";
},
{
name = ogonek;
position = "{1116, 10}";
},
{
name = top;
position = "{620, 774}";
}
);
layerId = "F2E12B84-E402-48AA-89E7-06534AE23493";
paths = (
{
closed = 1;
nodes = (
"789 -17 OFFCURVE",
"922 24 OFFCURVE",
"980 72 CURVE SMOOTH",
"1007 94 OFFCURVE",
"1037 122 OFFCURVE",
"1037 162 CURVE SMOOTH",
"1037 207 OFFCURVE",
"1012 250 OFFCURVE",
"952 250 CURVE SMOOTH",
"915 250 OFFCURVE",
"875 228 OFFCURVE",
"851 214 CURVE SMOOTH",
"802 186 OFFCURVE",
"757 148 OFFCURVE",
"654 148 CURVE SMOOTH",
"513 148 OFFCURVE",
"418 240 OFFCURVE",
"418 404 CURVE SMOOTH",
"418 552 OFFCURVE",
"511 651 OFFCURVE",
"630 651 CURVE SMOOTH",
"740 651 OFFCURVE",
"816 578 OFFCURVE",
"820 492 CURVE",
"298 492 LINE",
"298 337 LINE",
"979 342 LINE SMOOTH",
"1028 342 OFFCURVE",
"1055 383 OFFCURVE",
"1055 425 CURVE SMOOTH",
"1055 688 OFFCURVE",
"840 813 OFFCURVE",
"634 813 CURVE SMOOTH",
"383 813 OFFCURVE",
"182 673 OFFCURVE",
"182 407 CURVE SMOOTH",
"182 141 OFFCURVE",
"378 -17 OFFCURVE",
"657 -17 CURVE SMOOTH"
);
}
);
width = 1240;
}
);
unicode = 0065;
},
{
glyphname = f;
lastChange = "2017-06-29 17:58:18 +0000";
layers = (
{
anchors = (
{
name = bottom;
position = "{620, 0}";
},
{
name = top;
position = "{620, 1070}";
}
);
layerId = "840BD324-B0A6-42B0-BD23-CB5E8C19394F";
paths = (
{
closed = 1;
nodes = (
"970 0 LINE SMOOTH",
"997 0 OFFCURVE",
"1010 20 OFFCURVE",
"1010 41 CURVE SMOOTH",
"1010 61 OFFCURVE",
"997 82 OFFCURVE",
"971 82 CURVE SMOOTH",
"609 82 LINE",
"608 692 LINE",
"917 692 LINE SMOOTH",
"944 692 OFFCURVE",
"958 712 OFFCURVE",
"958 733 CURVE SMOOTH",
"958 753 OFFCURVE",
"945 774 OFFCURVE",
"918 774 CURVE SMOOTH",
"609 774 LINE",
"609 802 LINE SMOOTH",
"609 1008 OFFCURVE",
"723 1098 OFFCURVE",
"886 1114 CURVE",
"987 1042 OFFCURVE",
"1048 991 OFFCURVE",
"1080 1026 CURVE SMOOTH",
"1108 1057 OFFCURVE",
"1097 1100 OFFCURVE",
"1063 1130 CURVE SMOOTH",
"1020 1168 OFFCURVE",
"975 1191 OFFCURVE",
"902 1191 CURVE SMOOTH",
"685 1191 OFFCURVE",
"512 1069 OFFCURVE",
"512 802 CURVE SMOOTH",
"512 774 LINE",
"297 774 LINE SMOOTH",
"269 774 OFFCURVE",
"255 754 OFFCURVE",
"255 734 CURVE SMOOTH",
"255 713 OFFCURVE",
"270 692 OFFCURVE",
"301 692 CURVE SMOOTH",
"512 692 LINE",
"512 82 LINE",
"272 82 LINE SMOOTH",
"244 82 OFFCURVE",
"230 62 OFFCURVE",
"230 42 CURVE SMOOTH",
"230 21 OFFCURVE",
"245 0 OFFCURVE",
"276 0 CURVE SMOOTH"
);
}
);
width = 1240;
},
{
anchors = (
{
name = bottom;
position = "{620, 0}";
},
{
name = top;
position = "{620, 774}";
}
);
layerId = "F2E12B84-E402-48AA-89E7-06534AE23493";
paths = (
{
closed = 1;
nodes = (
"960 0 LINE SMOOTH",
"1007 0 OFFCURVE",
"1040 43 OFFCURVE",
"1040 86 CURVE SMOOTH",
"1040 128 OFFCURVE",
"1007 172 OFFCURVE",
"961 172 CURVE SMOOTH",
"669 172 LINE",
"668 612 LINE",
"907 612 LINE SMOOTH",
"958 612 OFFCURVE",
"988 652 OFFCURVE",
"988 693 CURVE SMOOTH",
"988 733 OFFCURVE",
"959 774 OFFCURVE",
"908 774 CURVE SMOOTH",
"669 774 LINE",
"669 802 LINE SMOOTH",
"669 938 OFFCURVE",
"749 1048 OFFCURVE",
"910 1048 CURVE",
"958 1005 OFFCURVE",
"1021 938 OFFCURVE",
"1077 966 CURVE SMOOTH",
"1123 989 OFFCURVE",
"1142 1070 OFFCURVE",
"1093 1120 CURVE SMOOTH",
"1053 1161 OFFCURVE",
"1001 1191 OFFCURVE",
"888 1191 CURVE SMOOTH",
"625 1191 OFFCURVE",
"422 1069 OFFCURVE",
"422 802 CURVE SMOOTH",
"422 774 LINE",
"317 774 LINE SMOOTH",
"269 774 OFFCURVE",
"235 734 OFFCURVE",
"235 694 CURVE SMOOTH",
"235 633 OFFCURVE",
"270 612 OFFCURVE",
"321 612 CURVE SMOOTH",
"422 612 LINE",
"422 172 LINE",
"292 172 LINE SMOOTH",
"244 172 OFFCURVE",
"210 129 OFFCURVE",
"210 87 CURVE SMOOTH",
"210 44 OFFCURVE",
"245 0 OFFCURVE",
"296 0 CURVE SMOOTH"
);
}
);
width = 1240;
}
);
unicode = 0066;
},
{
glyphname = g;
lastChange = "2017-06-29 18:45:27 +0000";
layers = (
{
anchors = (
{
name = bottom;
position = "{620, 0}";
},
{
name = top;
position = "{620, 774}";
},
{
name = topright;
position = "{621, 890}";
}
);
layerId = "840BD324-B0A6-42B0-BD23-CB5E8C19394F";
paths = (
{
closed = 1;
nodes = (
"696 361 OFFCURVE",
"811 397 OFFCURVE",
"811 534 CURVE SMOOTH",
"811 679 OFFCURVE",
"702 731 OFFCURVE",
"580 731 CURVE SMOOTH",
"457 731 OFFCURVE",
"355 676 OFFCURVE",
"355 542 CURVE SMOOTH",
"355 420 OFFCURVE",
"453 361 OFFCURVE",
"574 361 CURVE SMOOTH"
);
},
{
closed = 1;
nodes = (
"823 748 OFFCURVE",
"888 828 OFFCURVE",
"977 828 CURVE SMOOTH",
"1047 828 OFFCURVE",
"1121 797 OFFCURVE",
"1121 742 CURVE SMOOTH",
"1121 720 OFFCURVE",
"1105 697 OFFCURVE",
"1074 697 CURVE SMOOTH",
"1032 697 OFFCURVE",
"983 723 OFFCURVE",
"938 745 CURVE",
"840 678 LINE",
"794 718 LINE"
);
},
{
closed = 1;
nodes = (
"395 280 OFFCURVE",
"259 390 OFFCURVE",
"259 545 CURVE SMOOTH",
"259 729 OFFCURVE",
"410 813 OFFCURVE",
"582 813 CURVE SMOOTH",
"763 813 OFFCURVE",
"907 706 OFFCURVE",
"907 540 CURVE SMOOTH",
"907 362 OFFCURVE",
"772 280 OFFCURVE",
"571 280 CURVE SMOOTH"
);
},
{
closed = 1;
nodes = (
"434 319 OFFCURVE",
"349 280 OFFCURVE",
"349 214 CURVE SMOOTH",
"349 117 OFFCURVE",
"461 128 OFFCURVE",
"589 128 CURVE SMOOTH",
"855 128 OFFCURVE",
"994 61 OFFCURVE",
"994 -128 CURVE SMOOTH",
"994 -308 OFFCURVE",
"789 -382 OFFCURVE",
"605 -382 CURVE SMOOTH",
"418 -382 OFFCURVE",
"228 -316 OFFCURVE",
"228 -118 CURVE SMOOTH",
"228 -17 OFFCURVE",
"281 56 OFFCURVE",
"317 99 CURVE",
"397 56 LINE",
"378 42 OFFCURVE",
"324 -35 OFFCURVE",
"324 -118 CURVE SMOOTH",
"324 -238 OFFCURVE",
"457 -295 OFFCURVE",
"603 -295 CURVE SMOOTH",
"725 -295 OFFCURVE",
"898 -252 OFFCURVE",
"898 -128 CURVE SMOOTH",
"898 14 OFFCURVE",
"767 43 OFFCURVE",
"601 43 CURVE SMOOTH",
"412 43 OFFCURVE",
"253 36 OFFCURVE",
"253 201 CURVE SMOOTH",
"253 295 OFFCURVE",
"317 341 OFFCURVE",
"349 371 CURVE",
"436 321 LINE"
);
}
);
width = 1240;
},
{
anchors = (
{
name = bottom;
position = "{620, 0}";
},
{
name = top;
position = "{620, 774}";
},
{
name = topright;
position = "{621, 890}";
}
);
layerId = "F2E12B84-E402-48AA-89E7-06534AE23493";
paths = (
{
closed = 1;
nodes = (
"669 421 OFFCURVE",
"736 459 OFFCURVE",
"736 539 CURVE SMOOTH",
"736 624 OFFCURVE",
"673 671 OFFCURVE",
"591 671 CURVE SMOOTH",
"510 671 OFFCURVE",
"450 622 OFFCURVE",
"450 544 CURVE SMOOTH",
"450 472 OFFCURVE",
"507 421 OFFCURVE",
"588 421 CURVE SMOOTH"
);
},
{
closed = 1;
nodes = (
"853 748 OFFCURVE",
"918 828 OFFCURVE",
"1007 828 CURVE SMOOTH",
"1077 828 OFFCURVE",
"1192 813 OFFCURVE",
"1192 732 CURVE SMOOTH",
"1192 660 OFFCURVE",
"1135 637 OFFCURVE",
"1105 637 CURVE SMOOTH",
"1062 637 OFFCURVE",
"1013 663 OFFCURVE",
"981 691 CURVE",
"900 638 LINE",
"824 718 LINE"
);
},
{
closed = 1;
nodes = (
"375 280 OFFCURVE",
"209 390 OFFCURVE",
"209 545 CURVE SMOOTH",
"209 729 OFFCURVE",
"360 813 OFFCURVE",
"592 813 CURVE SMOOTH",
"813 813 OFFCURVE",
"957 706 OFFCURVE",
"957 540 CURVE SMOOTH",
"957 362 OFFCURVE",
"822 280 OFFCURVE",
"581 280 CURVE SMOOTH"
);
},
{
closed = 1;
nodes = (
"457 319 OFFCURVE",
"419 280 OFFCURVE",
"419 231 CURVE SMOOTH",
"419 158 OFFCURVE",
"531 156 OFFCURVE",
"589 156 CURVE SMOOTH",
"915 156 OFFCURVE",
"1054 61 OFFCURVE",
"1054 -128 CURVE SMOOTH",
"1054 -308 OFFCURVE",
"849 -382 OFFCURVE",
"605 -382 CURVE SMOOTH",
"358 -382 OFFCURVE",
"168 -306 OFFCURVE",
"168 -118 CURVE SMOOTH",
"168 -17 OFFCURVE",
"229 77 OFFCURVE",
"317 99 CURVE",
"484 18 LINE",
"458 24 OFFCURVE",
"404 -53 OFFCURVE",
"404 -108 CURVE SMOOTH",
"404 -178 OFFCURVE",
"477 -235 OFFCURVE",
"605 -235 CURVE SMOOTH",
"725 -235 OFFCURVE",
"808 -192 OFFCURVE",
"808 -118 CURVE SMOOTH",
"808 -26 OFFCURVE",
"697 3 OFFCURVE",
"601 3 CURVE SMOOTH",
"412 3 OFFCURVE",
"223 36 OFFCURVE",
"223 201 CURVE SMOOTH",
"223 295 OFFCURVE",
"287 341 OFFCURVE",
"329 381 CURVE",
"506 321 LINE"
);
}
);
width = 1240;
}
);
unicode = 0067;
},
{
glyphname = h;
lastChange = "2017-06-29 18:46:19 +0000";
layers = (
{
anchors = (
{
name = bottom;
position = "{620, 0}";
},
{
name = center;
position = "{620, 387}";
},
{
name = top;
position = "{347, 1080}";
}
);
layerId = "840BD324-B0A6-42B0-BD23-CB5E8C19394F";
paths = (
{
closed = 1;
nodes = (
"1099 0 LINE SMOOTH",
"1127 0 OFFCURVE",
"1141 21 OFFCURVE",
"1141 42 CURVE SMOOTH",
"1141 62 OFFCURVE",
"1128 82 OFFCURVE",
"1101 82 CURVE SMOOTH",
"992 82 LINE",
"992 523 LINE SMOOTH",
"992 707 OFFCURVE",
"894 813 OFFCURVE",
"691 813 CURVE SMOOTH",
"533 813 OFFCURVE",
"413 716 OFFCURVE",
"394 686 CURVE",
"396 567 LINE",
"420 621 OFFCURVE",
"535 731 OFFCURVE",
"696 731 CURVE SMOOTH",
"827 731 OFFCURVE",
"896 659 OFFCURVE",
"896 520 CURVE SMOOTH",
"896 82 LINE",
"750 82 LINE SMOOTH",
"722 82 OFFCURVE",
"708 63 OFFCURVE",
"708 43 CURVE SMOOTH",
"708 22 OFFCURVE",
"723 0 OFFCURVE",
"754 0 CURVE SMOOTH"
);
},
{
closed = 1;
nodes = (
"499 0 LINE SMOOTH",
"532 0 OFFCURVE",
"549 21 OFFCURVE",
"549 42 CURVE SMOOTH",
"549 62 OFFCURVE",
"533 82 OFFCURVE",
"501 82 CURVE SMOOTH",
"396 82 LINE",
"396 1141 LINE SMOOTH",
"396 1164 OFFCURVE",
"384 1180 OFFCURVE",
"355 1180 CURVE SMOOTH",
"349 1180 OFFCURVE",
"343 1179 OFFCURVE",
"335 1178 CURVE SMOOTH",
"146 1159 LINE SMOOTH",
"122 1157 OFFCURVE",
"113 1134 OFFCURVE",
"113 1118 CURVE SMOOTH",
"113 1098 OFFCURVE",
"128 1081 OFFCURVE",
"152 1082 CURVE SMOOTH",
"300 1091 LINE",
"300 82 LINE",
"192 82 LINE SMOOTH",
"164 82 OFFCURVE",
"150 63 OFFCURVE",
"150 43 CURVE SMOOTH",
"150 22 OFFCURVE",
"165 0 OFFCURVE",
"196 0 CURVE SMOOTH"
);
}
);
width = 1240;
},
{
anchors = (
{
name = bottom;
position = "{620, 0}";
},
{
name = center;
position = "{620, 387}";
},
{
name = top;
position = "{620, 774}";
}
);
layerId = "F2E12B84-E402-48AA-89E7-06534AE23493";
paths = (
{
closed = 1;
nodes = (
"1104 0 LINE SMOOTH",
"1132 0 OFFCURVE",
"1166 26 OFFCURVE",
"1166 82 CURVE SMOOTH",
"1166 137 OFFCURVE",
"1133 172 OFFCURVE",
"1106 172 CURVE SMOOTH",
"1057 172 LINE",
"1057 493 LINE SMOOTH",
"1057 697 OFFCURVE",
"949 813 OFFCURVE",
"716 813 CURVE SMOOTH",
"548 813 OFFCURVE",
"428 696 OFFCURVE",
"409 666 CURVE",
"411 497 LINE",
"427 559 OFFCURVE",
"550 641 OFFCURVE",
"661 641 CURVE SMOOTH",
"752 641 OFFCURVE",
"811 569 OFFCURVE",
"811 460 CURVE SMOOTH",
"811 172 LINE",
"755 172 LINE SMOOTH",
"727 172 OFFCURVE",
"693 143 OFFCURVE",
"693 85 CURVE SMOOTH",
"693 32 OFFCURVE",
"728 0 OFFCURVE",
"759 0 CURVE SMOOTH"
);
},
{
closed = 1;
nodes = (
"517 0 LINE SMOOTH",
"550 0 OFFCURVE",
"587 31 OFFCURVE",
"587 84 CURVE SMOOTH",
"587 142 OFFCURVE",
"551 172 OFFCURVE",
"519 172 CURVE SMOOTH",
"464 172 LINE",
"464 1141 LINE SMOOTH",
"464 1164 OFFCURVE",
"452 1180 OFFCURVE",
"425 1180 CURVE SMOOTH",
"420 1180 OFFCURVE",
"414 1179 OFFCURVE",
"407 1178 CURVE SMOOTH",
"140 1144 LINE SMOOTH",
"110 1140 OFFCURVE",
"81 1104 OFFCURVE",
"81 1054 CURVE SMOOTH",
"81 1010 OFFCURVE",
"116 976 OFFCURVE",
"146 979 CURVE SMOOTH",
"218 985 LINE",
"218 172 LINE",
"160 172 LINE SMOOTH",
"132 172 OFFCURVE",
"98 138 OFFCURVE",
"98 83 CURVE SMOOTH",
"98 27 OFFCURVE",
"133 0 OFFCURVE",
"164 0 CURVE SMOOTH"
);
}
);
width = 1240;
}
);
unicode = 0068;
},
{
glyphname = hbar;
lastChange = "2017-06-26 22:00:10 +0000";
layers = (
{
components = (
{
name = h;
}
);
layerId = "840BD324-B0A6-42B0-BD23-CB5E8C19394F";
paths = (
{
closed = 1;
nodes = (
"542 907 CURVE SMOOTH",
"180 907 LINE SMOOTH",
"142 907 OFFCURVE",
"129 917 OFFCURVE",
"129 944 CURVE SMOOTH",
"129 971 OFFCURVE",
"145 979 OFFCURVE",
"179 979 CURVE SMOOTH",
"540 979 LINE SMOOTH",
"573 979 OFFCURVE",
"589 971 OFFCURVE",
"589 944 CURVE SMOOTH",
"589 917 OFFCURVE",
"575 907 OFFCURVE"
);
}
);
width = 1240;
},
{
layerId = "F2E12B84-E402-48AA-89E7-06534AE23493";
width = 600;
}
);
unicode = 0127;
},
{
glyphname = i;
lastChange = "2017-06-29 17:57:10 +0000";
layers = (
{
anchors = (
{
name = bottom;
position = "{620, 0}";
}
);
layerId = "840BD324-B0A6-42B0-BD23-CB5E8C19394F";
paths = (
{
closed = 1;
nodes = (
"1044 0 LINE SMOOTH",
"1071 0 OFFCURVE",
"1085 22 OFFCURVE",
"1085 43 CURVE SMOOTH",
"1085 63 OFFCURVE",
"1072 86 OFFCURVE",
"1045 86 CURVE SMOOTH",
"712 86 LINE",
"712 779 LINE SMOOTH",
"712 799 OFFCURVE",
"697 811 OFFCURVE",
"676 811 CURVE SMOOTH",
"671 811 OFFCURVE",
"668 810 OFFCURVE",
"665 810 CURVE SMOOTH",
"267 755 LINE SMOOTH",
"245 752 OFFCURVE",
"235 734 OFFCURVE",
"235 715 CURVE SMOOTH",
"235 694 OFFCURVE",
"249 673 OFFCURVE",
"276 673 CURVE SMOOTH",
"275 673 OFFCURVE",
"548 710 OFFCURVE",
"616 719 CURVE",
"616 86 LINE",
"244 86 LINE SMOOTH",
"216 86 OFFCURVE",
"202 65 OFFCURVE",
"202 45 CURVE SMOOTH",
"202 24 OFFCURVE",
"217 0 OFFCURVE",
"248 0 CURVE SMOOTH"
);
},
{
closed = 1;
nodes = (
"691 990 OFFCURVE",
"731 1029 OFFCURVE",
"731 1080 CURVE SMOOTH",
"731 1130 OFFCURVE",
"691 1171 OFFCURVE",
"641 1171 CURVE SMOOTH",
"590 1171 OFFCURVE",
"550 1130 OFFCURVE",
"550 1080 CURVE SMOOTH",
"550 1029 OFFCURVE",
"590 990 OFFCURVE",
"641 990 CURVE SMOOTH"
);
}
);
width = 1240;
},
{
anchors = (
{
name = bottom;
position = "{620, 0}";
}
);
layerId = "F2E12B84-E402-48AA-89E7-06534AE23493";
paths = (
{
closed = 1;
nodes = (
"1014 0 LINE SMOOTH",
"1061 0 OFFCURVE",
"1085 45 OFFCURVE",
"1085 86 CURVE SMOOTH",
"1085 126 OFFCURVE",
"1062 172 OFFCURVE",
"1015 172 CURVE SMOOTH",
"792 172 LINE",
"792 779 LINE SMOOTH",
"792 799 OFFCURVE",
"777 811 OFFCURVE",
"756 811 CURVE SMOOTH",
"751 811 OFFCURVE",
"748 810 OFFCURVE",
"745 810 CURVE SMOOTH",
"307 759 LINE SMOOTH",
"245 752 OFFCURVE",
"235 709 OFFCURVE",
"235 674 CURVE SMOOTH",
"235 638 OFFCURVE",
"266 591 OFFCURVE",
"327 597 CURVE SMOOTH",
"328 597 OFFCURVE",
"451 611 OFFCURVE",
"536 619 CURVE",
"536 172 LINE",
"274 172 LINE SMOOTH",
"226 172 OFFCURVE",
"202 128 OFFCURVE",
"202 88 CURVE SMOOTH",
"202 47 OFFCURVE",
"227 0 OFFCURVE",
"278 0 CURVE SMOOTH"
);
},
{
closed = 1;
nodes = (
"748 953 OFFCURVE",
"824 1022 OFFCURVE",
"824 1109 CURVE SMOOTH",
"824 1193 OFFCURVE",
"748 1266 OFFCURVE",
"652 1266 CURVE SMOOTH",
"555 1266 OFFCURVE",
"479 1193 OFFCURVE",
"479 1109 CURVE SMOOTH",
"479 1022 OFFCURVE",
"555 953 OFFCURVE",
"652 953 CURVE SMOOTH"
);
}
);
width = 1240;
}
);
unicode = 0069;
},
{
glyphname = idotless;
lastChange = "2017-06-26 22:00:10 +0000";
layers = (
{
anchors = (
{
name = bottom;
position = "{620, 0}";
},
{
name = ogonek;
position = "{1116, 10}";
},
{
name = top;
position = "{670, 774}";
}
);
layerId = "840BD324-B0A6-42B0-BD23-CB5E8C19394F";
paths = (
{
closed = 1;
nodes = (
"299 0 LINE SMOOTH",
"268 0 OFFCURVE",
"253 24 OFFCURVE",
"253 45 CURVE SMOOTH",
"253 65 OFFCURVE",
"267 86 OFFCURVE",
"295 86 CURVE SMOOTH",
"667 86 LINE",
"667 719 LINE",
"334 674 LINE SMOOTH",
"331 674 OFFCURVE",
"329 673 OFFCURVE",
"327 673 CURVE SMOOTH",
"300 673 OFFCURVE",
"286 694 OFFCURVE",
"286 715 CURVE SMOOTH",
"286 734 OFFCURVE",
"296 752 OFFCURVE",
"318 755 CURVE SMOOTH",
"716 810 LINE SMOOTH",
"719 811 OFFCURVE",
"722 811 OFFCURVE",
"727 811 CURVE SMOOTH",
"748 811 OFFCURVE",
"763 799 OFFCURVE",
"763 779 CURVE SMOOTH",
"763 86 LINE",
"1096 86 LINE SMOOTH",
"1123 86 OFFCURVE",
"1136 63 OFFCURVE",
"1136 43 CURVE SMOOTH",
"1136 22 OFFCURVE",
"1122 0 OFFCURVE",
"1095 0 CURVE SMOOTH"
);
}
);
width = 1240;
},
{
layerId = "F2E12B84-E402-48AA-89E7-06534AE23493";
width = 600;
}
);
unicode = 0131;
},
{
glyphname = ij;
lastChange = "2017-06-26 22:00:10 +0000";
layers = (
{
layerId = "840BD324-B0A6-42B0-BD23-CB5E8C19394F";
paths = (
{
closed = 1;
nodes = (
"794 1130 OFFCURVE",
"834 1171 OFFCURVE",
"885 1171 CURVE SMOOTH",
"935 1171 OFFCURVE",
"975 1130 OFFCURVE",
"975 1080 CURVE SMOOTH",
"975 1029 OFFCURVE",
"935 990 OFFCURVE",
"885 990 CURVE SMOOTH",
"834 990 OFFCURVE",
"794 1029 OFFCURVE",
"794 1080 CURVE SMOOTH"
);
},
{
closed = 1;
nodes = (
"275 1130 OFFCURVE",
"315 1171 OFFCURVE",
"366 1171 CURVE SMOOTH",
"416 1171 OFFCURVE",
"456 1130 OFFCURVE",
"456 1080 CURVE SMOOTH",
"456 1029 OFFCURVE",
"416 990 OFFCURVE",
"366 990 CURVE SMOOTH",
"315 990 OFFCURVE",
"275 1029 OFFCURVE",
"275 1080 CURVE SMOOTH"
);
},
{
closed = 1;
nodes = (
"665 706 OFFCURVE",
"649 726 OFFCURVE",
"649 753 CURVE SMOOTH",
"649 772 OFFCURVE",
"662 789 OFFCURVE",
"700 792 CURVE SMOOTH",
"936 813 LINE SMOOTH",
"956 815 OFFCURVE",
"972 805 OFFCURVE",
"972 784 CURVE SMOOTH",
"972 50 LINE SMOOTH",
"972 -198 OFFCURVE",
"829 -309 OFFCURVE",
"584 -309 CURVE SMOOTH",
"551 -309 OFFCURVE",
"533 -287 OFFCURVE",
"533 -265 CURVE SMOOTH",
"533 -243 OFFCURVE",
"552 -220 OFFCURVE",
"591 -220 CURVE SMOOTH",
"766 -220 OFFCURVE",
"876 -155 OFFCURVE",
"876 50 CURVE SMOOTH",
"876 724 LINE",
"702 709 LINE SMOOTH"
);
},
{
closed = 1;
nodes = (
"317 727 LINE",
"147 711 LINE SMOOTH",
"110 708 OFFCURVE",
"96 733 OFFCURVE",
"96 754 CURVE SMOOTH",
"96 773 OFFCURVE",
"106 789 OFFCURVE",
"147 793 CURVE SMOOTH",
"374 813 LINE SMOOTH",
"398 815 OFFCURVE",
"413 798 OFFCURVE",
"413 774 CURVE SMOOTH",
"413 332 LINE SMOOTH",
"413 156 OFFCURVE",
"499 86 OFFCURVE",
"633 86 CURVE SMOOTH",
"771 86 OFFCURVE",
"876 168 OFFCURVE",
"876 321 CURVE",
"952 321 LINE",
"952 138 OFFCURVE",
"838 0 OFFCURVE",
"633 0 CURVE SMOOTH",
"426 0 OFFCURVE",
"317 113 OFFCURVE",
"317 332 CURVE SMOOTH"
);
}
);
width = 1240;
},
{
layerId = "F2E12B84-E402-48AA-89E7-06534AE23493";
width = 600;
}
);
unicode = 0133;
},
{
glyphname = j;
lastChange = "2017-06-30 17:50:34 +0000";
layers = (
{
layerId = "840BD324-B0A6-42B0-BD23-CB5E8C19394F";
paths = (
{
closed = 1;
nodes = (
"635 -310 OFFCURVE",
"825 -123 OFFCURVE",
"825 209 CURVE SMOOTH",
"825 784 LINE SMOOTH",
"825 805 OFFCURVE",
"809 815 OFFCURVE",
"789 813 CURVE SMOOTH",
"269 763 LINE SMOOTH",
"243 761 OFFCURVE",
"228 741 OFFCURVE",
"228 721 CURVE SMOOTH",
"228 700 OFFCURVE",
"244 678 OFFCURVE",
"273 681 CURVE SMOOTH",
"729 725 LINE",
"729 209 LINE SMOOTH",
"729 -66 OFFCURVE",
"573 -219 OFFCURVE",
"297 -219 CURVE SMOOTH",
"265 -219 OFFCURVE",
"246 -243 OFFCURVE",
"246 -265 CURVE SMOOTH",
"246 -287 OFFCURVE",
"264 -310 OFFCURVE",
"297 -310 CURVE SMOOTH"
);
},
{
closed = 1;
nodes = (
"789 990 OFFCURVE",
"829 1029 OFFCURVE",
"829 1080 CURVE SMOOTH",
"829 1130 OFFCURVE",
"789 1171 OFFCURVE",
"739 1171 CURVE SMOOTH",
"688 1171 OFFCURVE",
"648 1130 OFFCURVE",
"648 1080 CURVE SMOOTH",
"648 1029 OFFCURVE",
"688 990 OFFCURVE",
"739 990 CURVE SMOOTH"
);
}
);
width = 1240;
},
{
layerId = "F2E12B84-E402-48AA-89E7-06534AE23493";
paths = (
{
closed = 1;
nodes = (
"705 -340 OFFCURVE",
"895 -143 OFFCURVE",
"895 209 CURVE SMOOTH",
"895 774 LINE SMOOTH",
"895 805 OFFCURVE",
"879 815 OFFCURVE",
"851 813 CURVE SMOOTH",
"297 769 LINE SMOOTH",
"251 765 OFFCURVE",
"227 725 OFFCURVE",
"228 676 CURVE SMOOTH",
"229 630 OFFCURVE",
"260 594 OFFCURVE",
"318 598 CURVE SMOOTH",
"649 623 LINE",
"649 209 LINE SMOOTH",
"649 -26 OFFCURVE",
"503 -129 OFFCURVE",
"337 -129 CURVE SMOOTH",
"275 -129 OFFCURVE",
"226 -173 OFFCURVE",
"226 -235 CURVE SMOOTH",
"226 -297 OFFCURVE",
"274 -340 OFFCURVE",
"337 -340 CURVE SMOOTH"
);
},
{
closed = 1;
nodes = (
"834 953 OFFCURVE",
"910 1022 OFFCURVE",
"910 1109 CURVE SMOOTH",
"910 1193 OFFCURVE",
"834 1266 OFFCURVE",
"738 1266 CURVE SMOOTH",
"641 1266 OFFCURVE",
"565 1193 OFFCURVE",
"565 1109 CURVE SMOOTH",
"565 1022 OFFCURVE",
"641 953 OFFCURVE",
"738 953 CURVE SMOOTH"
);
}
);
width = 1240;
}
);
unicode = 006A;
},
{
glyphname = jdotless;
lastChange = "2017-06-26 22:00:10 +0000";
layers = (
{
anchors = (
{
name = bottom;
position = "{620, 0}";
},
{
name = top;
position = "{767, 774}";
}
);
layerId = "840BD324-B0A6-42B0-BD23-CB5E8C19394F";
paths = (
{
closed = 1;
nodes = (
"825 -123 OFFCURVE",
"635 -310 OFFCURVE",
"297 -310 CURVE SMOOTH",
"264 -310 OFFCURVE",
"246 -288 OFFCURVE",
"246 -266 CURVE SMOOTH",
"246 -244 OFFCURVE",
"265 -221 OFFCURVE",
"297 -221 CURVE SMOOTH",
"573 -221 OFFCURVE",
"729 -66 OFFCURVE",
"729 209 CURVE SMOOTH",
"729 725 LINE",
"273 681 LINE SMOOTH",
"244 678 OFFCURVE",
"228 700 OFFCURVE",
"228 721 CURVE SMOOTH",
"228 741 OFFCURVE",
"243 761 OFFCURVE",
"269 763 CURVE SMOOTH",
"789 813 LINE SMOOTH",
"809 815 OFFCURVE",
"825 805 OFFCURVE",
"825 784 CURVE SMOOTH",
"825 209 LINE SMOOTH"
);
}
);
width = 1240;
},
{
layerId = "F2E12B84-E402-48AA-89E7-06534AE23493";
width = 600;
}
);
unicode = 0237;
},
{
glyphname = k;
lastChange = "2017-07-02 17:56:37 +0000";
layers = (
{
anchors = (
{
name = bottom;
position = "{620, 0}";
},
{
name = top;
position = "{620, 774}";
}
);
layerId = "840BD324-B0A6-42B0-BD23-CB5E8C19394F";
paths = (
{
closed = 1;
nodes = (
"514 0 LINE SMOOTH",
"541 0 OFFCURVE",
"554 20 OFFCURVE",
"554 41 CURVE SMOOTH",
"554 61 OFFCURVE",
"541 82 OFFCURVE",
"515 82 CURVE SMOOTH",
"424 82 LINE",
"424 1150 LINE SMOOTH",
"424 1170 OFFCURVE",
"409 1182 OFFCURVE",
"388 1182 CURVE SMOOTH",
"383 1182 OFFCURVE",
"378 1181 OFFCURVE",
"376 1181 CURVE SMOOTH",
"142 1139 LINE SMOOTH",
"120 1135 OFFCURVE",
"110 1116 OFFCURVE",
"110 1092 CURVE SMOOTH",
"110 1071 OFFCURVE",
"135 1052 OFFCURVE",
"165 1057 CURVE SMOOTH",
"328 1082 LINE",
"328 82 LINE",
"196 82 LINE SMOOTH",
"168 82 OFFCURVE",
"154 62 OFFCURVE",
"154 42 CURVE SMOOTH",
"154 21 OFFCURVE",
"170 0 OFFCURVE",
"200 0 CURVE SMOOTH"
);
},
{
closed = 1;
nodes = (
"1048 0 LINE SMOOTH",
"1074 0 OFFCURVE",
"1088 20 OFFCURVE",
"1088 41 CURVE SMOOTH",
"1088 61 OFFCURVE",
"1075 82 OFFCURVE",
"1048 82 CURVE SMOOTH",
"961 82 LINE",
"620 446 LINE",
"550 400 LINE",
"849 82 LINE",
"749 82 LINE SMOOTH",
"718 82 OFFCURVE",
"703 62 OFFCURVE",
"703 41 CURVE SMOOTH",
"703 21 OFFCURVE",
"717 0 OFFCURVE",
"745 0 CURVE SMOOTH"
);
},
{
closed = 1;
nodes = (
"937 692 LINE",
"1026 692 LINE SMOOTH",
"1048 692 OFFCURVE",
"1066 711 OFFCURVE",
"1066 729 CURVE SMOOTH",
"1066 753 OFFCURVE",
"1054 775 OFFCURVE",
"1025 775 CURVE SMOOTH",
"718 775 LINE SMOOTH",
"687 775 OFFCURVE",
"672 754 OFFCURVE",
"672 733 CURVE SMOOTH",
"672 712 OFFCURVE",
"686 692 OFFCURVE",
"714 692 CURVE SMOOTH",
"807 692 LINE",
"424 387 LINE",
"424 284 LINE"
);
}
);
width = 1240;
},
{
anchors = (
{
name = bottom;
position = "{620, 0}";
},
{
name = top;
position = "{620, 774}";
}
);
layerId = "F2E12B84-E402-48AA-89E7-06534AE23493";
paths = (
{
closed = 1;
nodes = (
"514 0 LINE SMOOTH",
"561 0 OFFCURVE",
"584 48 OFFCURVE",
"584 89 CURVE SMOOTH",
"584 129 OFFCURVE",
"562 176 OFFCURVE",
"515 176 CURVE SMOOTH",
"487 176 LINE",
"484 1141 LINE SMOOTH",
"484 1164 OFFCURVE",
"472 1180 OFFCURVE",
"443 1180 CURVE SMOOTH",
"437 1180 OFFCURVE",
"431 1179 OFFCURVE",
"423 1178 CURVE SMOOTH",
"174 1159 LINE SMOOTH",
"130 1156 OFFCURVE",
"102 1131 OFFCURVE",
"102 1081 CURVE SMOOTH",
"102 1036 OFFCURVE",
"127 1002 OFFCURVE",
"181 1005 CURVE SMOOTH",
"228 1008 LINE",
"226 176 LINE",
"196 176 LINE SMOOTH",
"148 176 OFFCURVE",
"124 130 OFFCURVE",
"124 90 CURVE SMOOTH",
"124 49 OFFCURVE",
"150 0 OFFCURVE",
"200 0 CURVE SMOOTH"
);
},
{
closed = 1;
nodes = (
"1066 0 LINE SMOOTH",
"1112 0 OFFCURVE",
"1136 47 OFFCURVE",
"1136 88 CURVE SMOOTH",
"1136 128 OFFCURVE",
"1114 176 OFFCURVE",
"1066 176 CURVE SMOOTH",
"1031 176 LINE",
"780 506 LINE",
"600 410 LINE",
"789 176 LINE",
"749 176 LINE SMOOTH",
"708 176 OFFCURVE",
"683 129 OFFCURVE",
"683 88 CURVE SMOOTH",
"683 48 OFFCURVE",
"707 0 OFFCURVE",
"745 0 CURVE SMOOTH"
);
},
{
closed = 1;
nodes = (
"947 602 LINE",
"1016 602 LINE SMOOTH",
"1048 602 OFFCURVE",
"1076 647 OFFCURVE",
"1076 689 CURVE SMOOTH",
"1076 729 OFFCURVE",
"1054 775 OFFCURVE",
"1015 775 CURVE SMOOTH",
"648 775 LINE SMOOTH",
"607 775 OFFCURVE",
"582 729 OFFCURVE",
"582 688 CURVE SMOOTH",
"582 647 OFFCURVE",
"606 602 OFFCURVE",
"644 602 CURVE SMOOTH",
"693 602 LINE",
"463 410 LINE",
"473 217 LINE"
);
}
);
width = 1240;
}
);
unicode = 006B;
},
{
glyphname = kgreenlandic;
lastChange = "2017-06-26 22:00:10 +0000";
layers = (
{
layerId = "840BD324-B0A6-42B0-BD23-CB5E8C19394F";
paths = (
{
closed = 1;
nodes = (
"464 377 LINE",
"851 692 LINE",
"744 692 LINE SMOOTH",
"716 692 OFFCURVE",
"702 712 OFFCURVE",
"702 733 CURVE SMOOTH",
"702 754 OFFCURVE",
"717 775 OFFCURVE",
"748 775 CURVE SMOOTH",
"1065 775 LINE SMOOTH",
"1094 775 OFFCURVE",
"1106 753 OFFCURVE",
"1106 729 CURVE SMOOTH",
"1106 711 OFFCURVE",
"1088 692 OFFCURVE",
"1066 692 CURVE SMOOTH",
"971 692 LINE",
"662 429 LINE",
"1001 82 LINE",
"1088 82 LINE SMOOTH",
"1115 82 OFFCURVE",
"1128 61 OFFCURVE",
"1128 41 CURVE SMOOTH",
"1128 20 OFFCURVE",
"1114 0 OFFCURVE",
"1088 0 CURVE SMOOTH",
"775 0 LINE SMOOTH",
"747 0 OFFCURVE",
"733 21 OFFCURVE",
"733 41 CURVE SMOOTH",
"733 62 OFFCURVE",
"748 82 OFFCURVE",
"779 82 CURVE SMOOTH",
"884 82 LINE",
"595 381 LINE",
"464 283 LINE",
"464 82 LINE",
"535 82 LINE SMOOTH",
"561 82 OFFCURVE",
"574 61 OFFCURVE",
"574 41 CURVE SMOOTH",
"574 20 OFFCURVE",
"561 0 OFFCURVE",
"534 0 CURVE SMOOTH",
"200 0 LINE SMOOTH",
"170 0 OFFCURVE",
"154 21 OFFCURVE",
"154 42 CURVE SMOOTH",
"154 62 OFFCURVE",
"168 82 OFFCURVE",
"196 82 CURVE SMOOTH",
"371 82 LINE",
"371 692 LINE",
"193 692 LINE SMOOTH",
"160 692 OFFCURVE",
"150 713 OFFCURVE",
"150 734 CURVE SMOOTH",
"150 753 OFFCURVE",
"162 774 OFFCURVE",
"189 774 CURVE SMOOTH",
"428 774 LINE SMOOTH",
"449 774 OFFCURVE",
"464 760 OFFCURVE",
"464 736 CURVE SMOOTH"
);
}
);
width = 1240;
},
{
layerId = "F2E12B84-E402-48AA-89E7-06534AE23493";
width = 600;
}
);
unicode = 0138;
},
{
glyphname = l;
lastChange = "2017-06-30 17:54:31 +0000";
layers = (
{
anchors = (
{
name = bottom;
position = "{620, 0}";
},
{
name = center;
position = "{620, 387}";
},
{
name = top;
position = "{620, 1120}";
},
{
name = topright;
position = "{1110, 774}";
}
);
layerId = "840BD324-B0A6-42B0-BD23-CB5E8C19394F";
paths = (
{
closed = 1;
nodes = (
"1048 0 LINE SMOOTH",
"1085 0 OFFCURVE",
"1098 22 OFFCURVE",
"1098 43 CURVE SMOOTH",
"1098 63 OFFCURVE",
"1085 86 OFFCURVE",
"1049 86 CURVE SMOOTH",
"719 86 LINE",
"719 1150 LINE SMOOTH",
"719 1170 OFFCURVE",
"704 1182 OFFCURVE",
"683 1182 CURVE SMOOTH",
"678 1182 OFFCURVE",
"675 1181 OFFCURVE",
"672 1181 CURVE SMOOTH",
"254 1143 LINE SMOOTH",
"232 1140 OFFCURVE",
"222 1122 OFFCURVE",
"222 1103 CURVE SMOOTH",
"222 1082 OFFCURVE",
"236 1061 OFFCURVE",
"263 1061 CURVE SMOOTH",
"623 1090 LINE",
"623 86 LINE",
"264 86 LINE SMOOTH",
"226 86 OFFCURVE",
"212 64 OFFCURVE",
"212 44 CURVE SMOOTH",
"212 23 OFFCURVE",
"227 0 OFFCURVE",
"268 0 CURVE SMOOTH"
);
}
);
width = 1240;
},
{
layerId = "F2E12B84-E402-48AA-89E7-06534AE23493";
paths = (
{
closed = 1;
nodes = (
"1029 0 LINE SMOOTH",
"1076 0 OFFCURVE",
"1098 45 OFFCURVE",
"1098 86 CURVE SMOOTH",
"1098 126 OFFCURVE",
"1076 172 OFFCURVE",
"1030 172 CURVE SMOOTH",
"789 172 LINE",
"789 1150 LINE SMOOTH",
"789 1170 OFFCURVE",
"774 1182 OFFCURVE",
"753 1182 CURVE SMOOTH",
"748 1182 OFFCURVE",
"745 1181 OFFCURVE",
"742 1181 CURVE SMOOTH",
"284 1144 LINE SMOOTH",
"252 1141 OFFCURVE",
"222 1109 OFFCURVE",
"222 1060 CURVE SMOOTH",
"222 1009 OFFCURVE",
"256 973 OFFCURVE",
"293 975 CURVE SMOOTH",
"543 991 LINE",
"543 172 LINE",
"289 172 LINE SMOOTH",
"241 172 OFFCURVE",
"212 127 OFFCURVE",
"212 87 CURVE SMOOTH",
"212 46 OFFCURVE",
"242 0 OFFCURVE",
"293 0 CURVE SMOOTH"
);
}
);
width = 1240;
}
);
unicode = 006C;
},
{
glyphname = lj;
lastChange = "2017-06-26 22:00:10 +0000";
layers = (
{
layerId = "840BD324-B0A6-42B0-BD23-CB5E8C19394F";
paths = (
{
closed = 1;
nodes = (
"461 1182 OFFCURVE",
"476 1170 OFFCURVE",
"476 1150 CURVE SMOOTH",
"476 82 LINE",
"696 82 LINE SMOOTH",
"722 82 OFFCURVE",
"735 61 OFFCURVE",
"735 41 CURVE SMOOTH",
"735 20 OFFCURVE",
"722 0 OFFCURVE",
"695 0 CURVE SMOOTH",
"146 0 LINE SMOOTH",
"115 0 OFFCURVE",
"100 21 OFFCURVE",
"100 42 CURVE SMOOTH",
"100 62 OFFCURVE",
"114 82 OFFCURVE",
"142 82 CURVE SMOOTH",
"380 82 LINE",
"380 1090 LINE",
"146 1061 LINE SMOOTH",
"143 1061 OFFCURVE",
"141 1060 OFFCURVE",
"139 1060 CURVE SMOOTH",
"112 1060 OFFCURVE",
"98 1081 OFFCURVE",
"98 1102 CURVE SMOOTH",
"98 1121 OFFCURVE",
"108 1139 OFFCURVE",
"130 1142 CURVE SMOOTH",
"429 1181 LINE SMOOTH",
"432 1181 OFFCURVE",
"435 1182 OFFCURVE",
"440 1182 CURVE SMOOTH"
);
},
{
closed = 1;
nodes = (
"908 1130 OFFCURVE",
"948 1171 OFFCURVE",
"999 1171 CURVE SMOOTH",
"1049 1171 OFFCURVE",
"1089 1130 OFFCURVE",
"1089 1080 CURVE SMOOTH",
"1089 1029 OFFCURVE",
"1049 990 OFFCURVE",
"999 990 CURVE SMOOTH",
"948 990 OFFCURVE",
"908 1029 OFFCURVE",
"908 1080 CURVE SMOOTH"
);
},
{
closed = 1;
nodes = (
"1066 -198 OFFCURVE",
"923 -309 OFFCURVE",
"678 -309 CURVE SMOOTH",
"645 -309 OFFCURVE",
"627 -287 OFFCURVE",
"627 -265 CURVE SMOOTH",
"627 -243 OFFCURVE",
"646 -220 OFFCURVE",
"685 -220 CURVE SMOOTH",
"860 -220 OFFCURVE",
"970 -155 OFFCURVE",
"970 50 CURVE SMOOTH",
"970 732 LINE",
"704 702 LINE SMOOTH",
"675 699 OFFCURVE",
"660 724 OFFCURVE",
"660 745 CURVE SMOOTH",
"660 765 OFFCURVE",
"674 782 OFFCURVE",
"700 784 CURVE SMOOTH",
"1030 814 LINE SMOOTH",
"1050 816 OFFCURVE",
"1066 806 OFFCURVE",
"1066 785 CURVE SMOOTH",
"1066 50 LINE SMOOTH"
);
}
);
width = 1240;
},
{
layerId = "F2E12B84-E402-48AA-89E7-06534AE23493";
width = 600;
}
);
unicode = 01C9;
},
{
glyphname = lslash;
lastChange = "2017-06-26 22:00:10 +0000";
layers = (
{
components = (
{
name = l;
}
);
layerId = "840BD324-B0A6-42B0-BD23-CB5E8C19394F";
paths = (
{
closed = 1;
nodes = (
"918 807 OFFCURVE",
"924 807 OFFCURVE",
"930 807 CURVE SMOOTH",
"955 807 OFFCURVE",
"971 789 OFFCURVE",
"971 761 CURVE SMOOTH",
"971 742 OFFCURVE",
"959 735 OFFCURVE",
"933 724 CURVE SMOOTH",
"388 500 LINE SMOOTH",
"380 497 OFFCURVE",
"372 497 OFFCURVE",
"366 497 CURVE SMOOTH",
"341 497 OFFCURVE",
"326 515 OFFCURVE",
"326 543 CURVE SMOOTH",
"326 562 OFFCURVE",
"339 572 OFFCURVE",
"366 583 CURVE SMOOTH",
"911 804 LINE SMOOTH"
);
}
);
width = 1240;
},
{
layerId = "F2E12B84-E402-48AA-89E7-06534AE23493";
width = 600;
}
);
unicode = 0142;
},
{
glyphname = m;
lastChange = "2017-06-29 18:33:03 +0000";
layers = (
{
anchors = (
{
name = bottom;
position = "{620, 0}";
},
{
name = top;
position = "{620, 774}";
}
);
layerId = "840BD324-B0A6-42B0-BD23-CB5E8C19394F";
paths = (
{
closed = 1;
nodes = (
"394 0 LINE SMOOTH",
"427 0 OFFCURVE",
"444 21 OFFCURVE",
"444 42 CURVE SMOOTH",
"444 62 OFFCURVE",
"428 82 OFFCURVE",
"396 82 CURVE SMOOTH",
"311 82 LINE",
"311 639 LINE",
"302 759 LINE SMOOTH",
"300 782 OFFCURVE",
"290 798 OFFCURVE",
"263 798 CURVE SMOOTH",
"258 798 OFFCURVE",
"252 797 OFFCURVE",
"245 796 CURVE SMOOTH",
"81 763 LINE",
"57 757 OFFCURVE",
"48 738 OFFCURVE",
"48 722 CURVE SMOOTH",
"48 702 OFFCURVE",
"63 679 OFFCURVE",
"87 684 CURVE SMOOTH",
"215 709 LINE",
"215 82 LINE",
"107 82 LINE SMOOTH",
"79 82 OFFCURVE",
"65 63 OFFCURVE",
"65 43 CURVE SMOOTH",
"65 22 OFFCURVE",
"80 0 OFFCURVE",
"111 0 CURVE SMOOTH"
);
},
{
closed = 1;
nodes = (
"803 0 LINE SMOOTH",
"831 0 OFFCURVE",
"845 21 OFFCURVE",
"845 42 CURVE SMOOTH",
"845 62 OFFCURVE",
"832 82 OFFCURVE",
"805 82 CURVE SMOOTH",
"690 82 LINE",
"690 533 LINE SMOOTH",
"690 724 OFFCURVE",
"606 813 OFFCURVE",
"481 813 CURVE SMOOTH",
"339 813 OFFCURVE",
"285 684 OFFCURVE",
"280 669 CURVE",
"301 562 LINE",
"300 607 OFFCURVE",
"365 731 OFFCURVE",
"475 731 CURVE SMOOTH",
"556 731 OFFCURVE",
"594 659 OFFCURVE",
"594 540 CURVE SMOOTH",
"594 43 LINE SMOOTH",
"594 22 OFFCURVE",
"609 0 OFFCURVE",
"640 0 CURVE SMOOTH"
);
},
{
closed = 1;
nodes = (
"1178 0 LINE SMOOTH",
"1206 0 OFFCURVE",
"1220 21 OFFCURVE",
"1220 42 CURVE SMOOTH",
"1220 62 OFFCURVE",
"1207 82 OFFCURVE",
"1180 82 CURVE SMOOTH",
"1071 82 LINE",
"1071 533 LINE SMOOTH",
"1071 724 OFFCURVE",
"987 813 OFFCURVE",
"862 813 CURVE SMOOTH",
"719 813 OFFCURVE",
"651 709 OFFCURVE",
"641 695 CURVE",
"664 600 LINE",
"690 639 OFFCURVE",
"737 732 OFFCURVE",
"856 731 CURVE SMOOTH",
"937 730 OFFCURVE",
"975 659 OFFCURVE",
"975 540 CURVE SMOOTH",
"975 43 LINE SMOOTH",
"975 22 OFFCURVE",
"990 0 OFFCURVE",
"1021 0 CURVE SMOOTH"
);
}
);
width = 1240;
},
{
anchors = (
{
name = bottom;
position = "{620, 0}";
},
{
name = top;
position = "{620, 774}";
}
);
layerId = "F2E12B84-E402-48AA-89E7-06534AE23493";
paths = (
{
closed = 1;
nodes = (
"416 0 LINE SMOOTH",
"464 0 OFFCURVE",
"491 41 OFFCURVE",
"491 84 CURVE SMOOTH",
"491 132 OFFCURVE",
"465 172 OFFCURVE",
"418 172 CURVE SMOOTH",
"388 172 LINE",
"388 639 LINE",
"379 769 LINE SMOOTH",
"377 792 OFFCURVE",
"367 808 OFFCURVE",
"340 808 CURVE SMOOTH",
"335 808 OFFCURVE",
"329 807 OFFCURVE",
"322 806 CURVE SMOOTH",
"104 774 LINE SMOOTH",
"74 770 OFFCURVE",
"45 734 OFFCURVE",
"45 684 CURVE SMOOTH",
"45 640 OFFCURVE",
"80 606 OFFCURVE",
"110 609 CURVE SMOOTH",
"182 615 LINE",
"182 172 LINE",
"134 172 LINE SMOOTH",
"91 172 OFFCURVE",
"62 128 OFFCURVE",
"62 83 CURVE SMOOTH",
"62 37 OFFCURVE",
"92 0 OFFCURVE",
"138 0 CURVE SMOOTH"
);
},
{
closed = 1;
nodes = (
"778 0 LINE SMOOTH",
"826 0 OFFCURVE",
"850 41 OFFCURVE",
"850 87 CURVE SMOOTH",
"850 132 OFFCURVE",
"827 172 OFFCURVE",
"780 172 CURVE SMOOTH",
"761 172 LINE",
"761 493 LINE SMOOTH",
"761 697 OFFCURVE",
"683 813 OFFCURVE",
"540 813 CURVE SMOOTH",
"382 813 OFFCURVE",
"363 696 OFFCURVE",
"364 686 CURVE",
"369 607 LINE",
"399 642 OFFCURVE",
"419 661 OFFCURVE",
"455 661 CURVE SMOOTH",
"518 661 OFFCURVE",
"545 569 OFFCURVE",
"545 460 CURVE SMOOTH",
"545 117 LINE SMOOTH",
"545 74 OFFCURVE",
"563 0 OFFCURVE",
"636 0 CURVE SMOOTH"
);
},
{
closed = 1;
nodes = (
"1158 0 LINE SMOOTH",
"1206 0 OFFCURVE",
"1230 41 OFFCURVE",
"1230 87 CURVE SMOOTH",
"1230 132 OFFCURVE",
"1207 172 OFFCURVE",
"1160 172 CURVE SMOOTH",
"1121 172 LINE",
"1121 493 LINE SMOOTH",
"1121 697 OFFCURVE",
"1043 813 OFFCURVE",
"900 813 CURVE SMOOTH",
"742 813 OFFCURVE",
"703 696 OFFCURVE",
"684 666 CURVE",
"729 597 LINE",
"759 642 OFFCURVE",
"779 651 OFFCURVE",
"815 651 CURVE SMOOTH",
"878 651 OFFCURVE",
"905 569 OFFCURVE",
"905 460 CURVE SMOOTH",
"905 117 LINE SMOOTH",
"905 74 OFFCURVE",
"923 0 OFFCURVE",
"996 0 CURVE SMOOTH"
);
}
);
width = 1240;
}
);
unicode = 006D;
},
{
glyphname = n;
lastChange = "2017-06-29 14:57:27 +0000";
layers = (
{
anchors = (
{
name = apo;
position = "{262, 942}";
},
{
name = bottom;
position = "{620, 0}";
},
{
name = top;
position = "{620, 774}";
}
);
layerId = "840BD324-B0A6-42B0-BD23-CB5E8C19394F";
paths = (
{
closed = 1;
nodes = (
"1099 0 LINE SMOOTH",
"1127 0 OFFCURVE",
"1141 21 OFFCURVE",
"1141 42 CURVE SMOOTH",
"1141 62 OFFCURVE",
"1128 82 OFFCURVE",
"1101 82 CURVE SMOOTH",
"992 82 LINE",
"992 523 LINE SMOOTH",
"992 707 OFFCURVE",
"894 813 OFFCURVE",
"691 813 CURVE SMOOTH",
"533 813 OFFCURVE",
"413 716 OFFCURVE",
"394 686 CURVE",
"396 567 LINE",
"420 621 OFFCURVE",
"535 731 OFFCURVE",
"696 731 CURVE SMOOTH",
"827 731 OFFCURVE",
"896 659 OFFCURVE",
"896 520 CURVE SMOOTH",
"896 82 LINE",
"750 82 LINE SMOOTH",
"722 82 OFFCURVE",
"708 63 OFFCURVE",
"708 43 CURVE SMOOTH",
"708 22 OFFCURVE",
"723 0 OFFCURVE",
"754 0 CURVE SMOOTH"
);
},
{
closed = 1;
nodes = (
"502 0 LINE SMOOTH",
"535 0 OFFCURVE",
"552 21 OFFCURVE",
"552 42 CURVE SMOOTH",
"552 62 OFFCURVE",
"536 82 OFFCURVE",
"504 82 CURVE SMOOTH",
"399 82 LINE",
"399 639 LINE",
"390 759 LINE SMOOTH",
"388 782 OFFCURVE",
"378 798 OFFCURVE",
"351 798 CURVE SMOOTH",
"346 798 OFFCURVE",
"340 797 OFFCURVE",
"333 796 CURVE SMOOTH",
"169 763 LINE",
"145 757 OFFCURVE",
"136 738 OFFCURVE",
"136 722 CURVE SMOOTH",
"136 702 OFFCURVE",
"151 684 OFFCURVE",
"175 684 CURVE SMOOTH",
"303 709 LINE",
"303 82 LINE",
"195 82 LINE SMOOTH",
"167 82 OFFCURVE",
"153 63 OFFCURVE",
"153 43 CURVE SMOOTH",
"153 22 OFFCURVE",
"168 0 OFFCURVE",
"199 0 CURVE SMOOTH"
);
}
);
width = 1240;
},
{
anchors = (
{
name = apo;
position = "{262, 942}";
},
{
name = bottom;
position = "{620, 0}";
},
{
name = top;
position = "{620, 774}";
}
);
layerId = "F2E12B84-E402-48AA-89E7-06534AE23493";
paths = (
{
closed = 1;
nodes = (
"1098 0 LINE SMOOTH",
"1146 0 OFFCURVE",
"1170 41 OFFCURVE",
"1170 87 CURVE SMOOTH",
"1170 132 OFFCURVE",
"1147 172 OFFCURVE",
"1100 172 CURVE SMOOTH",
"1061 172 LINE",
"1061 493 LINE SMOOTH",
"1061 697 OFFCURVE",
"953 813 OFFCURVE",
"720 813 CURVE SMOOTH",
"552 813 OFFCURVE",
"432 696 OFFCURVE",
"413 666 CURVE",
"415 497 LINE",
"431 559 OFFCURVE",
"554 641 OFFCURVE",
"665 641 CURVE SMOOTH",
"756 641 OFFCURVE",
"815 569 OFFCURVE",
"815 460 CURVE SMOOTH",
"815 172 LINE",
"769 172 LINE SMOOTH",
"726 172 OFFCURVE",
"697 133 OFFCURVE",
"697 85 CURVE SMOOTH",
"697 42 OFFCURVE",
"727 0 OFFCURVE",
"773 0 CURVE SMOOTH"
);
},
{
closed = 1;
nodes = (
"516 0 LINE SMOOTH",
"564 0 OFFCURVE",
"591 41 OFFCURVE",
"591 84 CURVE SMOOTH",
"591 132 OFFCURVE",
"565 172 OFFCURVE",
"518 172 CURVE SMOOTH",
"468 172 LINE",
"468 639 LINE",
"459 769 LINE SMOOTH",
"457 792 OFFCURVE",
"447 808 OFFCURVE",
"420 808 CURVE SMOOTH",
"415 808 OFFCURVE",
"409 807 OFFCURVE",
"402 806 CURVE SMOOTH",
"144 774 LINE SMOOTH",
"114 770 OFFCURVE",
"85 734 OFFCURVE",
"85 684 CURVE SMOOTH",
"85 640 OFFCURVE",
"120 606 OFFCURVE",
"150 609 CURVE SMOOTH",
"222 615 LINE",
"222 172 LINE",
"174 172 LINE SMOOTH",
"131 172 OFFCURVE",
"102 128 OFFCURVE",
"102 83 CURVE SMOOTH",
"102 37 OFFCURVE",
"132 0 OFFCURVE",
"178 0 CURVE SMOOTH"
);
}
);
width = 1240;
}
);
unicode = 006E;
},
{
glyphname = eng;
lastChange = "2017-06-26 22:00:10 +0000";
layers = (
{
layerId = "840BD324-B0A6-42B0-BD23-CB5E8C19394F";
paths = (
{
closed = 1;
nodes = (
"545 731 OFFCURVE",
"430 621 OFFCURVE",
"406 567 CURVE",
"406 691 LINE",
"425 721 OFFCURVE",
"553 813 OFFCURVE",
"711 813 CURVE SMOOTH",
"894 813 OFFCURVE",
"1012 707 OFFCURVE",
"1012 483 CURVE SMOOTH",
"1012 31 LINE SMOOTH",
"1012 -247 OFFCURVE",
"739 -358 OFFCURVE",
"514 -358 CURVE SMOOTH",
"481 -358 OFFCURVE",
"463 -336 OFFCURVE",
"463 -314 CURVE SMOOTH",
"463 -292 OFFCURVE",
"482 -269 OFFCURVE",
"521 -269 CURVE SMOOTH",
"676 -269 OFFCURVE",
"916 -204 OFFCURVE",
"916 41 CURVE SMOOTH",
"916 490 LINE SMOOTH",
"916 659 OFFCURVE",
"837 731 OFFCURVE",
"716 731 CURVE SMOOTH"
);
},
{
closed = 1;
nodes = (
"416 82 LINE",
"521 82 LINE SMOOTH",
"553 82 OFFCURVE",
"569 62 OFFCURVE",
"569 42 CURVE SMOOTH",
"569 21 OFFCURVE",
"552 0 OFFCURVE",
"519 0 CURVE SMOOTH",
"216 0 LINE SMOOTH",
"185 0 OFFCURVE",
"170 22 OFFCURVE",
"170 43 CURVE SMOOTH",
"170 63 OFFCURVE",
"184 82 OFFCURVE",
"212 82 CURVE SMOOTH",
"320 82 LINE",
"320 709 LINE",
"212 687 LINE SMOOTH",
"205 685 OFFCURVE",
"198 684 OFFCURVE",
"192 684 CURVE SMOOTH",
"168 684 OFFCURVE",
"153 702 OFFCURVE",
"153 722 CURVE SMOOTH",
"153 738 OFFCURVE",
"162 757 OFFCURVE",
"186 763 CURVE",
"350 796 LINE SMOOTH",
"357 797 OFFCURVE",
"363 798 OFFCURVE",
"368 798 CURVE SMOOTH",
"395 798 OFFCURVE",
"405 782 OFFCURVE",
"407 759 CURVE SMOOTH",
"416 639 LINE",
"416 503 LINE"
);
}
);
width = 1240;
},
{
layerId = "F2E12B84-E402-48AA-89E7-06534AE23493";
width = 600;
}
);
unicode = 014B;
},
{
glyphname = nj;
lastChange = "2017-06-26 22:00:10 +0000";
layers = (
{
layerId = "840BD324-B0A6-42B0-BD23-CB5E8C19394F";
paths = (
{
closed = 1;
nodes = (
"238 82 LINE",
"333 82 LINE SMOOTH",
"365 82 OFFCURVE",
"381 62 OFFCURVE",
"381 42 CURVE SMOOTH",
"381 21 OFFCURVE",
"364 0 OFFCURVE",
"331 0 CURVE SMOOTH",
"88 0 LINE SMOOTH",
"57 0 OFFCURVE",
"42 22 OFFCURVE",
"42 43 CURVE SMOOTH",
"42 63 OFFCURVE",
"56 82 OFFCURVE",
"84 82 CURVE SMOOTH",
"142 82 LINE",
"142 709 LINE",
"84 699 LINE SMOOTH",
"77 697 OFFCURVE",
"70 696 OFFCURVE",
"64 696 CURVE SMOOTH",
"40 696 OFFCURVE",
"25 714 OFFCURVE",
"25 734 CURVE SMOOTH",
"25 750 OFFCURVE",
"34 769 OFFCURVE",
"58 775 CURVE",
"172 796 LINE SMOOTH",
"179 797 OFFCURVE",
"185 798 OFFCURVE",
"190 798 CURVE SMOOTH",
"217 798 OFFCURVE",
"226 782 OFFCURVE",
"229 759 CURVE SMOOTH",
"238 699 LINE"
);
},
{
closed = 1;
nodes = (
"953 1130 OFFCURVE",
"993 1171 OFFCURVE",
"1044 1171 CURVE SMOOTH",
"1094 1171 OFFCURVE",
"1134 1130 OFFCURVE",
"1134 1080 CURVE SMOOTH",
"1134 1029 OFFCURVE",
"1094 990 OFFCURVE",
"1044 990 CURVE SMOOTH",
"993 990 OFFCURVE",
"953 1029 OFFCURVE",
"953 1080 CURVE SMOOTH"
);
},
{
closed = 1;
nodes = (
"1136 -178 OFFCURVE",
"973 -309 OFFCURVE",
"748 -309 CURVE SMOOTH",
"715 -309 OFFCURVE",
"697 -287 OFFCURVE",
"697 -265 CURVE SMOOTH",
"697 -243 OFFCURVE",
"716 -220 OFFCURVE",
"755 -220 CURVE SMOOTH",
"910 -220 OFFCURVE",
"1040 -135 OFFCURVE",
"1040 40 CURVE SMOOTH",
"1040 727 LINE",
"854 712 LINE SMOOTH",
"825 710 OFFCURVE",
"810 734 OFFCURVE",
"810 755 CURVE SMOOTH",
"810 775 OFFCURVE",
"824 792 OFFCURVE",
"850 794 CURVE SMOOTH",
"1100 814 LINE SMOOTH",
"1120 816 OFFCURVE",
"1136 806 OFFCURVE",
"1136 785 CURVE SMOOTH",
"1136 37 LINE SMOOTH"
);
},
{
closed = 1;
nodes = (
"255 721 OFFCURVE",
"373 813 OFFCURVE",
"491 813 CURVE SMOOTH",
"664 813 OFFCURVE",
"745 707 OFFCURVE",
"747 523 CURVE SMOOTH",
"752 82 LINE",
"851 82 LINE SMOOTH",
"878 82 OFFCURVE",
"891 62 OFFCURVE",
"891 42 CURVE SMOOTH",
"891 21 OFFCURVE",
"877 0 OFFCURVE",
"849 0 CURVE SMOOTH",
"564 0 LINE SMOOTH",
"533 0 OFFCURVE",
"518 22 OFFCURVE",
"518 43 CURVE SMOOTH",
"518 63 OFFCURVE",
"532 82 OFFCURVE",
"560 82 CURVE SMOOTH",
"656 82 LINE",
"654 519 LINE SMOOTH",
"653 659 OFFCURVE",
"597 731 OFFCURVE",
"496 731 CURVE SMOOTH",
"365 731 OFFCURVE",
"260 631 OFFCURVE",
"236 567 CURVE",
"236 691 LINE"
);
}
);
width = 1240;
},
{
layerId = "F2E12B84-E402-48AA-89E7-06534AE23493";
width = 600;
}
);
unicode = 01CC;
},
{
glyphname = o;
lastChange = "2017-06-29 14:46:04 +0000";
layers = (
{
anchors = (
{
name = bottom;
position = "{620, 0}";
},
{
name = center;
position = "{620, 387}";
},
{
name = ogonek;
position = "{1116, 10}";
},
{
name = top;
position = "{620, 774}";
},
{
name = topright;
position = "{1257, 790}";
}
);
layerId = "840BD324-B0A6-42B0-BD23-CB5E8C19394F";
paths = (
{
closed = 1;
nodes = (
"873 -17 OFFCURVE",
"1044 145 OFFCURVE",
"1044 398 CURVE SMOOTH",
"1044 654 OFFCURVE",
"873 813 OFFCURVE",
"620 813 CURVE SMOOTH",
"367 813 OFFCURVE",
"196 654 OFFCURVE",
"196 398 CURVE SMOOTH",
"196 145 OFFCURVE",
"367 -17 OFFCURVE",
"620 -17 CURVE SMOOTH"
);
},
{
closed = 1;
nodes = (
"419 69 OFFCURVE",
"294 207 OFFCURVE",
"294 398 CURVE SMOOTH",
"294 588 OFFCURVE",
"419 727 OFFCURVE",
"620 727 CURVE SMOOTH",
"821 727 OFFCURVE",
"946 588 OFFCURVE",
"946 398 CURVE SMOOTH",
"946 207 OFFCURVE",
"821 69 OFFCURVE",
"620 69 CURVE SMOOTH"
);
}
);
width = 1240;
},
{
anchors = (
{
name = bottom;
position = "{620, 0}";
},
{
name = center;
position = "{620, 387}";
},
{
name = ogonek;
position = "{1116, 10}";
},
{
name = top;
position = "{620, 774}";
},
{
name = topright;
position = "{1220, 774}";
}
);
layerId = "F2E12B84-E402-48AA-89E7-06534AE23493";
paths = (
{
closed = 1;
nodes = (
"893 -17 OFFCURVE",
"1065 155 OFFCURVE",
"1065 398 CURVE SMOOTH",
"1065 644 OFFCURVE",
"893 813 OFFCURVE",
"620 813 CURVE SMOOTH",
"347 813 OFFCURVE",
"175 644 OFFCURVE",
"175 398 CURVE SMOOTH",
"175 155 OFFCURVE",
"347 -17 OFFCURVE",
"620 -17 CURVE SMOOTH"
);
},
{
closed = 1;
nodes = (
"491 165 OFFCURVE",
"422 270 OFFCURVE",
"422 397 CURVE SMOOTH",
"422 523 OFFCURVE",
"491 631 OFFCURVE",
"619 631 CURVE SMOOTH",
"749 631 OFFCURVE",
"819 523 OFFCURVE",
"819 397 CURVE SMOOTH",
"819 270 OFFCURVE",
"749 165 OFFCURVE",
"619 165 CURVE SMOOTH"
);
}
);
width = 1240;
}
);
unicode = 006F;
},
{
glyphname = oslash;
lastChange = "2017-06-26 22:00:10 +0000";
layers = (
{
components = (
{
name = o;
}
);
layerId = "840BD324-B0A6-42B0-BD23-CB5E8C19394F";
paths = (
{
closed = 1;
nodes = (
"396 -142 OFFCURVE",
"404 -134 OFFCURVE",
"410 -121 CURVE SMOOTH",
"891 888 LINE SMOOTH",
"893 892 OFFCURVE",
"894 896 OFFCURVE",
"894 900 CURVE SMOOTH",
"894 922 OFFCURVE",
"881 934 OFFCURVE",
"861 934 CURVE SMOOTH",
"848 934 OFFCURVE",
"839 929 OFFCURVE",
"834 917 CURVE SMOOTH",
"350 -95 LINE SMOOTH",
"348 -99 OFFCURVE",
"347 -103 OFFCURVE",
"347 -108 CURVE SMOOTH",
"347 -129 OFFCURVE",
"360 -142 OFFCURVE",
"380 -142 CURVE SMOOTH"
);
}
);
width = 1240;
},
{
layerId = "F2E12B84-E402-48AA-89E7-06534AE23493";
width = 600;
}
);
unicode = 00F8;
},
{
glyphname = oe;
lastChange = "2017-06-26 22:00:10 +0000";
layers = (
{
layerId = "840BD324-B0A6-42B0-BD23-CB5E8C19394F";
paths = (
{
closed = 1;
nodes = (
"671 465 LINE",
"1043 464 LINE",
"1043 641 OFFCURVE",
"960 732 OFFCURVE",
"877 732 CURVE SMOOTH",
"763 732 OFFCURVE",
"675 616 OFFCURVE",
"675 398 CURVE SMOOTH",
"675 164 OFFCURVE",
"774 72 OFFCURVE",
"876 72 CURVE SMOOTH",
"953 72 OFFCURVE",
"1003 112 OFFCURVE",
"1043 150 CURVE SMOOTH",
"1055 162 OFFCURVE",
"1070 167 OFFCURVE",
"1083 167 CURVE SMOOTH",
"1104 167 OFFCURVE",
"1116 148 OFFCURVE",
"1117 127 CURVE SMOOTH",
"1118 113 OFFCURVE",
"1112 98 OFFCURVE",
"1101 85 CURVE SMOOTH",
"1034 7 OFFCURVE",
"938 -10 OFFCURVE",
"876 -10 CURVE SMOOTH",
"765 -10 OFFCURVE",
"673 53 OFFCURVE",
"627 183 CURVE",
"584 75 OFFCURVE",
"517 -10 OFFCURVE",
"391 -10 CURVE SMOOTH",
"238 -10 OFFCURVE",
"115 126 OFFCURVE",
"115 398 CURVE SMOOTH",
"115 671 OFFCURVE",
"241 807 OFFCURVE",
"391 807 CURVE SMOOTH",
"513 807 OFFCURVE",
"599 727 OFFCURVE",
"625 615 CURVE",
"672 749 OFFCURVE",
"782 812 OFFCURVE",
"882 812 CURVE SMOOTH",
"1005 812 OFFCURVE",
"1128 695 OFFCURVE",
"1128 449 CURVE SMOOTH",
"1128 399 OFFCURVE",
"1098 372 OFFCURVE",
"1051 372 CURVE SMOOTH",
"672 372 LINE"
);
},
{
closed = 1;
nodes = (
"486 72 OFFCURVE",
"584 181 OFFCURVE",
"584 398 CURVE SMOOTH",
"584 615 OFFCURVE",
"486 723 OFFCURVE",
"391 723 CURVE SMOOTH",
"296 723 OFFCURVE",
"205 615 OFFCURVE",
"205 398 CURVE SMOOTH",
"205 181 OFFCURVE",
"296 72 OFFCURVE",
"391 72 CURVE SMOOTH"
);
}
);
width = 1240;
},
{
layerId = "F2E12B84-E402-48AA-89E7-06534AE23493";
width = 600;
}
);
unicode = 0153;
},
{
glyphname = p;
lastChange = "2017-06-30 18:16:27 +0000";
layers = (
{
anchors = (
{
name = bottom;
position = "{620, 0}";
},
{
name = top;
position = "{620, 774}";
}
);
layerId = "840BD324-B0A6-42B0-BD23-CB5E8C19394F";
paths = (
{
closed = 1;
nodes = (
"597 -370 LINE SMOOTH",
"628 -370 OFFCURVE",
"643 -348 OFFCURVE",
"643 -327 CURVE SMOOTH",
"643 -307 OFFCURVE",
"629 -288 OFFCURVE",
"601 -288 CURVE SMOOTH",
"385 -288 LINE",
"379 690 LINE",
"376 759 LINE SMOOTH",
"375 782 OFFCURVE",
"364 798 OFFCURVE",
"337 798 CURVE SMOOTH",
"332 798 OFFCURVE",
"326 797 OFFCURVE",
"319 796 CURVE SMOOTH",
"155 763 LINE",
"131 757 OFFCURVE",
"122 738 OFFCURVE",
"122 722 CURVE SMOOTH",
"122 702 OFFCURVE",
"137 684 OFFCURVE",
"161 684 CURVE SMOOTH",
"166 684 OFFCURVE",
"175 686 OFFCURVE",
"289 708 CURVE",
"289 -288 LINE",
"199 -288 LINE SMOOTH",
"172 -288 OFFCURVE",
"159 -308 OFFCURVE",
"159 -328 CURVE SMOOTH",
"159 -349 OFFCURVE",
"173 -370 OFFCURVE",
"201 -370 CURVE SMOOTH"
);
},
{
closed = 1;
nodes = (
"903 -17 OFFCURVE",
"1047 160 OFFCURVE",
"1047 398 CURVE SMOOTH",
"1047 640 OFFCURVE",
"908 813 OFFCURVE",
"673 813 CURVE SMOOTH",
"546 813 OFFCURVE",
"443 755 OFFCURVE",
"373 690 CURVE",
"379 586 LINE",
"443 669 OFFCURVE",
"536 731 OFFCURVE",
"671 731 CURVE SMOOTH",
"857 731 OFFCURVE",
"951 577 OFFCURVE",
"951 398 CURVE SMOOTH",
"951 221 OFFCURVE",
"854 65 OFFCURVE",
"663 65 CURVE SMOOTH",
"536 65 OFFCURVE",
"448 115 OFFCURVE",
"379 194 CURVE",
"379 89 LINE",
"459 25 OFFCURVE",
"540 -17 OFFCURVE",
"669 -17 CURVE SMOOTH"
);
}
);
width = 1240;
},
{
anchors = (
{
name = bottom;
position = "{620, 0}";
},
{
name = top;
position = "{620, 774}";
}
);
layerId = "F2E12B84-E402-48AA-89E7-06534AE23493";
paths = (
{
closed = 1;
nodes = (
"604 -401 LINE",
"667 -401 OFFCURVE",
"707 -364 OFFCURVE",
"707 -318 CURVE SMOOTH",
"707 -271 OFFCURVE",
"676 -227 OFFCURVE",
"607 -227 CURVE SMOOTH",
"487 -227 LINE",
"484 652 LINE",
"484 757 LINE SMOOTH",
"484 780 OFFCURVE",
"472 796 OFFCURVE",
"443 796 CURVE SMOOTH",
"437 796 OFFCURVE",
"431 795 OFFCURVE",
"423 794 CURVE SMOOTH",
"174 775 LINE SMOOTH",
"130 772 OFFCURVE",
"102 747 OFFCURVE",
"102 697 CURVE SMOOTH",
"102 652 OFFCURVE",
"127 618 OFFCURVE",
"181 621 CURVE SMOOTH",
"197 622 OFFCURVE",
"212 623 OFFCURVE",
"228 624 CURVE",
"226 -232 LINE",
"181 -232 LINE SMOOTH",
"119 -232 OFFCURVE",
"85 -260 OFFCURVE",
"85 -318 CURVE SMOOTH",
"85 -364 OFFCURVE",
"121 -401 OFFCURVE",
"174 -401 CURVE"
);
},
{
closed = 1;
nodes = (
"948 -17 OFFCURVE",
"1102 150 OFFCURVE",
"1102 398 CURVE SMOOTH",
"1102 650 OFFCURVE",
"949 813 OFFCURVE",
"694 813 CURVE SMOOTH",
"567 813 OFFCURVE",
"480 734 OFFCURVE",
"451 689 CURVE",
"460 526 LINE",
"485 554 OFFCURVE",
"537 621 OFFCURVE",
"642 621 CURVE SMOOTH",
"768 621 OFFCURVE",
"856 527 OFFCURVE",
"856 398 CURVE SMOOTH",
"856 271 OFFCURVE",
"769 165 OFFCURVE",
"638 165 CURVE SMOOTH",
"534 165 OFFCURVE",
"485 221 OFFCURVE",
"470 250 CURVE",
"478 84 LINE",
"497 52 OFFCURVE",
"565 -17 OFFCURVE",
"704 -17 CURVE SMOOTH"
);
}
);
width = 1240;
}
);
unicode = 0070;
},
{
glyphname = thorn;
lastChange = "2017-06-26 22:00:10 +0000";
layers = (
{
layerId = "840BD324-B0A6-42B0-BD23-CB5E8C19394F";
paths = (
{
closed = 1;
nodes = (
"409 1150 CURVE SMOOTH",
"409 690 LINE",
"473 755 OFFCURVE",
"570 813 OFFCURVE",
"697 813 CURVE SMOOTH",
"932 813 OFFCURVE",
"1071 640 OFFCURVE",
"1071 398 CURVE SMOOTH",
"1071 160 OFFCURVE",
"927 -17 OFFCURVE",
"693 -17 CURVE SMOOTH",
"564 -17 OFFCURVE",
"483 25 OFFCURVE",
"409 89 CURVE",
"409 -288 LINE",
"625 -288 LINE SMOOTH",
"653 -288 OFFCURVE",
"667 -307 OFFCURVE",
"667 -327 CURVE SMOOTH",
"667 -348 OFFCURVE",
"652 -370 OFFCURVE",
"621 -370 CURVE SMOOTH",
"225 -370 LINE SMOOTH",
"197 -370 OFFCURVE",
"183 -349 OFFCURVE",
"183 -328 CURVE SMOOTH",
"183 -308 OFFCURVE",
"196 -288 OFFCURVE",
"223 -288 CURVE SMOOTH",
"313 -288 LINE",
"313 1082 LINE",
"288 1079 OFFCURVE",
"153 1057 OFFCURVE",
"136 1057 CURVE SMOOTH",
"109 1057 OFFCURVE",
"96 1078 OFFCURVE",
"96 1099 CURVE SMOOTH",
"96 1118 OFFCURVE",
"106 1136 OFFCURVE",
"128 1139 CURVE SMOOTH",
"362 1181 LINE SMOOTH",
"364 1181 OFFCURVE",
"368 1182 OFFCURVE",
"373 1182 CURVE SMOOTH",
"394 1182 OFFCURVE",
"409 1170 OFFCURVE"
);
},
{
closed = 1;
nodes = (
"975 398 CURVE SMOOTH",
"975 577 OFFCURVE",
"881 731 OFFCURVE",
"695 731 CURVE SMOOTH",
"560 731 OFFCURVE",
"467 669 OFFCURVE",
"409 586 CURVE",
"409 194 LINE",
"472 115 OFFCURVE",
"560 65 OFFCURVE",
"687 65 CURVE SMOOTH",
"878 65 OFFCURVE",
"975 221 OFFCURVE"
);
}
);
width = 1240;
},
{
layerId = "F2E12B84-E402-48AA-89E7-06534AE23493";
width = 600;
}
);
unicode = 00FE;
},
{
glyphname = q;
lastChange = "2017-06-26 22:00:10 +0000";
layers = (
{
anchors = (
{
name = bottom;
position = "{620, 0}";
},
{
name = top;
position = "{620, 774}";
}
);
layerId = "840BD324-B0A6-42B0-BD23-CB5E8C19394F";
paths = (
{
closed = 1;
nodes = (
"982 -288 LINE",
"1068 -288 LINE SMOOTH",
"1095 -288 OFFCURVE",
"1108 -308 OFFCURVE",
"1108 -328 CURVE SMOOTH",
"1108 -349 OFFCURVE",
"1094 -370 OFFCURVE",
"1066 -370 CURVE SMOOTH",
"670 -370 LINE SMOOTH",
"639 -370 OFFCURVE",
"624 -348 OFFCURVE",
"624 -327 CURVE SMOOTH",
"624 -307 OFFCURVE",
"638 -288 OFFCURVE",
"666 -288 CURVE SMOOTH",
"882 -288 LINE",
"882 89 LINE",
"808 25 OFFCURVE",
"727 -17 OFFCURVE",
"598 -17 CURVE SMOOTH",
"364 -17 OFFCURVE",
"220 160 OFFCURVE",
"220 398 CURVE SMOOTH",
"220 640 OFFCURVE",
"359 813 OFFCURVE",
"594 813 CURVE SMOOTH",
"721 813 OFFCURVE",
"822 759 OFFCURVE",
"886 694 CURVE",
"886 707 OFFCURVE",
"886 719 OFFCURVE",
"886 729 CURVE SMOOTH",
"886 791 OFFCURVE",
"912 800 OFFCURVE",
"934 800 CURVE SMOOTH",
"957 800 OFFCURVE",
"982 791 OFFCURVE",
"982 724 CURVE SMOOTH"
);
},
{
closed = 1;
nodes = (
"316 398 CURVE SMOOTH",
"316 221 OFFCURVE",
"413 65 OFFCURVE",
"604 65 CURVE SMOOTH",
"731 65 OFFCURVE",
"819 115 OFFCURVE",
"882 194 CURVE",
"882 586 LINE",
"824 669 OFFCURVE",
"731 731 OFFCURVE",
"596 731 CURVE SMOOTH",
"410 731 OFFCURVE",
"316 577 OFFCURVE"
);
}
);
width = 1240;
},
{
layerId = "F2E12B84-E402-48AA-89E7-06534AE23493";
width = 600;
}
);
unicode = 0071;
},
{
glyphname = r;
lastChange = "2017-06-29 18:46:56 +0000";
layers = (
{
anchors = (
{
name = bottom;
position = "{620, 0}";
},
{
name = top;
position = "{670, 774}";
}
);
layerId = "840BD324-B0A6-42B0-BD23-CB5E8C19394F";
paths = (
{
closed = 1;
nodes = (
"875 0 LINE SMOOTH",
"902 0 OFFCURVE",
"916 21 OFFCURVE",
"916 41 CURVE SMOOTH",
"916 62 OFFCURVE",
"903 82 OFFCURVE",
"876 82 CURVE SMOOTH",
"540 82 LINE",
"540 516 LINE",
"605 643 OFFCURVE",
"749 720 OFFCURVE",
"920 720 CURVE",
"925 627 OFFCURVE",
"938 561 OFFCURVE",
"986 561 CURVE SMOOTH",
"1027 561 OFFCURVE",
"1046 593 OFFCURVE",
"1046 633 CURVE SMOOTH",
"1046 699 OFFCURVE",
"1014 797 OFFCURVE",
"904 797 CURVE SMOOTH",
"721 797 OFFCURVE",
"585 709 OFFCURVE",
"536 638 CURVE",
"532 742 LINE SMOOTH",
"531 775 OFFCURVE",
"526 798 OFFCURVE",
"494 798 CURVE SMOOTH",
"488 798 OFFCURVE",
"480 797 OFFCURVE",
"471 795 CURVE SMOOTH",
"300 761 LINE SMOOTH",
"280 757 OFFCURVE",
"270 740 OFFCURVE",
"270 723 CURVE SMOOTH",
"270 703 OFFCURVE",
"283 683 OFFCURVE",
"310 683 CURVE SMOOTH",
"444 709 LINE",
"444 82 LINE",
"261 82 LINE SMOOTH",
"233 82 OFFCURVE",
"219 62 OFFCURVE",
"219 42 CURVE SMOOTH",
"219 21 OFFCURVE",
"234 0 OFFCURVE",
"265 0 CURVE SMOOTH"
);
}
);
width = 1240;
},
{
anchors = (
{
name = bottom;
position = "{620, 0}";
},
{
name = top;
position = "{620, 774}";
}
);
layerId = "F2E12B84-E402-48AA-89E7-06534AE23493";
paths = (
{
closed = 1;
nodes = (
"803 0 LINE SMOOTH",
"851 0 OFFCURVE",
"878 41 OFFCURVE",
"878 84 CURVE SMOOTH",
"878 132 OFFCURVE",
"852 172 OFFCURVE",
"805 172 CURVE SMOOTH",
"565 172 LINE",
"565 443 LINE",
"641 566 OFFCURVE",
"818 612 OFFCURVE",
"887 612 CURVE",
"891 558 OFFCURVE",
"923 450 OFFCURVE",
"1001 450 CURVE SMOOTH",
"1071 450 OFFCURVE",
"1114 502 OFFCURVE",
"1114 609 CURVE SMOOTH",
"1114 710 OFFCURVE",
"1064 797 OFFCURVE",
"931 797 CURVE SMOOTH",
"748 797 OFFCURVE",
"608 693 OFFCURVE",
"565 639 CURVE",
"556 769 LINE SMOOTH",
"554 792 OFFCURVE",
"544 808 OFFCURVE",
"517 808 CURVE SMOOTH",
"512 808 OFFCURVE",
"506 807 OFFCURVE",
"499 806 CURVE SMOOTH",
"221 774 LINE SMOOTH",
"191 771 OFFCURVE",
"162 734 OFFCURVE",
"162 684 CURVE SMOOTH",
"162 640 OFFCURVE",
"197 607 OFFCURVE",
"227 609 CURVE SMOOTH",
"319 615 LINE",
"319 172 LINE",
"251 172 LINE SMOOTH",
"208 172 OFFCURVE",
"179 128 OFFCURVE",
"179 83 CURVE SMOOTH",
"179 37 OFFCURVE",
"209 0 OFFCURVE",
"255 0 CURVE SMOOTH"
);
}
);
width = 1240;
}
);
unicode = 0072;
},
{
glyphname = s;
lastChange = "2017-06-30 21:53:35 +0000";
layers = (
{
anchors = (
{
name = bottom;
position = "{620, 0}";
},
{
name = top;
position = "{620, 774}";
}
);
layerId = "840BD324-B0A6-42B0-BD23-CB5E8C19394F";
paths = (
{
closed = 1;
nodes = (
"400 693 OFFCURVE",
"492 731 OFFCURVE",
"599 731 CURVE SMOOTH",
"739 731 OFFCURVE",
"877 656 OFFCURVE",
"893 564 CURVE SMOOTH",
"898 537 OFFCURVE",
"907 519 OFFCURVE",
"928 519 CURVE SMOOTH",
"954 519 OFFCURVE",
"962 538 OFFCURVE",
"961 563 CURVE SMOOTH",
"950 759 LINE SMOOTH",
"948 786 OFFCURVE",
"933 810 OFFCURVE",
"904 810 CURVE SMOOTH",
"876 810 OFFCURVE",
"850 797 OFFCURVE",
"859 758 CURVE SMOOTH",
"876 685 LINE",
"865 730 OFFCURVE",
"744 813 OFFCURVE",
"599 813 CURVE SMOOTH",
"430 813 OFFCURVE",
"297 742 OFFCURVE",
"297 611 CURVE SMOOTH",
"297 330 OFFCURVE",
"871 419 OFFCURVE",
"871 199 CURVE SMOOTH",
"871 107 OFFCURVE",
"763 69 OFFCURVE",
"656 69 CURVE SMOOTH",
"514 69 OFFCURVE",
"380 171 OFFCURVE",
"361 265 CURVE SMOOTH",
"356 290 OFFCURVE",
"353 315 OFFCURVE",
"325 315 CURVE SMOOTH",
"301 315 OFFCURVE",
"289 298 OFFCURVE",
"290 261 CURVE SMOOTH",
"293 48 LINE SMOOTH",
"293 24 OFFCURVE",
"311 0 OFFCURVE",
"338 0 CURVE SMOOTH",
"369 0 OFFCURVE",
"389 24 OFFCURVE",
"386 51 CURVE SMOOTH",
"374 134 LINE",
"418 47 OFFCURVE",
"545 -17 OFFCURVE",
"662 -17 CURVE SMOOTH",
"820 -17 OFFCURVE",
"968 55 OFFCURVE",
"968 198 CURVE SMOOTH",
"968 507 OFFCURVE",
"400 412 OFFCURVE",
"400 611 CURVE SMOOTH"
);
}
);
width = 1240;
},
{
anchors = (
{
name = bottom;
position = "{620, 0}";
},
{
name = top;
position = "{620, 774}";
}
);
layerId = "F2E12B84-E402-48AA-89E7-06534AE23493";
paths = (
{
closed = 1;
nodes = (
"494 633 OFFCURVE",
"552 671 OFFCURVE",
"639 671 CURVE SMOOTH",
"729 671 OFFCURVE",
"838 609 OFFCURVE",
"868 544 CURVE SMOOTH",
"880 518 OFFCURVE",
"924 499 OFFCURVE",
"958 499 CURVE SMOOTH",
"1006 499 OFFCURVE",
"1032 518 OFFCURVE",
"1030 563 CURVE SMOOTH",
"1022 729 LINE SMOOTH",
"1019 786 OFFCURVE",
"973 810 OFFCURVE",
"924 810 CURVE SMOOTH",
"886 810 OFFCURVE",
"823 787 OFFCURVE",
"833 742 CURVE SMOOTH",
"840 711 LINE",
"835 730 OFFCURVE",
"734 813 OFFCURVE",
"589 813 CURVE SMOOTH",
"400 813 OFFCURVE",
"247 742 OFFCURVE",
"247 591 CURVE SMOOTH",
"247 300 OFFCURVE",
"781 369 OFFCURVE",
"781 209 CURVE SMOOTH",
"781 167 OFFCURVE",
"713 129 OFFCURVE",
"646 129 CURVE SMOOTH",
"504 129 OFFCURVE",
"413 207 OFFCURVE",
"401 285 CURVE SMOOTH",
"395 323 OFFCURVE",
"353 335 OFFCURVE",
"315 335 CURVE SMOOTH",
"281 335 OFFCURVE",
"237 318 OFFCURVE",
"236 281 CURVE SMOOTH",
"232 78 LINE SMOOTH",
"231 24 OFFCURVE",
"271 0 OFFCURVE",
"328 0 CURVE SMOOTH",
"383 0 OFFCURVE",
"430 24 OFFCURVE",
"422 74 CURVE SMOOTH",
"419 93 LINE",
"458 47 OFFCURVE",
"545 -17 OFFCURVE",
"712 -17 CURVE SMOOTH",
"900 -17 OFFCURVE",
"1038 55 OFFCURVE",
"1038 209 CURVE SMOOTH",
"1038 527 OFFCURVE",
"494 442 OFFCURVE",
"494 591 CURVE SMOOTH"
);
}
);
width = 1240;
}
);
unicode = 0073;
},
{
glyphname = germandbls;
lastChange = "2017-06-26 22:00:10 +0000";
layers = (
{
layerId = "840BD324-B0A6-42B0-BD23-CB5E8C19394F";
paths = (
{
closed = 1;
nodes = (
"958 894 CURVE SMOOTH",
"958 767 OFFCURVE",
"877 671 OFFCURVE",
"755 654 CURVE",
"941 634 OFFCURVE",
"1072 509 OFFCURVE",
"1072 323 CURVE SMOOTH",
"1072 137 OFFCURVE",
"955 0 OFFCURVE",
"769 0 CURVE SMOOTH",
"631 0 OFFCURVE",
"516 99 OFFCURVE",
"516 171 CURVE SMOOTH",
"516 193 OFFCURVE",
"532 211 OFFCURVE",
"555 211 CURVE SMOOTH",
"583 211 OFFCURVE",
"597 192 OFFCURVE",
"615 163 CURVE SMOOTH",
"646 113 OFFCURVE",
"716 85 OFFCURVE",
"769 85 CURVE SMOOTH",
"896 85 OFFCURVE",
"974 192 OFFCURVE",
"974 325 CURVE SMOOTH",
"974 470 OFFCURVE",
"852 570 OFFCURVE",
"679 606 CURVE SMOOTH",
"651 611 OFFCURVE",
"632 630 OFFCURVE",
"632 653 CURVE SMOOTH",
"632 672 OFFCURVE",
"651 689 OFFCURVE",
"679 695 CURVE SMOOTH",
"791 717 OFFCURVE",
"865 798 OFFCURVE",
"865 898 CURVE SMOOTH",
"865 1020 OFFCURVE",
"771 1101 OFFCURVE",
"631 1101 CURVE SMOOTH",
"484 1101 OFFCURVE",
"396 977 OFFCURVE",
"396 790 CURVE",
"396 40 LINE",
"396 15 OFFCURVE",
"377 0 OFFCURVE",
"345 0 CURVE SMOOTH",
"175 0 LINE SMOOTH",
"143 0 OFFCURVE",
"124 19 OFFCURVE",
"124 40 CURVE SMOOTH",
"124 67 OFFCURVE",
"139 86 OFFCURVE",
"173 86 CURVE SMOOTH",
"304 86 LINE",
"304 790 LINE SMOOTH",
"304 1029 OFFCURVE",
"429 1188 OFFCURVE",
"631 1188 CURVE SMOOTH",
"827 1188 OFFCURVE",
"958 1070 OFFCURVE"
);
}
);
width = 1240;
},
{
layerId = "F2E12B84-E402-48AA-89E7-06534AE23493";
width = 600;
}
);
unicode = 00DF;
},
{
glyphname = t;
lastChange = "2017-06-29 17:36:44 +0000";
layers = (
{
anchors = (
{
name = bottom;
position = "{620, 0}";
},
{
name = center;
position = "{620, 387}";
},
{
name = top;
position = "{690, 774}";
},
{
name = topright;
position = "{685, 1290}";
}
);
layerId = "840BD324-B0A6-42B0-BD23-CB5E8C19394F";
paths = (
{
closed = 1;
nodes = (
"867 -17 OFFCURVE",
"942 61 OFFCURVE",
"984 108 CURVE SMOOTH",
"990 115 OFFCURVE",
"997 125 OFFCURVE",
"997 139 CURVE SMOOTH",
"997 161 OFFCURVE",
"982 184 OFFCURVE",
"956 184 CURVE SMOOTH",
"945 184 OFFCURVE",
"937 181 OFFCURVE",
"928 173 CURVE SMOOTH",
"876 126 OFFCURVE",
"822 69 OFFCURVE",
"697 69 CURVE SMOOTH",
"593 69 OFFCURVE",
"495 126 OFFCURVE",
"495 268 CURVE SMOOTH",
"495 692 LINE",
"866 692 LINE SMOOTH",
"893 692 OFFCURVE",
"906 712 OFFCURVE",
"906 733 CURVE SMOOTH",
"906 753 OFFCURVE",
"893 774 OFFCURVE",
"867 774 CURVE SMOOTH",
"495 774 LINE",
"495 1013 LINE SMOOTH",
"495 1037 OFFCURVE",
"482 1058 OFFCURVE",
"449 1058 CURVE SMOOTH",
"423 1058 OFFCURVE",
"400 1037 OFFCURVE",
"400 1013 CURVE SMOOTH",
"400 966 OFFCURVE",
"399 893 OFFCURVE",
"399 774 CURVE",
"252 774 LINE SMOOTH",
"224 774 OFFCURVE",
"210 755 OFFCURVE",
"210 735 CURVE SMOOTH",
"210 714 OFFCURVE",
"225 692 OFFCURVE",
"256 692 CURVE SMOOTH",
"399 692 LINE",
"399 260 LINE SMOOTH",
"399 80 OFFCURVE",
"539 -17 OFFCURVE",
"687 -17 CURVE SMOOTH"
);
}
);
width = 1240;
},
{
anchors = (
{
name = bottom;
position = "{620, 0}";
},
{
name = center;
position = "{620, 387}";
},
{
name = top;
position = "{620, 774}";
},
{
name = topright;
position = "{1220, 774}";
}
);
layerId = "F2E12B84-E402-48AA-89E7-06534AE23493";
paths = (
{
closed = 1;
nodes = (
"847 -17 OFFCURVE",
"945 43 OFFCURVE",
"988 91 CURVE SMOOTH",
"1014 120 OFFCURVE",
"1032 148 OFFCURVE",
"1032 196 CURVE SMOOTH",
"1032 237 OFFCURVE",
"1002 274 OFFCURVE",
"951 274 CURVE SMOOTH",
"919 274 OFFCURVE",
"893 258 OFFCURVE",
"872 233 CURVE SMOOTH",
"839 193 OFFCURVE",
"812 159 OFFCURVE",
"737 159 CURVE SMOOTH",
"653 159 OFFCURVE",
"595 216 OFFCURVE",
"595 308 CURVE SMOOTH",
"595 612 LINE",
"836 612 LINE SMOOTH",
"893 612 OFFCURVE",
"926 652 OFFCURVE",
"926 693 CURVE SMOOTH",
"926 743 OFFCURVE",
"893 774 OFFCURVE",
"837 774 CURVE SMOOTH",
"595 774 LINE",
"595 943 LINE SMOOTH",
"595 1017 OFFCURVE",
"540 1058 OFFCURVE",
"474 1058 CURVE SMOOTH",
"408 1058 OFFCURVE",
"350 1017 OFFCURVE",
"350 943 CURVE SMOOTH",
"350 926 OFFCURVE",
"349 883 OFFCURVE",
"349 774 CURVE",
"282 774 LINE SMOOTH",
"224 774 OFFCURVE",
"190 745 OFFCURVE",
"190 695 CURVE SMOOTH",
"190 654 OFFCURVE",
"225 612 OFFCURVE",
"286 612 CURVE SMOOTH",
"349 612 LINE",
"349 260 LINE SMOOTH",
"349 60 OFFCURVE",
"539 -17 OFFCURVE",
"687 -17 CURVE SMOOTH"
);
}
);
width = 1240;
}
);
unicode = 0074;
},
{
glyphname = tbar;
lastChange = "2017-06-26 22:00:10 +0000";
layers = (
{
components = (
{
name = t;
}
);
layerId = "840BD324-B0A6-42B0-BD23-CB5E8C19394F";
paths = (
{
closed = 1;
nodes = (
"763 428 LINE SMOOTH",
"796 428 OFFCURVE",
"804 448 OFFCURVE",
"804 467 CURVE SMOOTH",
"804 486 OFFCURVE",
"798 504 OFFCURVE",
"765 504 CURVE SMOOTH",
"316 504 LINE SMOOTH",
"281 504 OFFCURVE",
"274 486 OFFCURVE",
"274 467 CURVE SMOOTH",
"274 448 OFFCURVE",
"283 428 OFFCURVE",
"320 428 CURVE SMOOTH"
);
}
);
width = 1240;
},
{
layerId = "F2E12B84-E402-48AA-89E7-06534AE23493";
width = 600;
}
);
unicode = 0167;
},
{
glyphname = u;
lastChange = "2017-06-30 18:10:07 +0000";
layers = (
{
anchors = (
{
name = bottom;
position = "{620, 0}";
},
{
name = ogonek;
position = "{1116, 10}";
},
{
name = top;
position = "{620, 774}";
},
{
name = topright;
position = "{1257, 790}";
}
);
layerId = "840BD324-B0A6-42B0-BD23-CB5E8C19394F";
paths = (
{
closed = 1;
nodes = (
"719 -17 OFFCURVE",
"812 40 OFFCURVE",
"873 109 CURVE",
"866 226 LINE",
"812 138 OFFCURVE",
"710 65 OFFCURVE",
"572 65 CURVE SMOOTH",
"438 65 OFFCURVE",
"366 148 OFFCURVE",
"366 269 CURVE SMOOTH",
"366 768 LINE SMOOTH",
"366 787 OFFCURVE",
"352 802 OFFCURVE",
"332 802 CURVE SMOOTH",
"330 802 OFFCURVE",
"324 801 OFFCURVE",
"145 765 CURVE SMOOTH",
"120 760 OFFCURVE",
"109 744 OFFCURVE",
"109 727 CURVE SMOOTH",
"109 706 OFFCURVE",
"127 684 OFFCURVE",
"155 684 CURVE SMOOTH",
"162 684 OFFCURVE",
"160 684 OFFCURVE",
"270 706 CURVE",
"270 272 LINE SMOOTH",
"270 91 OFFCURVE",
"387 -17 OFFCURVE",
"571 -17 CURVE SMOOTH"
);
},
{
closed = 1;
nodes = (
"1118 17 LINE SMOOTH",
"1143 20 OFFCURVE",
"1156 42 OFFCURVE",
"1156 61 CURVE SMOOTH",
"1156 79 OFFCURVE",
"1144 96 OFFCURVE",
"1116 96 CURVE SMOOTH",
"962 85 LINE",
"962 768 LINE SMOOTH",
"962 787 OFFCURVE",
"948 802 OFFCURVE",
"928 802 CURVE SMOOTH",
"926 802 OFFCURVE",
"920 801 OFFCURVE",
"742 765 CURVE SMOOTH",
"716 760 OFFCURVE",
"704 743 OFFCURVE",
"704 726 CURVE SMOOTH",
"704 705 OFFCURVE",
"722 683 OFFCURVE",
"751 683 CURVE SMOOTH",
"756 683 OFFCURVE",
"766 685 OFFCURVE",
"866 706 CURVE",
"866 134 LINE",
"878 47 LINE SMOOTH",
"883 13 OFFCURVE",
"899 -3 OFFCURVE",
"925 -3 CURVE SMOOTH"
);
}
);
width = 1240;
},
{
anchors = (
{
name = bottom;
position = "{620, 0}";
},
{
name = ogonek;
position = "{1109, 10}";
},
{
name = top;
position = "{620, 774}";
},
{
name = topright;
position = "{1220, 774}";
}
);
layerId = "F2E12B84-E402-48AA-89E7-06534AE23493";
paths = (
{
closed = 1;
nodes = (
"703 0 OFFCURVE",
"823 117 OFFCURVE",
"842 147 CURVE",
"840 316 LINE",
"824 254 OFFCURVE",
"701 172 OFFCURVE",
"590 172 CURVE SMOOTH",
"509 172 OFFCURVE",
"460 244 OFFCURVE",
"460 353 CURVE",
"460 737 LINE",
"460 780 OFFCURVE",
"456 813 OFFCURVE",
"410 813 CURVE SMOOTH",
"401 813 OFFCURVE",
"261 788 OFFCURVE",
"177 773 CURVE SMOOTH",
"130 765 OFFCURVE",
"95 749 OFFCURVE",
"95 703 CURVE SMOOTH",
"95 658 OFFCURVE",
"118 631 OFFCURVE",
"153 631 CURVE SMOOTH",
"162 631 OFFCURVE",
"166 631 OFFCURVE",
"214 641 CURVE",
"214 320 LINE SMOOTH",
"214 116 OFFCURVE",
"322 0 OFFCURVE",
"535 0 CURVE SMOOTH"
);
},
{
closed = 1;
nodes = (
"1091 13 LINE SMOOTH",
"1124 15 OFFCURVE",
"1150 53 OFFCURVE",
"1150 103 CURVE SMOOTH",
"1150 147 OFFCURVE",
"1121 180 OFFCURVE",
"1085 178 CURVE SMOOTH",
"1033 175 LINE",
"1032 737 LINE",
"1032 780 OFFCURVE",
"1028 813 OFFCURVE",
"982 813 CURVE SMOOTH",
"973 813 OFFCURVE",
"833 787 OFFCURVE",
"749 773 CURVE SMOOTH",
"702 765 OFFCURVE",
"667 749 OFFCURVE",
"667 703 CURVE SMOOTH",
"667 658 OFFCURVE",
"690 631 OFFCURVE",
"725 631 CURVE SMOOTH",
"734 631 OFFCURVE",
"739 631 OFFCURVE",
"787 641 CURVE",
"787 154 LINE",
"806 34 LINE SMOOTH",
"810 11 OFFCURVE",
"818 -7 OFFCURVE",
"845 -5 CURVE SMOOTH"
);
}
);
width = 1240;
}
);
unicode = 0075;
},
{
glyphname = v;
lastChange = "2017-06-26 22:00:10 +0000";
layers = (
{
anchors = (
{
name = bottom;
position = "{620, 0}";
},
{
name = top;
position = "{620, 774}";
}
);
layerId = "840BD324-B0A6-42B0-BD23-CB5E8C19394F";
paths = (
{
closed = 1;
nodes = (
"491 774 LINE SMOOTH",
"524 774 OFFCURVE",
"535 753 OFFCURVE",
"535 730 CURVE SMOOTH",
"535 710 OFFCURVE",
"524 692 OFFCURVE",
"492 692 CURVE SMOOTH",
"383 692 LINE",
"647 92 LINE",
"891 692 LINE",
"806 692 LINE SMOOTH",
"773 692 OFFCURVE",
"762 710 OFFCURVE",
"762 730 CURVE SMOOTH",
"762 753 OFFCURVE",
"774 774 OFFCURVE",
"807 774 CURVE SMOOTH",
"1071 774 LINE SMOOTH",
"1109 774 OFFCURVE",
"1123 756 OFFCURVE",
"1123 733 CURVE SMOOTH",
"1123 711 OFFCURVE",
"1110 692 OFFCURVE",
"1075 692 CURVE SMOOTH",
"986 692 LINE",
"719 54 LINE SMOOTH",
"693 -8 OFFCURVE",
"674 -14 OFFCURVE",
"647 -14 CURVE SMOOTH",
"620 -14 OFFCURVE",
"598 -8 OFFCURVE",
"567 59 CURVE SMOOTH",
"273 692 LINE",
"172 692 LINE SMOOTH",
"138 692 OFFCURVE",
"125 711 OFFCURVE",
"125 733 CURVE SMOOTH",
"125 756 OFFCURVE",
"138 774 OFFCURVE",
"176 774 CURVE SMOOTH"
);
}
);
width = 1240;
},
{
layerId = "F2E12B84-E402-48AA-89E7-06534AE23493";
width = 600;
}
);
unicode = 0076;
},
{
glyphname = w;
lastChange = "2017-06-26 22:00:10 +0000";
layers = (
{
anchors = (
{
name = bottom;
position = "{620, 0}";
},
{
name = top;
position = "{620, 774}";
}
);
layerId = "840BD324-B0A6-42B0-BD23-CB5E8C19394F";
paths = (
{
closed = 1;
nodes = (
"550 692 LINE",
"494 692 LINE SMOOTH",
"460 692 OFFCURVE",
"442 713 OFFCURVE",
"442 733 CURVE SMOOTH",
"442 754 OFFCURVE",
"460 774 OFFCURVE",
"498 774 CURVE SMOOTH",
"742 774 LINE SMOOTH",
"775 774 OFFCURVE",
"795 753 OFFCURVE",
"795 732 CURVE SMOOTH",
"795 712 OFFCURVE",
"775 692 OFFCURVE",
"743 692 CURVE SMOOTH",
"642 692 LINE",
"852 92 LINE",
"1027 691 LINE",
"966 692 LINE SMOOTH",
"933 693 OFFCURVE",
"912 713 OFFCURVE",
"912 733 CURVE SMOOTH",
"912 754 OFFCURVE",
"934 774 OFFCURVE",
"967 774 CURVE SMOOTH",
"1167 774 LINE SMOOTH",
"1205 774 OFFCURVE",
"1223 754 OFFCURVE",
"1223 733 CURVE SMOOTH",
"1223 713 OFFCURVE",
"1206 692 OFFCURVE",
"1171 692 CURVE SMOOTH",
"1113 692 LINE",
"921 54 LINE SMOOTH",
"902 -8 OFFCURVE",
"876 -14 OFFCURVE",
"849 -14 CURVE SMOOTH",
"822 -14 OFFCURVE",
"797 -8 OFFCURVE",
"773 59 CURVE SMOOTH"
);
},
{
closed = 1;
nodes = (
"504 54 LINE SMOOTH",
"480 -9 OFFCURVE",
"459 -14 OFFCURVE",
"432 -14 CURVE SMOOTH",
"405 -14 OFFCURVE",
"375 -9 OFFCURVE",
"352 59 CURVE SMOOTH",
"133 692 LINE",
"55 692 LINE SMOOTH",
"28 692 OFFCURVE",
"13 713 OFFCURVE",
"13 733 CURVE SMOOTH",
"13 754 OFFCURVE",
"28 774 OFFCURVE",
"59 774 CURVE SMOOTH",
"294 774 LINE SMOOTH",
"327 774 OFFCURVE",
"343 753 OFFCURVE",
"343 732 CURVE SMOOTH",
"343 712 OFFCURVE",
"327 692 OFFCURVE",
"295 692 CURVE SMOOTH",
"232 692 LINE",
"432 92 LINE",
"611 554 LINE",
"650 439 LINE"
);
}
);
width = 1240;
},
{
layerId = "F2E12B84-E402-48AA-89E7-06534AE23493";
width = 600;
}
);
unicode = 0077;
},
{
glyphname = x;
lastChange = "2017-06-26 22:00:10 +0000";
layers = (
{
anchors = (
{
name = bottom;
position = "{620, 0}";
},
{
name = top;
position = "{620, 774}";
}
);
layerId = "840BD324-B0A6-42B0-BD23-CB5E8C19394F";
paths = (
{
closed = 1;
nodes = (
"292 692 LINE",
"226 692 LINE SMOOTH",
"188 692 OFFCURVE",
"170 713 OFFCURVE",
"170 734 CURVE SMOOTH",
"170 754 OFFCURVE",
"187 774 OFFCURVE",
"222 774 CURVE SMOOTH",
"459 774 LINE SMOOTH",
"491 774 OFFCURVE",
"507 754 OFFCURVE",
"507 734 CURVE SMOOTH",
"507 713 OFFCURVE",
"490 692 OFFCURVE",
"457 692 CURVE SMOOTH",
"403 692 LINE",
"607 469 LINE",
"805 692 LINE",
"750 692 LINE SMOOTH",
"712 692 OFFCURVE",
"694 713 OFFCURVE",
"694 734 CURVE SMOOTH",
"694 754 OFFCURVE",
"711 774 OFFCURVE",
"746 774 CURVE SMOOTH",
"1003 774 LINE SMOOTH",
"1036 774 OFFCURVE",
"1052 754 OFFCURVE",
"1052 734 CURVE SMOOTH",
"1052 713 OFFCURVE",
"1035 692 OFFCURVE",
"1001 692 CURVE SMOOTH",
"923 692 LINE",
"666 403 LINE",
"554 406 LINE"
);
},
{
closed = 1;
nodes = (
"964 82 LINE",
"1035 82 LINE SMOOTH",
"1068 82 OFFCURVE",
"1084 62 OFFCURVE",
"1084 42 CURVE SMOOTH",
"1084 21 OFFCURVE",
"1067 0 OFFCURVE",
"1033 0 CURVE SMOOTH",
"772 0 LINE SMOOTH",
"734 0 OFFCURVE",
"716 21 OFFCURVE",
"716 42 CURVE SMOOTH",
"716 62 OFFCURVE",
"733 82 OFFCURVE",
"767 82 CURVE SMOOTH",
"852 82 LINE",
"612 340 LINE",
"391 82 LINE",
"460 82 LINE SMOOTH",
"492 82 OFFCURVE",
"508 62 OFFCURVE",
"508 42 CURVE SMOOTH",
"508 21 OFFCURVE",
"491 0 OFFCURVE",
"458 0 CURVE SMOOTH",
"212 0 LINE SMOOTH",
"174 0 OFFCURVE",
"156 21 OFFCURVE",
"156 42 CURVE SMOOTH",
"156 62 OFFCURVE",
"173 82 OFFCURVE",
"208 82 CURVE SMOOTH",
"281 82 LINE",
"554 406 LINE",
"666 403 LINE"
);
}
);
width = 1240;
},
{
layerId = "F2E12B84-E402-48AA-89E7-06534AE23493";
width = 600;
}
);
unicode = 0078;
},
{
glyphname = y;
lastChange = "2017-06-26 22:00:10 +0000";
layers = (
{
anchors = (
{
name = bottom;
position = "{910, 0}";
},
{
name = top;
position = "{620, 774}";
}
);
layerId = "840BD324-B0A6-42B0-BD23-CB5E8C19394F";
paths = (
{
closed = 1;
nodes = (
"506 -200 OFFCURVE",
"542 -145 OFFCURVE",
"566 -83 CURVE SMOOTH",
"597 -2 LINE",
"284 692 LINE",
"191 692 LINE SMOOTH",
"157 692 OFFCURVE",
"140 712 OFFCURVE",
"140 732 CURVE SMOOTH",
"140 753 OFFCURVE",
"158 774 OFFCURVE",
"196 774 CURVE SMOOTH",
"488 774 LINE SMOOTH",
"522 774 OFFCURVE",
"539 753 OFFCURVE",
"539 732 CURVE SMOOTH",
"539 712 OFFCURVE",
"523 692 OFFCURVE",
"490 692 CURVE SMOOTH",
"386 692 LINE",
"645 91 LINE",
"871 692 LINE",
"782 692 LINE SMOOTH",
"749 692 OFFCURVE",
"733 712 OFFCURVE",
"733 732 CURVE SMOOTH",
"733 753 OFFCURVE",
"750 774 OFFCURVE",
"783 774 CURVE SMOOTH",
"1048 774 LINE SMOOTH",
"1076 774 OFFCURVE",
"1095 754 OFFCURVE",
"1095 733 CURVE SMOOTH",
"1095 713 OFFCURVE",
"1077 692 OFFCURVE",
"1052 692 CURVE SMOOTH",
"973 692 LINE",
"663 -83 LINE SMOOTH",
"627 -173 OFFCURVE",
"586 -252 OFFCURVE",
"528 -302 CURVE SMOOTH",
"481 -344 OFFCURVE",
"432 -356 OFFCURVE",
"375 -357 CURVE SMOOTH",
"330 -358 OFFCURVE",
"295 -338 OFFCURVE",
"295 -296 CURVE SMOOTH",
"295 -249 OFFCURVE",
"349 -245 OFFCURVE",
"472 -230 CURVE"
);
}
);
width = 1240;
},
{
layerId = "F2E12B84-E402-48AA-89E7-06534AE23493";
width = 600;
}
);
unicode = 0079;
},
{
glyphname = z;
lastChange = "2017-07-02 18:04:00 +0000";
layers = (
{
anchors = (
{
name = bottom;
position = "{620, 0}";
},
{
name = top;
position = "{620, 774}";
}
);
layerId = "840BD324-B0A6-42B0-BD23-CB5E8C19394F";
paths = (
{
closed = 1;
nodes = (
"927 0 LINE SMOOTH",
"951 0 OFFCURVE",
"976 21 OFFCURVE",
"978 46 CURVE SMOOTH",
"998 315 LINE SMOOTH",
"1000 344 OFFCURVE",
"978 357 OFFCURVE",
"957 357 CURVE SMOOTH",
"936 357 OFFCURVE",
"916 343 OFFCURVE",
"913 319 CURVE SMOOTH",
"882 84 LINE",
"387 84 LINE",
"939 682 LINE SMOOTH",
"949 692 OFFCURVE",
"957 710 OFFCURVE",
"957 727 CURVE SMOOTH",
"957 750 OFFCURVE",
"942 772 OFFCURVE",
"896 772 CURVE SMOOTH",
"339 772 LINE SMOOTH",
"315 772 OFFCURVE",
"295 750 OFFCURVE",
"293 726 CURVE SMOOTH",
"273 500 LINE SMOOTH",
"270 467 OFFCURVE",
"296 450 OFFCURVE",
"318 450 CURVE SMOOTH",
"339 450 OFFCURVE",
"356 465 OFFCURVE",
"360 495 CURVE SMOOTH",
"388 690 LINE",
"829 690 LINE",
"295 109 LINE SMOOTH",
"284 97 OFFCURVE",
"278 81 OFFCURVE",
"278 59 CURVE SMOOTH",
"278 24 OFFCURVE",
"296 0 OFFCURVE",
"334 0 CURVE SMOOTH"
);
}
);
width = 1240;
},
{
anchors = (
{
name = bottom;
position = "{620, 0}";
},
{
name = top;
position = "{620, 774}";
}
);
layerId = "F2E12B84-E402-48AA-89E7-06534AE23493";
paths = (
{
closed = 1;
nodes = (
"989 0 LINE SMOOTH",
"1015 0 OFFCURVE",
"1046 21 OFFCURVE",
"1048 46 CURVE SMOOTH",
"1068 315 LINE SMOOTH",
"1071 354 OFFCURVE",
"1028 377 OFFCURVE",
"987 377 CURVE SMOOTH",
"946 377 OFFCURVE",
"910 353 OFFCURVE",
"903 319 CURVE SMOOTH",
"872 178 LINE",
"586 178 LINE",
"999 704 LINE SMOOTH",
"1009 716 OFFCURVE",
"1017 732 OFFCURVE",
"1017 749 CURVE SMOOTH",
"1017 772 OFFCURVE",
"1002 794 OFFCURVE",
"956 794 CURVE SMOOTH",
"256 794 LINE SMOOTH",
"225 794 OFFCURVE",
"205 772 OFFCURVE",
"203 748 CURVE SMOOTH",
"183 522 LINE SMOOTH",
"179 479 OFFCURVE",
"216 452 OFFCURVE",
"268 452 CURVE SMOOTH",
"309 452 OFFCURVE",
"339 479 OFFCURVE",
"350 517 CURVE SMOOTH",
"378 618 LINE",
"655 618 LINE",
"245 109 LINE SMOOTH",
"235 96 OFFCURVE",
"228 81 OFFCURVE",
"228 59 CURVE SMOOTH",
"228 24 OFFCURVE",
"246 0 OFFCURVE",
"284 0 CURVE SMOOTH"
);
}
);
width = 1240;
}
);
unicode = 007A;
},
{
glyphname = f_f;
lastChange = "2017-06-29 15:19:46 +0000";
layers = (
{
layerId = "840BD324-B0A6-42B0-BD23-CB5E8C19394F";
paths = (
{
closed = 1;
nodes = (
"435 0 LINE SMOOTH",
"462 0 OFFCURVE",
"475 20 OFFCURVE",
"475 41 CURVE SMOOTH",
"475 61 OFFCURVE",
"462 82 OFFCURVE",
"436 82 CURVE SMOOTH",
"344 82 LINE",
"343 684 LINE",
"585 684 LINE",
"677 684 LINE",
"677 82 LINE",
"599 82 LINE SMOOTH",
"571 82 OFFCURVE",
"557 62 OFFCURVE",
"557 42 CURVE SMOOTH",
"557 21 OFFCURVE",
"572 0 OFFCURVE",
"603 0 CURVE SMOOTH",
"1005 0 LINE SMOOTH",
"1032 0 OFFCURVE",
"1045 20 OFFCURVE",
"1045 41 CURVE SMOOTH",
"1045 61 OFFCURVE",
"1032 82 OFFCURVE",
"1006 82 CURVE SMOOTH",
"774 82 LINE",
"773 684 LINE",
"1012 683 LINE SMOOTH",
"1035 683 OFFCURVE",
"1057 703 OFFCURVE",
"1057 722 CURVE SMOOTH",
"1057 748 OFFCURVE",
"1034 764 OFFCURVE",
"1012 764 CURVE SMOOTH",
"774 766 LINE",
"774 832 LINE SMOOTH",
"774 1018 OFFCURVE",
"907 1103 OFFCURVE",
"1050 1111 CURVE",
"1100 1059 OFFCURVE",
"1191 1003 OFFCURVE",
"1223 1038 CURVE SMOOTH",
"1251 1069 OFFCURVE",
"1240 1112 OFFCURVE",
"1222 1133 CURVE SMOOTH",
"1190 1170 OFFCURVE",
"1139 1188 OFFCURVE",
"1076 1188 CURVE SMOOTH",
"832 1188 OFFCURVE",
"677 1059 OFFCURVE",
"677 838 CURVE SMOOTH",
"677 766 LINE",
"581 766 LINE",
"344 766 LINE",
"344 832 LINE SMOOTH",
"344 998 OFFCURVE",
"446 1105 OFFCURVE",
"607 1105 CURVE SMOOTH",
"713 1105 OFFCURVE",
"787 1016 OFFCURVE",
"787 1016 CURVE",
"789 1039 OFFCURVE",
"848 1060 OFFCURVE",
"820 1103 CURVE",
"798 1136 OFFCURVE",
"719 1188 OFFCURVE",
"606 1188 CURVE SMOOTH",
"382 1188 OFFCURVE",
"247 1029 OFFCURVE",
"247 838 CURVE SMOOTH",
"247 766 LINE",
"151 766 LINE SMOOTH",
"123 766 OFFCURVE",
"109 746 OFFCURVE",
"109 726 CURVE SMOOTH",
"109 705 OFFCURVE",
"124 684 OFFCURVE",
"155 684 CURVE SMOOTH",
"247 684 LINE",
"247 82 LINE",
"139 82 LINE SMOOTH",
"111 82 OFFCURVE",
"97 62 OFFCURVE",
"97 42 CURVE SMOOTH",
"97 21 OFFCURVE",
"112 0 OFFCURVE",
"143 0 CURVE SMOOTH"
);
}
);
width = 1240;
},
{
layerId = "F2E12B84-E402-48AA-89E7-06534AE23493";
width = 600;
}
);
},
{
glyphname = f_f_i;
lastChange = "2017-06-29 15:20:11 +0000";
layers = (
{
layerId = "840BD324-B0A6-42B0-BD23-CB5E8C19394F";
paths = (
{
closed = 1;
nodes = (
"503 0 LINE SMOOTH",
"530 0 OFFCURVE",
"543 20 OFFCURVE",
"543 41 CURVE SMOOTH",
"543 61 OFFCURVE",
"530 82 OFFCURVE",
"504 82 CURVE SMOOTH",
"402 82 LINE",
"401 684 LINE",
"683 684 LINE",
"775 684 LINE",
"775 82 LINE",
"677 82 LINE SMOOTH",
"649 82 OFFCURVE",
"635 62 OFFCURVE",
"635 42 CURVE SMOOTH",
"635 21 OFFCURVE",
"650 0 OFFCURVE",
"681 0 CURVE SMOOTH",
"1093 0 LINE SMOOTH",
"1120 0 OFFCURVE",
"1133 20 OFFCURVE",
"1133 41 CURVE SMOOTH",
"1133 61 OFFCURVE",
"1120 82 OFFCURVE",
"1094 82 CURVE SMOOTH",
"872 82 LINE",
"871 684 LINE",
"1454 684 LINE",
"1454 82 LINE",
"1288 82 LINE SMOOTH",
"1260 82 OFFCURVE",
"1246 63 OFFCURVE",
"1246 43 CURVE SMOOTH",
"1246 22 OFFCURVE",
"1261 0 OFFCURVE",
"1292 0 CURVE SMOOTH",
"1685 0 LINE SMOOTH",
"1712 0 OFFCURVE",
"1726 20 OFFCURVE",
"1726 41 CURVE SMOOTH",
"1726 61 OFFCURVE",
"1713 82 OFFCURVE",
"1686 82 CURVE SMOOTH",
"1550 82 LINE",
"1550 735 LINE SMOOTH",
"1550 762 OFFCURVE",
"1529 766 OFFCURVE",
"1503 766 CURVE SMOOTH",
"872 766 LINE",
"872 832 LINE SMOOTH",
"872 1008 OFFCURVE",
"975 1095 OFFCURVE",
"1148 1111 CURVE",
"1198 1059 OFFCURVE",
"1289 1003 OFFCURVE",
"1321 1038 CURVE SMOOTH",
"1349 1069 OFFCURVE",
"1338 1112 OFFCURVE",
"1320 1133 CURVE SMOOTH",
"1288 1170 OFFCURVE",
"1237 1188 OFFCURVE",
"1174 1188 CURVE SMOOTH",
"930 1188 OFFCURVE",
"775 1059 OFFCURVE",
"775 838 CURVE SMOOTH",
"775 766 LINE",
"679 766 LINE",
"402 766 LINE",
"402 832 LINE SMOOTH",
"402 998 OFFCURVE",
"534 1111 OFFCURVE",
"675 1111 CURVE SMOOTH",
"807 1111 OFFCURVE",
"873 1038 OFFCURVE",
"873 1038 CURVE",
"901 1069 OFFCURVE",
"952 1075 OFFCURVE",
"919 1113 CURVE",
"887 1150 OFFCURVE",
"807 1188 OFFCURVE",
"684 1188 CURVE SMOOTH",
"470 1188 OFFCURVE",
"305 1039 OFFCURVE",
"305 838 CURVE SMOOTH",
"305 766 LINE",
"209 766 LINE SMOOTH",
"181 766 OFFCURVE",
"167 746 OFFCURVE",
"167 726 CURVE SMOOTH",
"167 705 OFFCURVE",
"182 684 OFFCURVE",
"213 684 CURVE SMOOTH",
"305 684 LINE",
"305 82 LINE",
"197 82 LINE SMOOTH",
"169 82 OFFCURVE",
"155 62 OFFCURVE",
"155 42 CURVE SMOOTH",
"155 21 OFFCURVE",
"170 0 OFFCURVE",
"201 0 CURVE SMOOTH"
);
},
{
closed = 0;
nodes = (
"774 82 LINE",
"773 684 LINE"
);
},
{
closed = 0;
nodes = (
"774 766 LINE",
"774 832 LINE"
);
},
{
closed = 1;
nodes = (
"1444 1006 OFFCURVE",
"1407 1042 OFFCURVE",
"1407 1088 CURVE SMOOTH",
"1407 1134 OFFCURVE",
"1444 1171 OFFCURVE",
"1490 1171 CURVE SMOOTH",
"1536 1171 OFFCURVE",
"1572 1134 OFFCURVE",
"1572 1088 CURVE SMOOTH",
"1572 1042 OFFCURVE",
"1536 1006 OFFCURVE",
"1490 1006 CURVE SMOOTH"
);
}
);
width = 1860;
},
{
layerId = "F2E12B84-E402-48AA-89E7-06534AE23493";
width = 600;
}
);
},
{
glyphname = f_f_l;
lastChange = "2017-06-29 15:22:05 +0000";
layers = (
{
layerId = "840BD324-B0A6-42B0-BD23-CB5E8C19394F";
paths = (
{
closed = 1;
nodes = (
"503 0 LINE SMOOTH",
"530 0 OFFCURVE",
"543 20 OFFCURVE",
"543 41 CURVE SMOOTH",
"543 61 OFFCURVE",
"530 82 OFFCURVE",
"504 82 CURVE SMOOTH",
"402 82 LINE",
"401 684 LINE",
"683 684 LINE",
"775 684 LINE",
"775 82 LINE",
"674 82 LINE SMOOTH",
"646 82 OFFCURVE",
"632 62 OFFCURVE",
"632 42 CURVE SMOOTH",
"632 21 OFFCURVE",
"647 0 OFFCURVE",
"678 0 CURVE SMOOTH",
"1073 0 LINE SMOOTH",
"1100 0 OFFCURVE",
"1113 20 OFFCURVE",
"1113 41 CURVE SMOOTH",
"1113 61 OFFCURVE",
"1100 82 OFFCURVE",
"1074 82 CURVE SMOOTH",
"872 82 LINE",
"871 684 LINE",
"1100 684 LINE SMOOTH",
"1127 684 OFFCURVE",
"1141 704 OFFCURVE",
"1141 725 CURVE SMOOTH",
"1141 745 OFFCURVE",
"1128 766 OFFCURVE",
"1101 766 CURVE SMOOTH",
"872 766 LINE",
"872 832 LINE SMOOTH",
"872 988 OFFCURVE",
"977 1115 OFFCURVE",
"1211 1103 CURVE SMOOTH",
"1434 1092 LINE",
"1434 82 LINE",
"1275 82 LINE SMOOTH",
"1247 82 OFFCURVE",
"1233 62 OFFCURVE",
"1233 42 CURVE SMOOTH",
"1233 21 OFFCURVE",
"1248 0 OFFCURVE",
"1279 0 CURVE SMOOTH",
"1662 0 LINE SMOOTH",
"1689 0 OFFCURVE",
"1702 20 OFFCURVE",
"1702 41 CURVE SMOOTH",
"1702 61 OFFCURVE",
"1689 82 OFFCURVE",
"1663 82 CURVE SMOOTH",
"1530 82 LINE",
"1530 1129 LINE SMOOTH",
"1530 1156 OFFCURVE",
"1509 1170 OFFCURVE",
"1483 1171 CURVE SMOOTH",
"1209 1182 LINE SMOOTH",
"928 1193 OFFCURVE",
"775 1037 OFFCURVE",
"775 838 CURVE SMOOTH",
"775 766 LINE",
"679 766 LINE",
"402 766 LINE",
"402 832 LINE SMOOTH",
"402 998 OFFCURVE",
"534 1111 OFFCURVE",
"675 1111 CURVE SMOOTH",
"807 1111 OFFCURVE",
"873 1038 OFFCURVE",
"873 1038 CURVE",
"901 1069 OFFCURVE",
"911 1090 OFFCURVE",
"926 1099 CURVE",
"886 1145 OFFCURVE",
"807 1188 OFFCURVE",
"684 1188 CURVE SMOOTH",
"470 1188 OFFCURVE",
"305 1039 OFFCURVE",
"305 838 CURVE SMOOTH",
"305 766 LINE",
"209 766 LINE SMOOTH",
"181 766 OFFCURVE",
"167 746 OFFCURVE",
"167 726 CURVE SMOOTH",
"167 705 OFFCURVE",
"182 684 OFFCURVE",
"213 684 CURVE SMOOTH",
"305 684 LINE",
"305 82 LINE",
"197 82 LINE SMOOTH",
"169 82 OFFCURVE",
"155 62 OFFCURVE",
"155 42 CURVE SMOOTH",
"155 21 OFFCURVE",
"170 0 OFFCURVE",
"201 0 CURVE SMOOTH"
);
}
);
width = 1860;
},
{
layerId = "F2E12B84-E402-48AA-89E7-06534AE23493";
width = 600;
}
);
},
{
glyphname = fi;
lastChange = "2017-06-26 22:00:10 +0000";
layers = (
{
layerId = "840BD324-B0A6-42B0-BD23-CB5E8C19394F";
paths = (
{
closed = 1;
nodes = (
"877 1134 OFFCURVE",
"914 1171 OFFCURVE",
"960 1171 CURVE SMOOTH",
"1006 1171 OFFCURVE",
"1042 1134 OFFCURVE",
"1042 1088 CURVE SMOOTH",
"1042 1042 OFFCURVE",
"1006 1006 OFFCURVE",
"960 1006 CURVE SMOOTH",
"914 1006 OFFCURVE",
"877 1042 OFFCURVE",
"877 1088 CURVE SMOOTH"
);
},
{
closed = 1;
nodes = (
"425 1095 OFFCURVE",
"342 998 OFFCURVE",
"342 832 CURVE SMOOTH",
"342 766 LINE",
"973 766 LINE SMOOTH",
"999 766 OFFCURVE",
"1020 762 OFFCURVE",
"1020 735 CURVE SMOOTH",
"1020 82 LINE",
"1156 82 LINE SMOOTH",
"1183 82 OFFCURVE",
"1196 61 OFFCURVE",
"1196 41 CURVE SMOOTH",
"1196 20 OFFCURVE",
"1182 0 OFFCURVE",
"1155 0 CURVE SMOOTH",
"762 0 LINE SMOOTH",
"731 0 OFFCURVE",
"716 22 OFFCURVE",
"716 43 CURVE SMOOTH",
"716 63 OFFCURVE",
"730 82 OFFCURVE",
"758 82 CURVE SMOOTH",
"924 82 LINE",
"924 684 LINE",
"341 684 LINE",
"342 82 LINE",
"564 82 LINE SMOOTH",
"590 82 OFFCURVE",
"603 61 OFFCURVE",
"603 41 CURVE SMOOTH",
"603 20 OFFCURVE",
"590 0 OFFCURVE",
"563 0 CURVE SMOOTH",
"141 0 LINE SMOOTH",
"110 0 OFFCURVE",
"95 21 OFFCURVE",
"95 42 CURVE SMOOTH",
"95 62 OFFCURVE",
"109 82 OFFCURVE",
"137 82 CURVE SMOOTH",
"245 82 LINE",
"245 684 LINE",
"153 684 LINE SMOOTH",
"122 684 OFFCURVE",
"107 705 OFFCURVE",
"107 726 CURVE SMOOTH",
"107 746 OFFCURVE",
"121 766 OFFCURVE",
"149 766 CURVE SMOOTH",
"245 766 LINE",
"245 838 LINE SMOOTH",
"245 1029 OFFCURVE",
"370 1188 OFFCURVE",
"644 1188 CURVE SMOOTH",
"707 1188 OFFCURVE",
"758 1170 OFFCURVE",
"790 1133 CURVE SMOOTH",
"808 1112 OFFCURVE",
"819 1069 OFFCURVE",
"791 1038 CURVE SMOOTH",
"759 1003 OFFCURVE",
"668 1059 OFFCURVE",
"618 1111 CURVE"
);
}
);
width = 1240;
},
{
layerId = "F2E12B84-E402-48AA-89E7-06534AE23493";
width = 600;
}
);
unicode = FB01;
},
{
glyphname = fl;
lastChange = "2017-06-29 15:22:08 +0000";
layers = (
{
layerId = "840BD324-B0A6-42B0-BD23-CB5E8C19394F";
paths = (
{
closed = 1;
nodes = (
"551 0 LINE SMOOTH",
"578 0 OFFCURVE",
"591 20 OFFCURVE",
"591 41 CURVE SMOOTH",
"591 61 OFFCURVE",
"578 82 OFFCURVE",
"552 82 CURVE SMOOTH",
"350 82 LINE",
"349 684 LINE",
"578 684 LINE SMOOTH",
"605 684 OFFCURVE",
"619 704 OFFCURVE",
"619 725 CURVE SMOOTH",
"619 745 OFFCURVE",
"606 766 OFFCURVE",
"579 766 CURVE SMOOTH",
"350 766 LINE",
"350 832 LINE SMOOTH",
"350 988 OFFCURVE",
"455 1113 OFFCURVE",
"679 1103 CURVE SMOOTH",
"912 1093 LINE",
"912 82 LINE",
"773 82 LINE SMOOTH",
"745 82 OFFCURVE",
"731 62 OFFCURVE",
"731 42 CURVE SMOOTH",
"731 21 OFFCURVE",
"746 0 OFFCURVE",
"777 0 CURVE SMOOTH",
"1140 0 LINE SMOOTH",
"1167 0 OFFCURVE",
"1180 20 OFFCURVE",
"1180 41 CURVE SMOOTH",
"1180 61 OFFCURVE",
"1167 82 OFFCURVE",
"1141 82 CURVE SMOOTH",
"1008 82 LINE",
"1008 1124 LINE SMOOTH",
"1008 1154 OFFCURVE",
"987 1171 OFFCURVE",
"961 1172 CURVE SMOOTH",
"677 1182 LINE SMOOTH",
"406 1192 OFFCURVE",
"253 1037 OFFCURVE",
"253 838 CURVE SMOOTH",
"253 766 LINE",
"157 766 LINE SMOOTH",
"129 766 OFFCURVE",
"115 746 OFFCURVE",
"115 726 CURVE SMOOTH",
"115 705 OFFCURVE",
"130 684 OFFCURVE",
"161 684 CURVE SMOOTH",
"253 684 LINE",
"253 82 LINE",
"132 82 LINE SMOOTH",
"104 82 OFFCURVE",
"90 62 OFFCURVE",
"90 42 CURVE SMOOTH",
"90 21 OFFCURVE",
"105 0 OFFCURVE",
"136 0 CURVE SMOOTH"
);
}
);
width = 1240;
},
{
layerId = "F2E12B84-E402-48AA-89E7-06534AE23493";
width = 600;
}
);
unicode = FB02;
},
{
glyphname = ordfeminine;
lastChange = "2017-06-26 22:00:10 +0000";
layers = (
{
layerId = "840BD324-B0A6-42B0-BD23-CB5E8C19394F";
paths = (
{
closed = 1;
nodes = (
"616 611 OFFCURVE",
"699 652 OFFCURVE",
"741 698 CURVE",
"758 633 OFFCURVE",
"795 617 OFFCURVE",
"838 617 CURVE SMOOTH",
"876 617 OFFCURVE",
"902 630 OFFCURVE",
"921 649 CURVE SMOOTH",
"931 659 OFFCURVE",
"941 672 OFFCURVE",
"941 685 CURVE SMOOTH",
"941 705 OFFCURVE",
"930 717 OFFCURVE",
"915 717 CURVE SMOOTH",
"900 717 OFFCURVE",
"894 706 OFFCURVE",
"885 697 CURVE SMOOTH",
"878 690 OFFCURVE",
"867 676 OFFCURVE",
"844 676 CURVE SMOOTH",
"825 676 OFFCURVE",
"801 691 OFFCURVE",
"801 731 CURVE SMOOTH",
"801 922 LINE SMOOTH",
"801 1078 OFFCURVE",
"760 1172 OFFCURVE",
"599 1172 CURVE SMOOTH",
"459 1172 OFFCURVE",
"364 1119 OFFCURVE",
"364 1027 CURVE SMOOTH",
"364 1000 OFFCURVE",
"377 978 OFFCURVE",
"404 978 CURVE SMOOTH",
"437 978 OFFCURVE",
"446 1020 OFFCURVE",
"449 1074 CURVE",
"492 1100 OFFCURVE",
"542 1110 OFFCURVE",
"599 1110 CURVE SMOOTH",
"697 1110 OFFCURVE",
"731 1058 OFFCURVE",
"731 955 CURVE",
"607 944 OFFCURVE",
"354 933 OFFCURVE",
"354 764 CURVE SMOOTH",
"354 672 OFFCURVE",
"413 611 OFFCURVE",
"517 611 CURVE SMOOTH"
);
},
{
closed = 1;
nodes = (
"465 680 OFFCURVE",
"432 713 OFFCURVE",
"432 764 CURVE SMOOTH",
"432 864 OFFCURVE",
"592 879 OFFCURVE",
"731 889 CURVE",
"731 771 LINE",
"682 719 OFFCURVE",
"605 680 OFFCURVE",
"525 680 CURVE SMOOTH"
);
}
);
width = 1240;
},
{
layerId = "F2E12B84-E402-48AA-89E7-06534AE23493";
width = 600;
}
);
unicode = 00AA;
},
{
glyphname = ordmasculine;
lastChange = "2017-06-26 22:00:10 +0000";
layers = (
{
layerId = "840BD324-B0A6-42B0-BD23-CB5E8C19394F";
paths = (
{
closed = 1;
nodes = (
"620 1172 CURVE SMOOTH",
"791 1172 OFFCURVE",
"907 1064 OFFCURVE",
"907 891 CURVE SMOOTH",
"907 720 OFFCURVE",
"791 610 OFFCURVE",
"620 610 CURVE SMOOTH",
"449 610 OFFCURVE",
"333 720 OFFCURVE",
"333 891 CURVE SMOOTH",
"333 1064 OFFCURVE",
"449 1172 OFFCURVE"
);
},
{
closed = 1;
nodes = (
"621 677 CURVE SMOOTH",
"750 677 OFFCURVE",
"831 766 OFFCURVE",
"831 892 CURVE SMOOTH",
"831 1016 OFFCURVE",
"750 1106 OFFCURVE",
"621 1106 CURVE SMOOTH",
"491 1106 OFFCURVE",
"410 1016 OFFCURVE",
"410 892 CURVE SMOOTH",
"410 766 OFFCURVE",
"491 677 OFFCURVE"
);
}
);
width = 1240;
},
{
layerId = "F2E12B84-E402-48AA-89E7-06534AE23493";
width = 600;
}
);
unicode = 00BA;
},
{
glyphname = mu;
lastChange = "2017-06-26 22:00:10 +0000";
layers = (
{
anchors = (
{
name = bottom;
position = "{620, 0}";
},
{
name = ogonek;
position = "{1116, 10}";
},
{
name = top;
position = "{620, 774}";
},
{
name = topright;
position = "{1220, 774}";
}
);
layerId = "840BD324-B0A6-42B0-BD23-CB5E8C19394F";
paths = (
{
closed = 1;
nodes = (
"355 -343 OFFCURVE",
"387 -325 OFFCURVE",
"387 -278 CURVE SMOOTH",
"387 -272 OFFCURVE",
"386 -265 OFFCURVE",
"385 -257 CURVE SMOOTH",
"374 -196 OFFCURVE",
"333 90 OFFCURVE",
"322 188 CURVE",
"306 405 LINE",
"270 285 LINE",
"270 -256 LINE SMOOTH",
"270 -310 OFFCURVE",
"291 -343 OFFCURVE",
"327 -343 CURVE SMOOTH"
);
},
{
closed = 1;
nodes = (
"719 -17 OFFCURVE",
"812 40 OFFCURVE",
"873 109 CURVE",
"866 226 LINE",
"812 138 OFFCURVE",
"710 65 OFFCURVE",
"572 65 CURVE SMOOTH",
"438 65 OFFCURVE",
"366 148 OFFCURVE",
"366 269 CURVE SMOOTH",
"366 768 LINE SMOOTH",
"366 787 OFFCURVE",
"352 802 OFFCURVE",
"332 802 CURVE SMOOTH",
"328 802 OFFCURVE",
"324 801 OFFCURVE",
"320 800 CURVE SMOOTH",
"145 765 LINE SMOOTH",
"120 760 OFFCURVE",
"109 744 OFFCURVE",
"109 727 CURVE SMOOTH",
"109 706 OFFCURVE",
"127 684 OFFCURVE",
"155 684 CURVE SMOOTH",
"160 684 OFFCURVE",
"166 685 OFFCURVE",
"172 686 CURVE SMOOTH",
"270 706 LINE",
"270 272 LINE SMOOTH",
"270 91 OFFCURVE",
"387 -17 OFFCURVE",
"571 -17 CURVE SMOOTH"
);
},
{
closed = 1;
nodes = (
"962 768 LINE SMOOTH",
"962 787 OFFCURVE",
"948 802 OFFCURVE",
"928 802 CURVE SMOOTH",
"924 802 OFFCURVE",
"920 801 OFFCURVE",
"916 800 CURVE SMOOTH",
"742 765 LINE SMOOTH",
"716 760 OFFCURVE",
"704 743 OFFCURVE",
"704 726 CURVE SMOOTH",
"704 705 OFFCURVE",
"722 683 OFFCURVE",
"751 683 CURVE SMOOTH",
"757 683 OFFCURVE",
"763 684 OFFCURVE",
"769 686 CURVE SMOOTH",
"866 706 LINE",
"866 116 LINE",
"891 19 OFFCURVE",
"949 -7 OFFCURVE",
"1016 -7 CURVE SMOOTH",
"1086 -7 OFFCURVE",
"1111 14 OFFCURVE",
"1139 40 CURVE SMOOTH",
"1154 54 OFFCURVE",
"1165 74 OFFCURVE",
"1165 91 CURVE SMOOTH",
"1165 112 OFFCURVE",
"1148 133 OFFCURVE",
"1129 133 CURVE SMOOTH",
"1108 133 OFFCURVE",
"1099 116 OFFCURVE",
"1085 102 CURVE SMOOTH",
"1075 92 OFFCURVE",
"1058 72 OFFCURVE",
"1024 72 CURVE SMOOTH",
"996 72 OFFCURVE",
"961 93 OFFCURVE",
"961 162 CURVE SMOOTH"
);
}
);
width = 1240;
},
{
layerId = "F2E12B84-E402-48AA-89E7-06534AE23493";
width = 600;
}
);
unicode = 03BC;
},
